<svg width="100%" viewBox="0 0 238 48" fill="none" xmlns="http://www.w3.org/2000/svg">
<g clip-path="url(#clip0_2004_14990)">
<path d="M64.4453 15.6318H67.0212L74.2293 32.3639H70.8262L69.2663 28.5353H62.0111L60.4985 32.3639H57.1663L64.4453 15.6318ZM68.2265 25.983L65.6505 19.1767L63.0272 25.983H68.2265Z" fill="#98A2B3"/>
<path d="M77.4233 15.6318H80.8501L85.4112 28.2754L90.114 15.6318H93.3286L86.5693 32.3639H83.9935L77.4233 15.6318Z" fill="#98A2B3"/>
<path d="M103.97 15.6318H106.547L113.754 32.3639H110.351L108.792 28.5353H101.536L100.023 32.3639H96.6917L103.97 15.6318ZM107.752 25.983L105.176 19.1767L102.553 25.983H107.752Z" fill="#98A2B3"/>
<path d="M120.341 15.6318H123.319V29.6697H130.432V32.3639H120.341V15.6318Z" fill="#98A2B3"/>
<path d="M142.734 15.6318H145.31L152.518 32.3639H149.115L147.555 28.5353H140.3L138.787 32.3639H135.455L142.734 15.6318ZM146.515 25.983L143.939 19.1767L141.316 25.983H146.515Z" fill="#98A2B3"/>
<path d="M159.104 15.6318H163.051L171.157 28.0627H171.204V15.6318H174.182V32.3639H170.401L162.129 19.5312H162.082V32.3639H159.104V15.6318Z" fill="#98A2B3"/>
<path d="M194.126 19.5548C193.511 18.8931 192.913 18.452 192.33 18.2313C191.762 18.0108 191.187 17.9005 190.605 17.9005C189.738 17.9005 188.95 18.058 188.241 18.3732C187.548 18.6725 186.949 19.0979 186.445 19.6494C185.94 20.185 185.547 20.8152 185.263 21.54C184.995 22.2647 184.862 23.0446 184.862 23.8796C184.862 24.7777 184.995 25.6049 185.263 26.3611C185.547 27.1173 185.94 27.7712 186.445 28.3226C186.949 28.874 187.548 29.3073 188.241 29.6225C188.95 29.9375 189.738 30.0951 190.605 30.0951C191.282 30.0951 191.936 29.9375 192.566 29.6225C193.212 29.2916 193.81 28.7717 194.362 28.0626L196.819 29.8115C196.063 30.8513 195.142 31.6076 194.054 32.0803C192.968 32.5529 191.809 32.7893 190.581 32.7893C189.289 32.7893 188.099 32.5844 187.012 32.1748C185.94 31.7494 185.011 31.1586 184.224 30.4023C183.451 29.6303 182.845 28.7086 182.404 27.6372C181.962 26.5659 181.742 25.3764 181.742 24.0687C181.742 22.7295 181.962 21.5163 182.404 20.4292C182.845 19.3263 183.451 18.3889 184.224 17.6169C185.011 16.8449 185.94 16.2541 187.012 15.8445C188.099 15.4191 189.289 15.2064 190.581 15.2064C191.715 15.2064 192.763 15.4112 193.724 15.8208C194.701 16.2147 195.606 16.8921 196.442 17.8533L194.126 19.5548Z" fill="#98A2B3"/>
<path d="M203.545 15.6318H206.523V22.2962H214.345V15.6318H217.323V32.3639H214.345V24.9904H206.523V32.3639H203.545V15.6318Z" fill="#98A2B3"/>
<path d="M225.789 15.6318H236.872V18.3259H228.767V22.4381H236.447V25.1322H228.767V29.6697H237.298V32.3639H225.789V15.6318Z" fill="#98A2B3"/>
<path d="M24.3517 42.8068C34.7384 42.8068 43.1585 34.3867 43.1585 24C43.1585 13.6133 34.7384 5.19318 24.3517 5.19318C13.965 5.19318 5.54492 13.6133 5.54492 24C5.54492 34.3867 13.965 42.8068 24.3517 42.8068Z" fill="white"/>
<path fill-rule="evenodd" clip-rule="evenodd" d="M48.3518 24C48.3518 37.2548 37.6066 48 24.3518 48C11.097 48 0.351807 37.2548 0.351807 24C0.351807 10.7452 11.097 0 24.3518 0C37.6066 0 48.3518 10.7452 48.3518 24ZM17.5509 33.5503H12.8932C11.9145 33.5503 11.4311 33.5503 11.1362 33.3616C10.8179 33.1552 10.6233 32.8133 10.5997 32.436C10.582 32.0881 10.8237 31.6636 11.3072 30.8146L22.8077 10.5434C23.2971 9.68257 23.5447 9.2522 23.8572 9.093C24.1933 8.92206 24.5942 8.92206 24.9303 9.093C25.2427 9.2522 25.4904 9.68257 25.9797 10.5434L28.344 14.6705L28.3561 14.6916C28.8846 15.6151 29.1526 16.0833 29.2696 16.5748C29.3993 17.1114 29.3993 17.6774 29.2696 18.2139C29.1517 18.7092 28.8864 19.1809 28.3498 20.1183L22.3089 30.7969L22.2933 30.8243C21.7612 31.7554 21.4916 32.2272 21.1179 32.5834C20.7112 32.9725 20.2218 33.2555 19.6853 33.4147C19.1959 33.5503 18.6476 33.5503 17.5509 33.5503ZM29.3132 33.5508H35.9874C36.972 33.5508 37.4672 33.5508 37.7621 33.3563C38.0804 33.1499 38.2809 32.802 38.2986 32.4247C38.3157 32.0883 38.0791 31.6802 37.6157 30.8806C37.5999 30.8533 37.5838 30.8256 37.5675 30.7975L34.2245 25.0785L34.1865 25.0142C33.7167 24.2197 33.4794 23.8185 33.1751 23.6635C32.839 23.4925 32.444 23.4925 32.1079 23.6635C31.8013 23.8226 31.5537 24.2413 31.0643 25.0843L27.7332 30.8033L27.7217 30.823C27.2341 31.6648 26.9904 32.0854 27.008 32.4306C27.0316 32.808 27.2261 33.1558 27.5445 33.3622C27.8334 33.5508 28.3286 33.5508 29.3132 33.5508Z" fill="#98A2B3"/>
</g>
<defs>
<clipPath id="clip0_2004_14990">
<rect width="236.958" height="48" fill="white" transform="translate(0.351807)"/>
</clipPath>
</defs>
</svg>
