<svg width="100%" viewBox="0 0 238 48" fill="none" xmlns="http://www.w3.org/2000/svg">
<g clip-path="url(#clip0_2004_15110)">
<path d="M64.445 15.6318H67.021L74.229 32.364H70.8259L69.2661 28.5354H62.0108L60.4983 32.364H57.166L64.445 15.6318ZM68.2263 25.9831L65.6503 19.1768L63.027 25.9831H68.2263Z" fill="#E84142"/>
<path d="M77.4229 15.6318H80.8496L85.4107 28.2754L90.1136 15.6318H93.3281L86.5688 32.364H83.993L77.4229 15.6318Z" fill="#E84142"/>
<path d="M103.97 15.6318H106.547L113.754 32.364H110.351L108.792 28.5354H101.536L100.023 32.364H96.6914L103.97 15.6318ZM107.751 25.9831L105.176 19.1768L102.552 25.9831H107.751Z" fill="#E84142"/>
<path d="M120.34 15.6318H123.318V29.6698H130.431V32.364H120.34V15.6318Z" fill="#E84142"/>
<path d="M142.734 15.6318H145.31L152.518 32.364H149.115L147.555 28.5354H140.3L138.787 32.364H135.455L142.734 15.6318ZM146.515 25.9831L143.939 19.1768L141.316 25.9831H146.515Z" fill="#E84142"/>
<path d="M159.104 15.6318H163.051L171.157 28.0627H171.204V15.6318H174.181V32.364H170.401L162.129 19.5313H162.082V32.364H159.104V15.6318Z" fill="#E84142"/>
<path d="M194.125 19.5547C193.511 18.893 192.912 18.4519 192.329 18.2313C191.762 18.0107 191.187 17.9005 190.604 17.9005C189.738 17.9005 188.95 18.058 188.241 18.3731C187.548 18.6725 186.949 19.0979 186.445 19.6493C185.94 20.1849 185.547 20.8152 185.263 21.5399C184.995 22.2647 184.861 23.0445 184.861 23.8795C184.861 24.7776 184.995 25.6048 185.263 26.361C185.547 27.1173 185.94 27.7711 186.445 28.3225C186.949 28.874 187.548 29.3072 188.241 29.6224C188.95 29.9375 189.738 30.0951 190.604 30.0951C191.282 30.0951 191.935 29.9375 192.566 29.6224C193.211 29.2915 193.81 28.7716 194.362 28.0626L196.819 29.8114C196.063 30.8513 195.142 31.6075 194.054 32.0802C192.967 32.5528 191.809 32.7892 190.581 32.7892C189.288 32.7892 188.099 32.5844 187.012 32.1747C185.94 31.7493 185.01 31.1585 184.223 30.4023C183.451 29.6303 182.844 28.7085 182.403 27.6372C181.962 26.5658 181.742 25.3763 181.742 24.0686C181.742 22.7295 181.962 21.5163 182.403 20.4292C182.844 19.3263 183.451 18.3888 184.223 17.6168C185.01 16.8448 185.94 16.254 187.012 15.8444C188.099 15.419 189.288 15.2063 190.581 15.2063C191.715 15.2063 192.762 15.4111 193.723 15.8207C194.7 16.2146 195.606 16.8921 196.441 17.8532L194.125 19.5547Z" fill="#E84142"/>
<path d="M203.545 15.6318H206.522V22.2963H214.345V15.6318H217.322V32.364H214.345V24.9904H206.522V32.364H203.545V15.6318Z" fill="#E84142"/>
<path d="M225.789 15.6318H236.872V18.326H228.767V22.4381H236.447V25.1323H228.767V29.6698H237.298V32.364H225.789V15.6318Z" fill="#E84142"/>
<path d="M24.3517 42.8067C34.7384 42.8067 43.1585 34.3866 43.1585 23.9999C43.1585 13.6132 34.7384 5.19312 24.3517 5.19312C13.965 5.19312 5.54492 13.6132 5.54492 23.9999C5.54492 34.3866 13.965 42.8067 24.3517 42.8067Z" fill="white"/>
<path fill-rule="evenodd" clip-rule="evenodd" d="M48.3516 24C48.3516 37.2548 37.6064 48 24.3516 48C11.0967 48 0.351562 37.2548 0.351562 24C0.351562 10.7452 11.0967 0 24.3516 0C37.6064 0 48.3516 10.7452 48.3516 24ZM17.5507 33.5503H12.893C11.9143 33.5503 11.4308 33.5503 11.136 33.3616C10.8176 33.1552 10.623 32.8133 10.5995 32.436C10.5818 32.0881 10.8235 31.6636 11.307 30.8146L22.8075 10.5434C23.2968 9.68257 23.5445 9.2522 23.8569 9.093C24.193 8.92206 24.5939 8.92206 24.93 9.093C25.2425 9.2522 25.4901 9.68257 25.9795 10.5434L28.3437 14.6705L28.3558 14.6916C28.8843 15.6151 29.1524 16.0833 29.2694 16.5748C29.3991 17.1114 29.3991 17.6774 29.2694 18.2139C29.1515 18.7092 28.8861 19.1809 28.3496 20.1183L22.3087 30.7969L22.2931 30.8243C21.761 31.7554 21.4914 32.2272 21.1177 32.5834C20.7109 32.9725 20.2216 33.2555 19.685 33.4147C19.1957 33.5503 18.6474 33.5503 17.5507 33.5503ZM29.313 33.5508H35.9871C36.9718 33.5508 37.467 33.5508 37.7618 33.3563C38.0802 33.1499 38.2806 32.802 38.2983 32.4247C38.3154 32.0883 38.0789 31.6802 37.6154 30.8806C37.5996 30.8533 37.5835 30.8256 37.5672 30.7975L34.2243 25.0785L34.1862 25.0142C33.7165 24.2197 33.4792 23.8185 33.1748 23.6635C32.8387 23.4925 32.4438 23.4925 32.1077 23.6635C31.8011 23.8226 31.5534 24.2413 31.0641 25.0843L27.7329 30.8033L27.7215 30.823C27.2339 31.6648 26.9902 32.0854 27.0077 32.4306C27.0313 32.808 27.2258 33.1558 27.5443 33.3622C27.8332 33.5508 28.3284 33.5508 29.313 33.5508Z" fill="#E84142"/>
</g>
<defs>
<clipPath id="clip0_2004_15110">
<rect width="236.958" height="48" fill="white" transform="translate(0.351562)"/>
</clipPath>
</defs>
</svg>
