<svg width="100%" viewBox="0 0 275 48" fill="none" xmlns="http://www.w3.org/2000/svg">
<g clip-path="url(#clip0_3566_34560)">
<path d="M8.1124 7.35219L20.8837 0L33.6549 7.35219L28.9596 10.0683L20.8837 5.4322L12.8077 10.0683L8.1124 7.35219ZM33.6549 16.6244L28.9596 13.9083L20.8837 18.5444L12.8077 13.9083L8.1124 16.6244V22.0566L16.1883 26.6927V35.9649L20.8837 38.681L25.579 35.9649V26.6927L33.6549 22.0566V16.6244ZM33.6549 31.3288V25.8966L28.9596 28.6127V34.0449L33.6549 31.3288ZM36.9886 33.2488L28.9127 37.8849V43.3171L41.6839 35.9649V21.2605L36.9886 23.9766V33.2488ZM32.2933 11.9883L36.9886 14.7044V20.1366L41.6839 17.4205V11.9883L36.9886 9.2722L32.2933 11.9883ZM16.1883 39.8517V45.2839L20.8837 48L25.579 45.2839V39.8517L20.8837 42.5678L16.1883 39.8517ZM8.1124 31.3288L12.8077 34.0449V28.6127L8.1124 25.8966V31.3288ZM16.1883 11.9883L20.8837 14.7044L25.579 11.9883L20.8837 9.2722L16.1883 11.9883ZM4.77868 14.7044L9.47399 11.9883L4.77868 9.2722L0.083374 11.9883V17.4205L4.77868 20.1366V14.7044ZM4.77868 23.9766L0.083374 21.2605V35.9649L12.8546 43.3171V37.8849L4.77868 33.2488V23.9766Z" fill="#F0B90B"/>
<path d="M78.7006 30.123V30.0467C78.7006 26.4595 76.7875 24.6659 73.6882 23.4829C75.6013 22.4143 77.2083 20.7352 77.2083 17.7204V17.6441C77.2083 13.4463 73.8412 10.7368 68.3696 10.7368H55.9342V37.4501H68.6757C74.7213 37.4501 78.7006 35.0078 78.7006 30.123ZM71.3541 18.7126C71.3541 20.697 69.7088 21.5366 67.1069 21.5366H61.6736V15.8886H67.4896C69.9767 15.8886 71.3541 16.8808 71.3541 18.6363V18.7126ZM72.8464 29.398C72.8464 31.3824 71.2776 32.2983 68.6757 32.2983H61.6736V26.4213H68.4844C71.5072 26.4213 72.8464 27.528 72.8464 29.3216V29.398Z" fill="#F0B90B"/>
<path d="M107.729 37.4501V10.7368H101.914V27.1846L89.3637 10.7368H83.9304V37.4501H89.7463V20.4681L102.717 37.4501H107.729Z" fill="#F0B90B"/>
<path d="M137.308 30.123V30.0467C137.308 26.4595 135.395 24.6659 132.296 23.4829C134.209 22.4143 135.816 20.7352 135.816 17.7204V17.6441C135.816 13.4463 132.449 10.7368 126.977 10.7368H114.542V37.4501H127.283C133.329 37.4501 137.308 35.0078 137.308 30.123ZM129.962 18.7126C129.962 20.697 128.316 21.5366 125.715 21.5366H120.281V15.8886H126.097C128.584 15.8886 129.962 16.8808 129.962 18.6363V18.7126ZM131.454 29.398C131.454 31.3824 129.885 32.2983 127.283 32.2983H120.281V26.4213H127.092C130.115 26.4213 131.454 27.528 131.454 29.3216V29.398Z" fill="#F0B90B"/>
<path d="M172.821 32.7312L169.799 29.6782C167.503 31.8153 165.398 33.151 162.108 33.151C156.98 33.151 153.269 28.8768 153.269 23.6105C153.269 18.3441 156.98 14.1463 162.108 14.1463C165.169 14.1463 167.465 15.482 169.607 17.4664L172.63 13.9937C170.066 11.5513 167.082 9.83398 162.146 9.83398C154.034 9.83398 148.333 16.0544 148.333 23.6868C148.333 31.3955 154.149 37.4633 161.955 37.4633C166.967 37.4633 170.028 35.6315 172.821 32.7312Z" fill="#F0B90B"/>
<path d="M195.637 25.7476V37.0053H200.343V10.292H195.637V21.3971H182.857V10.292H178.151V37.0053H182.857V25.7476H195.637Z" fill="#F0B90B"/>
<path d="M221.455 10.1011H217.093L205.308 37.0053H210.129L212.884 30.556H225.549L228.266 37.0053H233.24L221.455 10.1011ZM223.828 26.3963H214.606L219.198 15.711L223.828 26.3963Z" fill="#F0B90B"/>
<path d="M238.484 10.292V37.0053H243.19V10.292H238.484Z" fill="#F0B90B"/>
<path d="M269.453 28.7624L255.104 10.292H250.743V37.0053H255.372V18.0007L270.142 37.0053H274.083V10.292H269.453V28.7624Z" fill="#F0B90B"/>
</g>
<defs>
<clipPath id="clip0_3566_34560">
<rect width="274" height="48" fill="white" transform="translate(0.083374)"/>
</clipPath>
</defs>
</svg>