<svg width="100%" viewBox="0 0 178 48" fill="none" xmlns="http://www.w3.org/2000/svg">
<g clip-path="url(#clip0_2004_14971)">
<path d="M50.074 5.7923H58.1932C60.2568 5.7923 61.7702 6.34394 62.7332 7.30933C63.6962 8.1368 64.109 9.24009 64.109 10.3434C64.109 10.7571 64.109 11.3088 63.9714 11.7225C63.6962 12.4121 63.2835 13.1016 62.7332 13.6533C62.4581 13.9291 62.1829 14.067 61.9077 14.2049C62.8708 14.4807 63.6962 15.0324 64.3841 15.722C64.9344 16.4115 65.2096 17.239 65.2096 18.4802C65.2096 19.1697 65.072 19.9972 64.7968 20.5489C64.5217 21.1005 63.9714 21.6522 63.4211 22.0659C62.7332 22.4796 62.0453 22.7555 61.3574 23.0313C60.532 23.3071 59.569 23.3071 58.6059 23.3071H50.2115V5.7923H50.074ZM57.5053 12.9637C58.1932 12.9637 58.8811 12.8258 59.569 12.55C60.1193 12.2742 60.3944 11.7225 60.3944 11.1709C60.3944 10.6192 60.1193 10.0676 59.7065 9.79174C59.1562 9.37801 58.4683 9.24009 57.7805 9.37801H53.9283V13.1016H57.5053V12.9637ZM58.4683 19.9972C59.1562 19.9972 59.8441 19.8593 60.532 19.5835C61.0823 19.3077 61.3574 18.756 61.2199 18.0665C61.2199 17.5148 60.9447 16.9632 60.532 16.6873C60.1193 16.4115 59.2938 16.1357 58.3308 16.1357H53.7908V19.9972H58.4683Z" fill="#98A2B3"/>
<path d="M70.0269 5.7923H73.879V23.4495H70.0269V5.7923Z" fill="#98A2B3"/>
<path d="M79.7947 5.7923H83.3739L91.6285 16.6896V5.7923H95.4806V23.4495H92.1788L83.5115 12.2764V23.4495H79.7947V5.7923Z" fill="#98A2B3"/>
<path d="M107.177 5.65436H110.754L118.323 23.4472H114.333L112.682 19.4478H105.251L103.6 23.4472H99.6101L107.179 5.65436H107.177ZM111.304 16.1379L108.965 10.3456L106.626 16.1379H111.304Z" fill="#98A2B3"/>
<path d="M122.45 5.7923H126.029L134.284 16.6896V5.7923H138.136V23.4495H134.834L126.304 12.2764V23.4495H122.45V5.7923Z" fill="#98A2B3"/>
<path d="M152.171 23.7253C150.933 23.7253 149.694 23.4495 148.594 23.0357C146.393 22.0704 144.742 20.4154 143.779 18.2088C143.366 17.1055 143.091 15.8643 143.091 14.6231C143.091 12.2786 144.054 9.93411 145.705 8.14126C146.53 7.31379 147.493 6.62423 148.594 6.21049C149.832 5.65885 151.07 5.52094 152.308 5.52094C152.996 5.52094 153.822 5.52094 154.51 5.65885C155.198 5.79676 155.748 5.93467 156.298 6.21049C156.848 6.48632 157.399 6.76214 157.811 7.03797C158.224 7.31379 158.775 7.72752 159.187 8.14126L156.848 11.0374C156.161 10.4858 155.473 9.93411 154.785 9.52038C154.097 9.10664 153.271 8.96873 152.446 8.96873C151.758 8.96873 151.07 9.10664 150.382 9.38247C149.694 9.65829 149.144 10.072 148.731 10.6237C148.319 11.1753 147.906 11.727 147.631 12.4165C147.356 13.1061 147.218 13.7956 147.218 14.4852C147.218 15.1748 147.356 16.0022 147.631 16.6918C147.906 17.3814 148.181 17.933 148.731 18.4846C149.694 19.5879 151.07 20.1396 152.446 20.1396C153.271 20.1396 154.234 20.0017 155.06 19.5879C155.748 19.1742 156.573 18.6226 157.124 18.0709L159.6 20.5533C159.187 20.9671 158.637 21.5187 158.224 21.9324C157.674 22.3462 157.124 22.622 156.573 22.8978C156.023 23.1737 155.335 23.4495 154.647 23.5874C153.684 23.7253 152.859 23.7253 152.171 23.7253Z" fill="#98A2B3"/>
<path d="M164.005 5.7923H177.214V9.24232H167.719V12.828H176.114V16.2758H167.719V19.9994H177.352V23.4495H164.005V5.7923Z" fill="#98A2B3"/>
<path d="M55.0289 40.8286C54.0659 40.8286 53.1029 40.6907 52.2774 40.2769C51.4519 40.0011 50.6265 39.4495 49.801 38.7599L51.1768 37.2429C51.7271 37.7945 52.2774 38.0703 52.9653 38.4841C53.6532 38.7599 54.341 38.8978 55.0289 38.8978C55.5792 38.8978 56.1295 38.7599 56.6798 38.4841C57.0926 38.2083 57.2301 37.7945 57.2301 37.3808C57.2301 37.2429 57.2301 36.967 57.0926 36.8291C56.955 36.6912 56.8174 36.4154 56.6798 36.2775L55.8544 35.8637C55.4416 35.7258 54.8913 35.5879 54.4786 35.45C53.9283 35.3121 53.2404 35.1742 52.6901 34.8984C52.2774 34.7605 51.7271 34.4846 51.4519 34.2088C51.1768 33.933 50.9016 33.6572 50.6265 33.2434C50.3513 32.6918 50.3513 32.1401 50.3513 31.7264C50.3513 31.1747 50.4889 30.761 50.6265 30.2094C50.7641 29.7956 51.1768 29.3819 51.4519 29.1061C51.8647 28.8302 52.2774 28.5544 52.8277 28.4165C53.378 28.2786 53.9283 28.1407 54.4786 28.1407C55.3041 28.1407 56.1295 28.2786 56.955 28.5544C57.6429 28.8302 58.3307 29.244 59.0186 29.6577L57.918 31.3127C57.3677 30.8989 56.8174 30.6231 56.2671 30.3473C55.7168 30.0714 55.1665 30.0715 54.6162 30.0715C54.0659 30.0715 53.5156 30.2094 53.1029 30.4852C52.8277 30.761 52.5526 31.1747 52.5526 31.5885C52.5526 31.8643 52.5526 32.0022 52.6901 32.278C52.8277 32.416 52.9653 32.6918 53.1029 32.8297C53.378 32.9676 53.6532 33.1055 54.0659 33.2434C54.4786 33.3813 54.8913 33.5192 55.5792 33.6572C56.1295 33.7951 56.6798 33.933 57.3677 34.2088C57.7804 34.3467 58.1932 34.6225 58.6059 34.8984C58.8811 35.1742 59.1562 35.5879 59.2938 35.8637C59.4314 36.2775 59.5689 36.6912 59.5689 37.2429C59.5689 37.7945 59.4314 38.3462 59.2938 38.7599C59.0186 39.1736 58.7435 39.5874 58.3308 40.0011C57.918 40.2769 57.5053 40.5528 56.955 40.6907C56.2671 40.6907 55.5792 40.8286 55.0289 40.8286Z" fill="#98A2B3"/>
<path d="M61.9077 28.2764H64.2465L67.9633 34.0687L71.8154 28.2764H74.1542V40.6907H71.953V31.7242L68.1009 37.5187H67.9633L64.1089 31.7242V40.6907H61.9077V28.2764Z" fill="#98A2B3"/>
<path d="M81.5854 28.1385H83.6491L89.0146 40.5528H86.6758L85.4376 37.5187H79.6594L78.4212 40.5528H76.22L81.5854 28.1385ZM84.7497 35.7259L82.5485 30.761L80.4848 35.7259H84.7497Z" fill="#98A2B3"/>
<path d="M91.2157 28.2764H96.7188C97.4066 28.2764 98.0945 28.4143 98.7824 28.5522C99.3327 28.6901 99.883 29.1039 100.296 29.5176C100.571 29.7934 100.846 30.2072 101.121 30.7588C101.259 31.1725 101.396 31.7242 101.396 32.2758C101.396 32.6896 101.259 33.2412 101.121 33.655C100.984 34.0687 100.708 34.3445 100.571 34.7583C100.296 35.0341 100.021 35.3099 99.6079 35.5857C99.1951 35.8615 98.7824 35.9995 98.3697 36.1374L101.671 40.8264H99.0575L96.0309 36.5511H93.2793V40.8264H91.0781L91.2157 28.2742V28.2764ZM96.5812 34.3445C97.2691 34.3445 97.9569 34.2066 98.3697 33.7929C98.7824 33.3791 99.0575 32.8275 99.0575 32.2758C99.0575 31.7242 98.7824 31.1725 98.3697 30.7588C97.8194 30.3451 97.1315 30.2072 96.4436 30.2072H93.2793V34.3445H96.5812Z" fill="#98A2B3"/>
<path d="M107.039 30.2071H103.05V28.2764H113.095V30.2071H109.103V40.6907H106.902L107.039 30.2071Z" fill="#98A2B3"/>
<path d="M126.442 40.8286C125.616 40.8286 124.791 40.6907 123.966 40.277C122.452 39.5874 121.214 38.4841 120.664 36.9671C120.389 36.1396 120.113 35.3121 120.251 34.4847C120.251 33.6572 120.389 32.8297 120.664 32.0023C121.214 30.4852 122.452 29.244 123.966 28.5545C124.791 28.2786 125.616 28.0028 126.579 28.0028C127.13 28.0028 127.68 28.0028 128.093 28.1407C128.506 28.2786 128.918 28.4165 129.331 28.5545C129.744 28.6924 130.019 28.9682 130.432 29.1061C130.707 29.3819 131.119 29.6578 131.395 29.9336L130.019 31.5885C129.606 31.1748 129.056 30.761 128.506 30.4852C127.955 30.2094 127.267 30.0715 126.579 30.0715C126.029 30.0715 125.479 30.2094 124.929 30.3473C124.378 30.6231 123.966 30.899 123.553 31.3127C123.14 31.7264 122.865 32.1402 122.727 32.6918C122.59 33.2435 122.452 33.7951 122.452 34.3468C122.452 34.8984 122.59 35.45 122.727 36.0017C122.865 36.5533 123.14 36.9671 123.553 37.3808C123.966 37.7946 124.378 38.0704 124.929 38.3462C125.479 38.622 126.029 38.7599 126.579 38.622C127.267 38.622 127.955 38.4841 128.506 38.2083C129.056 37.9325 129.606 37.5187 130.156 36.9671L131.532 38.3462C131.257 38.622 130.844 39.0358 130.569 39.3116C130.156 39.5874 129.881 39.8632 129.469 40.0011C129.056 40.1391 128.643 40.4149 128.093 40.4149C127.542 40.8286 126.992 40.8286 126.442 40.8286Z" fill="#98A2B3"/>
<path d="M133.733 28.2764H135.797V33.3791H141.715V28.2764H143.916V40.6907H141.715V35.4478H135.797V40.6907H133.733V28.2764Z" fill="#98A2B3"/>
<path d="M151.483 28.1385H153.547L158.912 40.5528H156.573L155.335 37.5187H149.557L148.319 40.5528H146.118L151.483 28.1385ZM154.51 35.7259L152.446 30.761L150.383 35.7259H154.51Z" fill="#98A2B3"/>
<path d="M161.116 28.2764H163.317V40.6907H161.116V28.2764Z" fill="#98A2B3"/>
<path d="M166.619 28.2764H168.545L175.151 36.8291V28.2764H177.352V40.6907H175.563L168.82 31.8621V40.6907H166.619V28.2764Z" fill="#98A2B3"/>
<path d="M25.8582 39.8632V45.2418L21.1807 48L16.6406 45.2418V39.8632L21.1807 42.6214L25.8582 39.8632ZM0.814941 21.2407L5.35496 23.9989V33.2412L13.199 37.9302V43.3088L0.814941 35.9994V21.2407ZM41.5442 21.2407V35.9994L29.0225 43.3088V37.9302L36.8666 33.2412V23.9989L41.5442 21.2407ZM29.0225 13.9313L33.7001 16.6896V22.0681L25.856 26.7571V36.1374L21.316 38.8956L16.776 36.1374V26.7571L8.65679 22.0681V16.6896L13.3344 13.9313L21.1784 18.6203L29.0225 13.9313ZM8.659 25.9319L13.199 28.6901V34.0687L8.659 31.3104V25.9319ZM33.7023 25.9319V31.3104L29.1623 34.0687V28.6901L33.7023 25.9319ZM5.35496 9.24232L10.0325 12.0006L5.35496 14.7588V20.1374L0.814941 17.3791V12.0006L5.35496 9.24232ZM37.0019 9.24232L41.6795 12.0006V17.3791L37.0019 20.1374V14.7588L32.4619 12.0006L37.0019 9.24232ZM21.1784 9.24232L25.856 12.0006L21.1784 14.7588L16.6384 12.0006L21.1784 9.24232ZM21.1784 0L33.7001 7.30933L29.1601 10.0676L21.316 5.37856L13.3344 10.0676L8.79436 7.30933L21.1784 0Z" fill="#98A2B3"/>
</g>
<defs>
<clipPath id="clip0_2004_14971">
<rect width="176.537" height="48" fill="white" transform="translate(0.814941)"/>
</clipPath>
</defs>
</svg>
