<svg width="100%" viewBox="0 0 394 64" fill="none" xmlns="http://www.w3.org/2000/svg">
  <g clip-path="url(#clip0_1332_15709)">
  <path d="M92.0429 31.5392C92.0429 39.328 97.8328 44.5248 104.852 44.5248C108.661 44.533 112.397 43.476 115.642 41.472V49.0368C114.183 49.9456 109.801 51.5968 104.909 51.5968C93.4952 51.5776 84.4568 42.88 84.4568 31.5392C84.4568 20.1984 93.4952 11.52 104.909 11.52C109.801 11.52 114.183 13.1584 115.642 14.08V21.6C112.394 19.6036 108.659 18.5513 104.852 18.56C97.8328 18.56 92.0429 23.7504 92.0429 31.5392ZM149.229 32V51.0144H142.222V34.2464C142.222 30.9184 140.757 28.4352 136.993 28.4352C133.343 28.4352 131.209 30.7456 131.209 34.9248V51.0144H124.203V9.8048H131.209V27.4752C131.712 26.1952 133.681 22.2208 139.579 22.2208C145.636 22.2208 149.229 25.8368 149.229 32ZM187.325 45.088V51.0144H178.28C178.133 51.0233 177.985 51.0014 177.847 50.9501C177.709 50.8988 177.583 50.8191 177.477 50.7162C177.371 50.6133 177.287 50.4894 177.231 50.3523C177.176 50.2153 177.149 50.068 177.153 49.92V44.864C176.197 48.192 173.617 51.5776 168.235 51.5776C160.929 51.5776 155.649 46.1056 155.649 36.9024C155.649 27.584 161.433 22.2208 168.624 22.2208C175.254 22.2208 176.605 27.6992 176.605 27.6992V22.7904H183.611V45.088H187.325ZM176.815 36.96C176.815 31.6544 174.267 28.32 170.076 28.32C166.031 28.32 162.942 31.3152 162.942 36.9024C162.942 42.4896 165.49 45.4848 169.738 45.4848C174.063 45.4848 176.815 42.6624 176.815 36.96ZM203.408 23.9168V51.0144H196.401V28.7168H191.306V22.7904H202.312C202.46 22.7857 202.606 22.8119 202.743 22.8672C202.88 22.9225 203.003 23.0057 203.106 23.1117C203.209 23.2176 203.289 23.3438 203.341 23.4824C203.393 23.621 203.416 23.7689 203.408 23.9168ZM203.185 16.9152H195.599V9.8048H203.185V16.9152ZM211.593 22.7904H218.504V27.8144C218.733 27.0784 220.414 22.2208 226.988 22.2208C233.058 22.2208 236.657 25.8368 236.657 31.9872V51.0144H229.65V34.2464C229.65 30.9184 228.192 28.4352 224.427 28.4352C220.771 28.4352 218.637 30.7456 218.637 34.9248V51.0144H211.631L211.593 22.7904ZM274.746 45.088V51.0144H265.702C265.555 51.0233 265.407 51.0014 265.269 50.9501C265.131 50.8988 265.005 50.8191 264.899 50.7162C264.793 50.6133 264.709 50.4894 264.653 50.3523C264.597 50.2153 264.571 50.068 264.574 49.92V44.864C263.619 48.192 261.039 51.5776 255.657 51.5776C248.351 51.5776 243.071 46.1056 243.071 36.9024C243.071 27.584 248.854 22.2208 256.052 22.2208C262.683 22.2208 264.027 27.6992 264.027 27.6992V22.7904H271.033V45.088H274.746ZM264.237 36.96C264.237 31.6544 261.689 28.32 257.498 28.32C253.453 28.32 250.364 31.3152 250.364 36.9024C250.364 42.4896 252.944 45.4848 257.192 45.4848C261.485 45.4848 264.237 42.6624 264.237 36.96ZM289.078 11.52V51.0144H282.033V15.7312H277.651V9.8048H287.371C287.596 9.80222 287.819 9.84483 288.027 9.93012C288.235 10.0154 288.425 10.1416 288.584 10.3014C288.743 10.4612 288.868 10.6513 288.953 10.8606C289.038 11.0698 289.08 11.294 289.078 11.52ZM301.696 64H294.689V58.0736H299.868C301.721 58.0736 302.569 57.5104 303.237 55.8144L305.32 50.5088L294.505 22.7904H302.314L308.887 42.7136L315.69 22.7904H323.499L309.677 58.5216C308.218 62.304 305.798 64 301.696 64ZM327.391 49.2096V42.3808C328.346 43.0208 332.219 45.5808 336.55 45.5808C339.862 45.5808 341.321 44.6208 341.321 42.7584C341.321 37.1712 326.996 41.2928 326.996 30.6816C326.996 25.8816 331.04 22.208 338.461 22.208C342.557 22.208 345.467 23.2832 346.608 23.9616V30.72C345.2 29.8112 342.391 28.0064 338.569 28.0064C335.257 28.0064 334.021 29.024 334.021 30.6048C334.021 35.1744 348.289 32.0128 348.289 42.4064C348.289 48.0512 343.627 51.6032 336.824 51.6032C332.353 51.5776 328.684 50.0544 327.391 49.2096ZM365.092 23.9168V51.0144H358.085V28.7168H352.99V22.7904H364.003C364.15 22.7857 364.296 22.8118 364.433 22.8672C364.569 22.9226 364.692 23.0059 364.795 23.1119C364.897 23.2179 364.977 23.3443 365.028 23.4829C365.079 23.6215 365.101 23.7693 365.092 23.9168ZM364.869 16.9152H357.283V9.8048H364.869V16.9152ZM372.602 49.2096V42.3808C373.551 43.0208 377.43 45.5808 381.755 45.5808C385.073 45.5808 386.532 44.6208 386.532 42.7584C386.532 37.1712 372.207 41.2928 372.207 30.6816C372.207 25.8816 376.251 22.208 383.672 22.208C387.774 22.208 390.678 23.2832 391.818 23.9616V30.72C389.468 29.035 386.672 28.0904 383.786 28.0064C380.468 28.0064 379.232 29.024 379.232 30.6048C379.232 35.1744 393.506 32.0128 393.506 42.4064C393.506 48.0512 388.844 51.6032 382.041 51.6032C377.576 51.5776 373.888 50.0544 372.602 49.2096Z" fill="#101828"/>
  <path d="M32.3479 0C33.0613 0 33.8702 0.0896 33.8702 0.0896C31.4767 2.97399 30.0344 6.53441 29.7427 10.2784C25.233 11.0364 21.0812 13.2191 17.8901 16.5095C14.699 19.7998 12.6348 24.0266 11.9972 28.576C7.87615 29.024 3.21365 30.9184 0.532077 33.6256C-0.104876 15.0528 14.061 0 32.3479 0ZM36.9339 55.7952C36.0904 55.9204 35.2388 55.9825 34.3861 55.9808C32.9144 55.9631 31.4458 55.8412 29.9912 55.616C28.8547 58.3654 27.355 60.9486 25.5325 63.296C19.8159 62.0293 14.5574 59.2039 10.3346 55.1303C6.11182 51.0567 3.08816 45.8924 1.59579 40.2048C4.46845 36.7808 11.1055 34.7968 15.2266 34.7968C24.0165 34.7968 28.679 39.4816 30.2969 46.784C25.0038 45.344 21.8636 42.368 19.7999 37.952C18.5939 37.512 17.3185 37.2952 16.0355 37.312C14.8778 37.3073 13.727 37.491 12.6278 37.856C14.9591 46.784 23.5707 53.4528 34.0613 53.4528C43.7493 53.4528 47.8704 48.4992 47.8704 48.4992V40.9216C47.8704 40.9216 43.1188 45.8816 37.2015 46.8736C36.5358 42.2445 34.3923 37.9577 31.0933 34.6579C27.7943 31.3581 23.5182 29.2238 18.9082 28.576C20.4305 21.0048 26.1694 16.768 33.9721 16.768C41.7748 16.768 48.0551 22.4448 48.0551 22.4448V14.9632C48.0551 14.9632 44.0169 11.1744 36.8448 10.368C37.0231 7.04 39.176 2.8864 41.5073 1.3504C51.2781 4.416 60.6987 12.7104 63.3866 24.7872C63.3866 24.7872 59.0808 29.1136 51.0106 29.1136C44.3736 29.1136 40.1824 25.7792 37.8257 19.9232C36.5894 19.4807 35.2843 19.264 33.9721 19.2832C32.7475 19.2697 31.5312 19.4868 30.3861 19.9232C32.9848 29.2992 41.2143 35.6032 50.3864 35.6032C59.3547 35.6032 64.1955 31.4624 64.1955 31.4624C64.1955 50.208 49.9342 63.6416 32.9848 64C34.9594 62.08 36.4817 57.8688 36.9339 55.7952Z" fill="#101828"/>
  </g>
  <defs>
  <clipPath id="clip0_1332_15709">
  <rect width="393" height="64" fill="white" transform="translate(0.5)"/>
  </clipPath>
  </defs>
</svg>
