<svg width="100%" viewBox="0 0 32 32" fill="none" xmlns="http://www.w3.org/2000/svg">
<path d="M17.3329 6.66667C17.3329 8.13943 14.0497 9.33333 9.99959 9.33333C5.9495 9.33333 2.66626 8.13943 2.66626 6.66667M17.3329 6.66667C17.3329 5.19391 14.0497 4 9.99959 4C5.9495 4 2.66626 5.19391 2.66626 6.66667M17.3329 6.66667V8.66667M2.66626 6.66667V22.6667C2.66626 24.1394 5.9495 25.3333 9.99959 25.3333M9.99959 14.6667C9.77487 14.6667 9.5525 14.663 9.33292 14.6558C5.59526 14.5333 2.66626 13.391 2.66626 12M9.99959 20C5.9495 20 2.66626 18.8061 2.66626 17.3333M29.3329 15.3333C29.3329 16.8061 26.0497 18 21.9996 18C17.9495 18 14.6663 16.8061 14.6663 15.3333M29.3329 15.3333C29.3329 13.8606 26.0497 12.6667 21.9996 12.6667C17.9495 12.6667 14.6663 13.8606 14.6663 15.3333M29.3329 15.3333V25.3333C29.3329 26.8061 26.0497 28 21.9996 28C17.9495 28 14.6663 26.8061 14.6663 25.3333V15.3333M29.3329 20.3333C29.3329 21.8061 26.0497 23 21.9996 23C17.9495 23 14.6663 21.8061 14.6663 20.3333" stroke="white" stroke-width="2" stroke-linecap="round" stroke-linejoin="round"/>
</svg>
