<svg width="220" height="48" viewBox="0 0 220 48" fill="none" xmlns="http://www.w3.org/2000/svg">
<g clip-path="url(#clip0_2004_15033)">
<path d="M84.3175 37.7362H76.7245V16.5362H84.3741C86.5193 16.5362 88.3823 16.9552 89.9347 17.7931C91.4872 18.6311 92.7011 19.8601 93.5196 21.4242C94.3664 23.0163 94.7616 24.8876 94.7616 27.0942C94.7616 29.3008 94.3382 31.2002 93.4914 32.7923C92.6446 34.3843 91.4591 35.5854 89.8783 36.4513C88.354 37.3171 86.4911 37.7362 84.3175 37.7362ZM81.2408 33.8816H84.12C86.1241 33.8816 87.6484 33.3509 88.6927 32.2615C89.7372 31.2002 90.2453 29.4685 90.2453 27.0942C90.2453 24.748 89.7372 23.0442 88.6927 21.9548C87.6484 20.8935 86.1241 20.3628 84.12 20.3628H81.2408V33.8816Z" fill="#98A2B3"/>
<path d="M98.1488 37.7358H93.2937L100.689 16.5639H106.532L113.899 37.7358H109.044L107.464 32.9038H99.7294L98.1488 37.7358ZM100.887 29.4123H106.335L103.709 21.396H103.54L100.887 29.4123Z" fill="#98A2B3"/>
<path d="M132.473 27.1501C132.473 29.4684 132.021 31.4237 131.146 33.0437C130.271 34.6637 129.057 35.8927 127.561 36.7585C126.037 37.5965 124.343 38.0434 122.452 38.0434C120.561 38.0434 118.839 37.6244 117.343 36.7585C115.819 35.8927 114.633 34.6637 113.758 33.0437C112.883 31.4237 112.432 29.4684 112.432 27.1781C112.432 24.8598 112.883 22.9045 113.758 21.2845C114.633 19.6645 115.819 18.4355 117.343 17.5697C118.867 16.7317 120.561 16.2848 122.452 16.2848C124.343 16.2848 126.037 16.7038 127.561 17.5697C129.085 18.4076 130.271 19.6645 131.146 21.2845C132.049 22.8487 132.473 24.8318 132.473 27.1501ZM127.9 27.1501C127.9 24.9156 127.392 23.1839 126.404 22.0108C125.416 20.8376 124.089 20.2232 122.452 20.2232C120.815 20.2232 119.489 20.8097 118.5 22.0108C117.512 23.2118 117.005 24.9156 117.005 27.1501C117.005 29.3846 117.512 31.1164 118.5 32.2895C119.489 33.4627 120.815 34.0771 122.452 34.0771C124.089 34.0771 125.416 33.4906 126.404 32.2895C127.392 31.0884 127.9 29.3846 127.9 27.1501Z" fill="#98A2B3"/>
<path d="M138.542 16.5362H144.131L150.03 30.7812H150.284L156.184 16.5362H161.745V37.7362H157.341V23.938H157.172L151.639 37.6244H148.648L143.115 23.8822H142.946V37.7362H138.542V16.5362Z" fill="#98A2B3"/>
<path d="M168.321 38.0158C166.797 38.0158 165.526 37.6247 164.511 36.8147C163.494 36.0326 162.987 34.8315 162.987 33.2674C162.987 32.0943 163.268 31.1446 163.833 30.4743C164.397 29.8039 165.131 29.3011 166.063 28.9939C166.966 28.6866 167.955 28.4632 169.027 28.3794C170.41 28.2398 171.426 28.1001 172.019 27.9325C172.612 27.7649 172.923 27.4576 172.923 26.927V26.8711C172.923 26.2287 172.724 25.698 172.301 25.3629C171.877 24.9997 171.313 24.8321 170.551 24.8321C169.761 24.8321 169.111 24.9997 168.632 25.3629C168.152 25.698 167.841 26.1449 167.7 26.6755L163.579 26.3404C163.89 24.888 164.651 23.7427 165.865 22.9048C167.079 22.0669 168.659 21.6201 170.579 21.6201C171.765 21.6201 172.894 21.8155 173.91 22.1786C174.955 22.5418 175.773 23.1283 176.422 23.9104C177.071 24.6925 177.382 25.7259 177.382 26.9829V37.7364H173.148V35.5298H173.035C172.64 36.256 172.075 36.8705 171.285 37.3454C170.494 37.7922 169.507 38.0158 168.321 38.0158ZM169.591 34.9992C170.579 34.9992 171.369 34.7198 171.991 34.1613C172.612 33.6026 172.923 32.9043 172.923 32.0664V30.3904C172.752 30.5022 172.471 30.6139 172.103 30.6977C171.737 30.7815 171.342 30.8653 170.946 30.9211C170.523 30.977 170.156 31.0329 169.845 31.0887C169.055 31.2005 168.433 31.4239 167.955 31.7311C167.475 32.0664 167.249 32.5411 167.249 33.1557C167.249 33.7702 167.475 34.2171 167.926 34.5243C168.349 34.8315 168.913 34.9992 169.591 34.9992Z" fill="#98A2B3"/>
<path d="M179.076 37.7362V16.5362H183.536V27.8484H183.79L188.927 21.8152H194.036L188.081 28.6863L194.347 37.7082H189.125L184.722 31.3119L183.508 32.6806V37.7362H179.076Z" fill="#98A2B3"/>
<path d="M200.782 38.0435C199.145 38.0435 197.734 37.7082 196.52 37.0379C195.334 36.3675 194.402 35.4179 193.782 34.2168C193.133 32.9879 192.822 31.5354 192.822 29.8596C192.822 28.2395 193.133 26.787 193.782 25.5581C194.431 24.3291 195.334 23.3515 196.492 22.6812C197.649 21.9829 199.032 21.6478 200.613 21.6478C202.024 21.6478 203.294 21.955 204.452 22.5415C205.581 23.128 206.484 24.0219 207.162 25.2229C207.839 26.424 208.177 27.9043 208.177 29.7198V30.9209H197.254C197.254 32.0941 197.592 33.0437 198.241 33.7141C198.89 34.3845 199.794 34.7475 200.894 34.7475C201.629 34.7475 202.278 34.5799 202.814 34.2727C203.351 33.9654 203.746 33.4906 203.972 32.9041L208.093 33.1834C207.782 34.6637 206.992 35.8369 205.722 36.7307C204.424 37.5965 202.786 38.0435 200.782 38.0435ZM197.226 28.1836H203.972C203.972 27.234 203.661 26.4519 203.04 25.8374C202.42 25.2229 201.657 24.9157 200.669 24.9157C199.681 24.9157 198.862 25.2229 198.241 25.8653C197.621 26.5078 197.282 27.2898 197.226 28.1836Z" fill="#98A2B3"/>
<path d="M209.278 37.7364V21.8435H213.597V24.6087H213.766C214.049 23.631 214.557 22.8769 215.235 22.3742C215.912 21.8714 216.73 21.6201 217.605 21.6201C218.113 21.6201 218.565 21.6759 219.017 21.7876V25.698C218.819 25.6421 218.508 25.5863 218.142 25.5304C217.775 25.4746 217.436 25.4746 217.125 25.4746C216.138 25.4746 215.319 25.7818 214.698 26.3963C214.049 27.0108 213.738 27.7929 213.738 28.7704V37.7364H209.278Z" fill="#98A2B3"/>
<path d="M1.69678 47.9173L23.0803 8.30823L41.9365 0L20.5531 39.6091L1.69678 47.9173Z" fill="#98A2B3"/>
<path d="M23.0249 38.8648L39.2708 8.77844L48.4906 17.8319L32.4669 48.001L23.0249 38.8648Z" fill="#98A2B3"/>
<path d="M50.2952 18.7415L62.32 23.1026L56.3215 34.0883L41.7418 34.5851L50.2952 18.7415Z" fill="#98A2B3"/>
</g>
<defs>
<clipPath id="clip0_2004_15033">
<rect width="218.182" height="48" fill="white" transform="translate(0.834961)"/>
</clipPath>
</defs>
</svg>
