<svg xmlns="http://www.w3.org/2000/svg" width="100%" viewBox="0 0 220 48" fill="none" class="w-full max-w-full"><g clip-path="url(#dao-logo_svg__a)"><path fill="#2B2D42" d="M84.318 37.736h-7.593v-21.2h7.65c2.144 0 4.007.42 5.56 1.257a8.6 8.6 0 0 1 3.585 3.631c.847 1.592 1.242 3.464 1.242 5.67q0 3.31-1.27 5.698a8.73 8.73 0 0 1-3.614 3.66c-1.524.865-3.387 1.284-5.56 1.284m-3.077-3.854h2.88c2.003 0 3.528-.531 4.572-1.62 1.044-1.062 1.552-2.794 1.552-5.168 0-2.346-.508-4.05-1.552-5.14q-1.567-1.59-4.573-1.591h-2.879zM98.149 37.736h-4.855l7.395-21.172h5.843l7.367 21.172h-4.854l-1.581-4.832H99.73zm2.738-8.324h5.448l-2.625-8.016h-.17zM132.473 27.15c0 2.318-.452 4.274-1.327 5.894s-2.089 2.849-3.585 3.714c-1.524.838-3.218 1.285-5.109 1.285s-3.613-.419-5.109-1.285c-1.524-.865-2.71-2.095-3.585-3.715s-1.326-3.575-1.326-5.865c0-2.318.451-4.274 1.326-5.894s2.061-2.849 3.585-3.714c1.524-.838 3.218-1.285 5.109-1.285s3.585.419 5.109 1.285c1.524.837 2.71 2.094 3.585 3.714.903 1.565 1.327 3.548 1.327 5.866m-4.573 0c0-2.234-.508-3.966-1.496-5.14s-2.315-1.787-3.952-1.787-2.963.587-3.952 1.788c-.988 1.2-1.495 2.905-1.495 5.139s.507 3.966 1.495 5.14 2.315 1.787 3.952 1.787 2.964-.587 3.952-1.788c.988-1.2 1.496-2.905 1.496-5.139M138.542 16.536h5.589l5.899 14.245h.254l5.9-14.245h5.561v21.2h-4.404V23.938h-.169l-5.533 13.686h-2.991l-5.533-13.742h-.169v13.854h-4.404zM168.321 38.016c-1.524 0-2.795-.391-3.81-1.201-1.017-.782-1.524-1.983-1.524-3.548 0-1.173.281-2.122.846-2.793.564-.67 1.299-1.173 2.23-1.48.903-.307 1.892-.53 2.964-.614 1.383-.14 2.399-.28 2.993-.447.592-.168.903-.475.903-1.006v-.056c0-.642-.199-1.173-.622-1.508-.423-.363-.987-.53-1.75-.53-.79 0-1.44.167-1.919.53-.48.335-.791.782-.931 1.313l-4.122-.335q.466-2.18 2.287-3.436c1.213-.838 2.794-1.285 4.714-1.285a9.9 9.9 0 0 1 3.33.559 5.55 5.55 0 0 1 2.512 1.732c.65.782.96 1.815.96 3.072v10.753h-4.233V35.53h-.114a4.7 4.7 0 0 1-1.75 1.816q-1.186.67-2.964.67m1.27-3.017c.989 0 1.778-.28 2.4-.838a2.7 2.7 0 0 0 .932-2.095V30.39c-.17.112-.452.224-.819.308s-.762.167-1.158.223q-.635.084-1.101.168c-.789.112-1.411.335-1.89.642-.48.335-.706.81-.706 1.425 0 .614.226 1.061.677 1.368.424.308.988.475 1.665.475M179.076 37.736v-21.2h4.46v11.312h.254l5.137-6.033h5.109l-5.955 6.871 6.266 9.022h-5.222l-4.403-6.396-1.215 1.369v5.055z"></path><path fill="#2B2D42" d="M200.782 38.043c-1.637 0-3.048-.335-4.262-1.005a6.8 6.8 0 0 1-2.738-2.821c-.649-1.23-.96-2.682-.96-4.357 0-1.62.311-3.073.96-4.302s1.552-2.206 2.71-2.877c1.157-.698 2.54-1.033 4.121-1.033 1.411 0 2.681.307 3.839.893q1.693.88 2.71 2.682c.677 1.2 1.015 2.681 1.015 4.497v1.2h-10.923c0 1.174.338 2.124.987 2.794s1.553 1.033 2.653 1.033c.735 0 1.384-.167 1.92-.474a2.64 2.64 0 0 0 1.158-1.369l4.121.28c-.311 1.48-1.101 2.653-2.371 3.547-1.298.865-2.936 1.312-4.94 1.312m-3.556-9.86h6.746q0-1.424-.932-2.346c-.62-.614-1.383-.921-2.371-.921s-1.807.307-2.428.95a3.57 3.57 0 0 0-1.015 2.318M209.278 37.736V21.844h4.319v2.765h.169c.283-.978.791-1.732 1.469-2.235.677-.502 1.495-.754 2.37-.754.509 0 .96.056 1.412.168v3.91a8 8 0 0 0-.875-.168c-.367-.055-.706-.055-1.017-.055-.987 0-1.806.307-2.427.921-.649.615-.96 1.397-.96 2.374v8.966z"></path><path fill="url(#dao-logo_svg__b)" d="M1.697 47.917 23.08 8.308 41.937 0 20.553 39.61z"></path><path fill="url(#dao-logo_svg__c)" d="M23.025 38.865 39.27 8.778l9.22 9.054L32.467 48z"></path><path fill="url(#dao-logo_svg__d)" d="m50.295 18.742 12.025 4.36-5.999 10.986-14.58.497z"></path></g><defs><linearGradient id="dao-logo_svg__b" x1="1.74" x2="63.441" y1="47.888" y2="-0.47" gradientUnits="userSpaceOnUse"><stop stop-color="#48D5FF"></stop><stop offset="1" stop-color="#1FA5FF"></stop></linearGradient><linearGradient id="dao-logo_svg__c" x1="2.278" x2="66.55" y1="48.023" y2="-0.484" gradientUnits="userSpaceOnUse"><stop stop-color="#48D5FF"></stop><stop offset="1" stop-color="#1FA5FF"></stop></linearGradient><linearGradient id="dao-logo_svg__d" x1="2.008" x2="64.337" y1="47.821" y2="0.5" gradientUnits="userSpaceOnUse"><stop stop-color="#48D5FF"></stop><stop offset="1" stop-color="#1FA5FF"></stop></linearGradient><clipPath id="dao-logo_svg__a"><path fill="#fff" d="M.835 0h218.182v48H.835z"></path></clipPath></defs></svg>