<svg width="100%" viewBox="0 0 32 32" fill="none" xmlns="http://www.w3.org/2000/svg">
<path
    d="M6.6674 29.3334H25.3341M3.33406 10.6667H28.6674M13.3341 2.66675L10.6674 10.6667L16.0007 24.6667L21.3341 10.6667L18.6674 2.66675M16.79 24.4652L28.7095 11.3538C28.9309 11.1103 29.0416 10.9885 29.0857 10.8498C29.1246 10.7277 29.1274 10.5969 29.0938 10.4731C29.0557 10.3327 28.9503 10.2063 28.7396 9.95343L22.9872 3.05055C22.8697 2.90947 22.8109 2.83893 22.7388 2.78822C22.675 2.74329 22.6037 2.70992 22.5284 2.68964C22.4433 2.66675 22.3514 2.66675 22.1678 2.66675H9.83366C9.65002 2.66675 9.5582 2.66675 9.47311 2.68964C9.39772 2.70992 9.32648 2.74329 9.26263 2.78822C9.19058 2.83893 9.13179 2.90947 9.01423 3.05055L3.26183 9.95342C3.05112 10.2063 2.94577 10.3327 2.90767 10.4731C2.87409 10.5969 2.87691 10.7277 2.91578 10.8498C2.9599 10.9885 3.0706 11.1103 3.292 11.3538L15.2115 24.4652C15.4851 24.7662 15.6219 24.9167 15.7827 24.9723C15.9239 25.0212 16.0775 25.0212 16.2188 24.9723C16.3796 24.9167 16.5164 24.7662 16.79 24.4652Z"
    stroke="currentColor"
    stroke-width="2"
    stroke-linecap="round"
    stroke-linejoin="round"
  />
</svg>
