<svg width="66" height="66" viewBox="0 0 66 66" fill="none" xmlns="http://www.w3.org/2000/svg">
<rect x="5" y="5" width="56" height="56" rx="28" fill="#FFD6E2"/>
<rect x="5" y="5" width="56" height="56" rx="28" stroke="#FFEBF1" stroke-width="10"/>
<path d="M33.0002 34.1665L32.3311 35.1223C32.7328 35.4035 33.2675 35.4035 33.6692 35.1223L33.0002 34.1665ZM23.6668 24.8332H42.3335V22.4998H23.6668V24.8332ZM42.3335 24.8332C42.9725 24.8332 43.5002 25.3608 43.5002 25.9998H45.8335C45.8335 24.0722 44.2612 22.4998 42.3335 22.4998V24.8332ZM43.5002 25.9998V39.9998H45.8335V25.9998H43.5002ZM43.5002 39.9998C43.5002 40.6388 42.9725 41.1665 42.3335 41.1665V43.4998C44.2612 43.4998 45.8335 41.9275 45.8335 39.9998H43.5002ZM42.3335 41.1665H23.6668V43.4998H42.3335V41.1665ZM23.6668 41.1665C23.0278 41.1665 22.5002 40.6388 22.5002 39.9998H20.1668C20.1668 41.9275 21.7392 43.4998 23.6668 43.4998V41.1665ZM22.5002 39.9998V25.9998H20.1668V39.9998H22.5002ZM22.5002 25.9998C22.5002 25.3608 23.0278 24.8332 23.6668 24.8332V22.4998C21.7392 22.4998 20.1668 24.0722 20.1668 25.9998H22.5002ZM43.9978 25.0441L32.3311 33.2107L33.6692 35.1223L45.3359 26.9556L43.9978 25.0441ZM33.6692 33.2107L22.0025 25.0441L20.6645 26.9556L32.3311 35.1223L33.6692 33.2107Z" fill="#E60046"/>
</svg>
