<svg width="100%" viewBox="0 0 186 48" fill="none" xmlns="http://www.w3.org/2000/svg">
<g clip-path="url(#clip0_2004_15122)">
<path d="M17.1684 0.459802C18.335 -0.153267 20.1101 -0.153267 21.2768 0.459802L33.1811 6.71561C33.8837 7.08484 34.2696 7.63504 34.3388 8.20301H34.3501V39.648C34.3346 40.2675 33.9451 40.8829 33.1811 41.2845L21.2768 47.5403C20.1101 48.1534 18.335 48.1534 17.1684 47.5403L5.26403 41.2845C4.50323 40.8848 4.13813 40.2649 4.12006 39.648C4.11826 39.5872 4.11803 39.5366 4.11976 39.4946L4.11968 8.40499C4.11848 8.37094 4.11837 8.33693 4.11935 8.30306L4.12006 8.20301L4.12538 8.20297C4.17826 7.62877 4.54662 7.09264 5.26403 6.71561L17.1684 0.459802ZM32.4761 25.746L21.2768 31.6313C20.1101 32.2444 18.335 32.2444 17.1684 31.6313L5.99356 25.7591V39.5857L17.1684 45.4271C17.7994 45.7627 18.4543 46.0897 19.0947 46.1314L19.2226 46.1355C19.8899 46.1377 20.5377 45.8006 21.1947 45.4815L32.4761 39.5355V25.746ZM2.18382 38.9644C2.18382 40.1689 2.32455 40.9609 2.60398 41.5189C2.83558 41.9813 3.18308 42.3345 3.81759 42.7646L3.85381 42.789C3.99306 42.8824 4.14646 42.9802 4.33317 43.095L4.55337 43.2292L5.22953 43.6354L4.25975 45.2306L3.50294 44.7757L3.37573 44.6981C3.1569 44.5635 2.97554 44.4484 2.80637 44.3347C0.997996 43.1216 0.323568 41.7994 0.31026 39.048L0.310059 38.9644H2.18382ZM18.2854 17.3178C18.1988 17.3474 18.1175 17.3817 18.0435 17.4206L6.13913 23.6764C6.12665 23.683 6.11472 23.6895 6.1034 23.6959L6.09331 23.7017L6.11198 23.7123L6.13913 23.727L18.0435 29.9828C18.1175 30.0217 18.1988 30.056 18.2854 30.0856V17.3178ZM20.1597 17.3178V30.0856C20.2464 30.056 20.3276 30.0217 20.4017 29.9828L32.306 23.727C32.3185 23.7204 32.3304 23.7139 32.3418 23.7075L32.3519 23.7017L32.3331 23.6911L32.306 23.6764L20.4017 17.4206C20.3276 17.3817 20.2464 17.3474 20.1597 17.3178ZM32.4761 10.4336L21.7972 16.0455L32.4761 21.6574V10.4336ZM5.99356 10.4467V21.6442L16.6477 16.0455L5.99356 10.4467ZM20.4017 2.10831C19.7826 1.78299 18.6626 1.78299 18.0435 2.10831L6.13913 8.36415C6.12665 8.37071 6.11472 8.3772 6.1034 8.38361L6.09331 8.38943L6.11198 8.40007L6.13913 8.41474L18.0435 14.6706C18.6626 14.9959 19.7826 14.9959 20.4017 14.6706L32.306 8.41474C32.3185 8.40818 32.3304 8.40169 32.3418 8.39524L32.3519 8.38943L32.3331 8.37877L32.306 8.36415L20.4017 2.10831ZM34.2354 2.79433L34.9922 3.24909L35.1194 3.32679C35.3382 3.46118 35.5196 3.57664 35.6888 3.69012C37.4971 4.90312 38.1716 6.22564 38.1847 8.97679L38.1851 9.0606H36.3113C36.3113 7.8558 36.1706 7.06395 35.8911 6.50606C35.6595 6.04369 35.312 5.69033 34.6775 5.26035L34.6413 5.23594C34.5021 5.14252 34.3487 5.04469 34.1619 4.92968L33.9417 4.7955L33.2656 4.38953L34.2354 2.79433Z" fill="#1969FF"/>
<path d="M57.2201 38.337V20.8007H62.0831V17.5899H57.2201V15.2846C57.2201 12.6775 58.3604 11.374 60.6408 11.374C61.3001 11.374 62.0009 11.4838 62.7427 11.7033V8.28664C61.8359 8.01221 60.8332 7.875 59.7341 7.875C57.6187 7.875 55.9769 8.47875 54.8092 9.68625C53.6414 10.8937 53.0576 12.6501 53.0576 14.9553V17.5899H49.0601V20.8007H53.0576V38.337H57.2201ZM74.1172 38.625C75.7109 38.625 77.1052 38.2957 78.3003 37.6369C79.4954 36.9784 80.3954 36.0316 80.9999 34.7967V38.337H85.1212V17.5899H80.9999V20.9654C80.3677 19.7304 79.4613 18.7768 78.2797 18.1044C77.0984 17.4321 75.7109 17.0959 74.1172 17.0959C72.3314 17.0959 70.7377 17.5487 69.3367 18.4543C67.9353 19.3599 66.8433 20.6361 66.0603 22.2826C65.2773 23.9292 64.8858 25.8228 64.8858 27.9633C64.8858 30.1039 65.2702 31.9769 66.0397 33.5823C66.8088 35.1877 67.8873 36.4296 69.2748 37.3077C70.6623 38.1859 72.2763 38.625 74.1172 38.625ZM75.1064 35.3318C73.2104 35.3318 71.7337 34.6869 70.6762 33.3971C69.6183 32.1073 69.0892 30.296 69.0892 27.9633C69.0892 25.6032 69.6183 23.7577 70.6762 22.4267C71.7337 21.0957 73.1969 20.4302 75.0652 20.4302C76.9608 20.4302 78.4241 21.0752 79.4542 22.365C80.4847 23.6548 80.9999 25.4935 80.9999 27.881C80.9999 30.2411 80.4847 32.073 79.4542 33.3765C78.4241 34.68 76.9747 35.3318 75.1064 35.3318ZM95.3418 38.337V26.5226C95.3418 24.6839 95.8706 23.2157 96.9284 22.118C97.9863 21.0203 99.3944 20.4714 101.153 20.4714C102.691 20.4714 103.811 20.883 104.512 21.7063C105.212 22.5296 105.562 23.8469 105.562 25.6581V38.337H109.725V25.4112C109.725 19.8677 107.238 17.0959 102.265 17.0959C100.672 17.0959 99.2501 17.4458 97.9998 18.1456C96.7499 18.8454 95.7952 19.8539 95.1356 21.1712L94.7647 17.5899H90.8909C91.1107 19.3188 91.2206 21.2672 91.2206 23.4352V38.337H95.3418ZM123.655 38.625C124.809 38.625 125.839 38.4742 126.746 38.1724V34.7967C126.004 35.0162 125.276 35.126 124.561 35.126C123.462 35.126 122.604 34.831 121.986 34.2409C121.368 33.6509 121.058 32.6424 121.058 31.2154V20.8007H126.787V17.5899H121.058V10.9623L116.896 12.4031V17.5899H112.857V20.8007H116.896V31.5447C116.896 33.8499 117.487 35.6062 118.668 36.8137C119.85 38.0212 121.512 38.625 123.655 38.625ZM139.563 38.625C141.568 38.625 143.341 38.1859 144.879 37.3077C146.418 36.4296 147.606 35.1809 148.444 33.5618C149.282 31.9426 149.701 30.049 149.701 27.881C149.701 25.713 149.282 23.8126 148.444 22.1797C147.606 20.5469 146.418 19.2914 144.879 18.4131C143.341 17.535 141.568 17.0959 139.563 17.0959C137.53 17.0959 135.744 17.535 134.205 18.4131C132.667 19.2914 131.478 20.5469 130.64 22.1797C129.802 23.8126 129.383 25.713 129.383 27.881C129.383 30.049 129.802 31.9426 130.64 33.5618C131.478 35.1809 132.667 36.4296 134.205 37.3077C135.744 38.1859 137.53 38.625 139.563 38.625ZM139.522 35.3318C137.626 35.3318 136.163 34.7006 135.132 33.4383C134.102 32.1759 133.587 30.3235 133.587 27.881C133.587 25.4935 134.109 23.6548 135.153 22.365C136.197 21.0752 137.667 20.4302 139.563 20.4302C141.431 20.4302 142.881 21.0752 143.911 22.365C144.941 23.6548 145.456 25.4935 145.456 27.881C145.456 30.3235 144.948 32.1759 143.931 33.4383C142.915 34.7006 141.445 35.3318 139.522 35.3318ZM158.685 38.337V26.6049C158.685 24.7113 159.153 23.2157 160.087 22.118C161.021 21.0203 162.285 20.4714 163.878 20.4714C165.252 20.4714 166.248 20.883 166.866 21.7063C167.484 22.5296 167.793 23.8332 167.793 25.617V38.337H171.956V26.6049C171.956 24.7113 172.416 23.2157 173.337 22.118C174.257 21.0203 175.514 20.4714 177.108 20.4714C178.481 20.4714 179.477 20.883 180.095 21.7063C180.714 22.5296 181.023 23.8332 181.023 25.617V38.337H185.185V25.4112C185.185 19.8677 182.877 17.0959 178.261 17.0959C176.723 17.0959 175.342 17.4527 174.12 18.1662C172.897 18.8797 171.97 19.8539 171.338 21.0888C170.349 18.4269 168.247 17.0959 165.032 17.0959C163.521 17.0959 162.202 17.4389 161.076 18.125C159.949 18.8111 159.084 19.7853 158.479 21.0477L158.109 17.5899H154.234C154.454 19.3188 154.564 21.2672 154.564 23.4352V38.337H158.685Z" fill="#1969FF"/>
</g>
<defs>
<clipPath id="clip0_2004_15122">
<rect width="184.875" height="48" fill="white" transform="translate(0.310059)"/>
</clipPath>
</defs>
</svg>
