<svg width="66" height="66" viewBox="0 0 66 66" fill="none" xmlns="http://www.w3.org/2000/svg">
<rect x="5" y="5" width="56" height="56" rx="28" fill="#BCFBFF"/>
<rect x="5" y="5" width="56" height="56" rx="28" stroke="#E7FEFF" stroke-width="10"/>
<path d="M45.834 31.9267C45.834 31.2823 45.3117 30.76 44.6673 30.76C44.023 30.76 43.5007 31.2823 43.5007 31.9267H45.834ZM44.6673 33L45.834 33.0007V33H44.6673ZM37.2742 23.4023C37.8627 23.6646 38.5524 23.4001 38.8147 22.8115C39.0769 22.223 38.8124 21.5332 38.2238 21.271L37.2742 23.4023ZM45.4927 24.4912C45.9481 24.0354 45.9477 23.2967 45.4919 22.8413C45.036 22.3859 44.2973 22.3863 43.842 22.8421L45.4927 24.4912ZM33.0007 35.345L32.1757 36.17C32.3946 36.3888 32.6914 36.5118 33.0009 36.5117C33.3105 36.5116 33.6073 36.3885 33.826 36.1696L33.0007 35.345ZM30.3256 31.02C29.87 30.5644 29.1313 30.5644 28.6757 31.02C28.2201 31.4757 28.2201 32.2144 28.6757 32.67L30.3256 31.02ZM43.5007 31.9267V33H45.834V31.9267H43.5007ZM43.5007 32.9993C43.4994 35.2636 42.7662 37.4667 41.4105 39.2803L43.2793 40.6773C44.9363 38.4608 45.8324 35.7681 45.834 33.0007L43.5007 32.9993ZM41.4105 39.2803C40.0547 41.0938 38.1491 42.4204 35.9778 43.0624L36.6394 45.3C39.2932 44.5154 41.6223 42.8939 43.2793 40.6773L41.4105 39.2803ZM35.9778 43.0624C33.8065 43.7044 31.4858 43.6273 29.3618 42.8427L28.5532 45.0314C31.1491 45.9904 33.9855 46.0847 36.6394 45.3L35.9778 43.0624ZM29.3618 42.8427C27.2379 42.058 25.4245 40.6077 24.1922 38.7083L22.2347 39.9782C23.741 42.2998 25.9573 44.0723 28.5532 45.0314L29.3618 42.8427ZM24.1922 38.7083C22.9598 36.8088 22.3744 34.5618 22.5234 32.3025L20.1951 32.1489C20.013 34.9104 20.7285 37.6567 22.2347 39.9782L24.1922 38.7083ZM22.5234 32.3025C22.6724 30.0431 23.5477 27.8925 25.0188 26.1713L23.2451 24.6552C21.4471 26.759 20.3772 29.3875 20.1951 32.1489L22.5234 32.3025ZM25.0188 26.1713C26.49 24.45 28.4781 23.2505 30.6867 22.7515L30.1724 20.4755C27.4731 21.0854 25.0432 22.5515 23.2451 24.6552L25.0188 26.1713ZM30.6867 22.7515C32.8952 22.2525 35.2059 22.4808 37.2742 23.4023L38.2238 21.271C35.696 20.1447 32.8718 19.8656 30.1724 20.4755L30.6867 22.7515ZM43.842 22.8421L32.1753 34.5205L33.826 36.1696L45.4927 24.4912L43.842 22.8421ZM33.8256 34.52L30.3256 31.02L28.6757 32.67L32.1757 36.17L33.8256 34.52Z" fill="#00A3AD"/>
</svg>
