<svg width="100%" viewBox="0 0 20 20" fill="none" xmlns="http://www.w3.org/2000/svg">
<path
    d="M16.6654 10.418V5.66797C16.6654 4.26784 16.6654 3.56777 16.3929 3.03299C16.1532 2.56259 15.7707 2.18014 15.3003 1.94045C14.7656 1.66797 14.0655 1.66797 12.6654 1.66797H7.33203C5.9319 1.66797 5.23183 1.66797 4.69706 1.94045C4.22665 2.18014 3.8442 2.56259 3.60451 3.03299C3.33203 3.56777 3.33203 4.26784 3.33203 5.66797V14.3346C3.33203 15.7348 3.33203 16.4348 3.60451 16.9696C3.8442 17.44 4.22665 17.8225 4.69706 18.0622C5.23183 18.3346 5.9319 18.3346 7.33203 18.3346H9.9987M11.6654 9.16797H6.66536M8.33203 12.5013H6.66536M13.332 5.83464H6.66536M12.082 15.8346L13.7487 17.5013L17.4987 13.7513"
    stroke="#B3B8DB"
    stroke-width="1.66667"
    stroke-linecap="round"
    stroke-linejoin="round"
  />
</svg>
