<svg width="20" height="20" viewBox="0 0 20 20" fill="none" xmlns="http://www.w3.org/2000/svg">
<g clip-path="url(#clip0_572_15183)">
<path d="M10 20C15.5228 20 20 15.5228 20 10C20 4.47715 15.5228 0 10 0C4.47715 0 0 4.47715 0 10C0 15.5228 4.47715 20 10 20Z" fill="#F0F0F0"/>
<path d="M19.9154 8.69566H11.3044H11.3044V0.0846484C10.8774 0.0290625 10.4421 0 10 0C9.55793 0 9.12262 0.0290625 8.69566 0.0846484V8.69559V8.69563H0.0846484C0.0290625 9.12262 0 9.55793 0 10C0 10.4421 0.0290625 10.8774 0.0846484 11.3043H8.69559H8.69563V19.9154C9.12262 19.9709 9.55793 20 10 20C10.4421 20 10.8774 19.971 11.3043 19.9154V11.3044V11.3044H19.9154C19.9709 10.8774 20 10.4421 20 10C20 9.55793 19.9709 9.12262 19.9154 8.69566Z" fill="#D80027"/>
<path d="M6.08692 4.78338V3.479H4.78259V4.78338H3.47821V6.08772H4.78259V7.39205H6.08692V6.08772H7.39126V4.78338H6.08692Z" fill="#D80027"/>
<path d="M15.2174 4.78338V3.479H13.913V4.78338H12.6087V6.08772H13.913V7.39205H15.2174V6.08772H16.5218V4.78338H15.2174Z" fill="#D80027"/>
<path d="M6.08692 13.9137V12.6094H4.78259V13.9137H3.47821V15.218H4.78259V16.5224H6.08692V15.218H7.39126V13.9137H6.08692Z" fill="#D80027"/>
<path d="M15.2174 13.9137V12.6094H13.913V13.9137H12.6087V15.218H13.913V16.5224H15.2174V15.218H16.5218V13.9137H15.2174Z" fill="#D80027"/>
</g>
<defs>
<clipPath id="clip0_572_15183">
<rect width="20" height="20" fill="white"/>
</clipPath>
</defs>
</svg>
