<svg width="100%" viewBox="0 0 187 48" fill="none" xmlns="http://www.w3.org/2000/svg">
<g clip-path="url(#clip0_2536_108492)">
<path d="M66.835 48L34.0202 0L0.983154 48H46.9091L34.0202 29.7037L27.5017 39.2593H20.6128L34.0202 20.0741L53.2054 48H66.835Z" fill="#98A2B3"/>
<path d="M94.4646 23.6296C94.0202 23.6296 94.0202 23.8518 94.0202 24.074V27.1852C94.0202 27.6296 94.2424 27.6296 94.4646 27.6296H105.205V33.4074C102.761 36.9629 98.7609 38.9629 94.4646 38.7407C86.4646 38.7407 81.5017 33.6296 81.5017 23.7778C81.2795 13.9259 87.0572 8.81479 93.5757 8.81479C98.6869 8.81479 102.983 10.8148 104.316 15.7037C104.316 15.9259 104.539 16.1481 104.983 16.1481H108.316C108.761 16.1481 108.983 15.9259 108.983 15.7037C107.65 8.14812 101.205 4.51849 93.5757 4.51849C85.3535 4.51849 76.3906 10.9629 76.3906 23.7037C76.3906 36.4444 84.6128 42.8889 94.2424 42.8889C100.02 43.1111 105.65 40.2222 108.761 35.1111C109.205 34.4444 109.205 34 109.205 33.1111V23.7037C109.205 23.2592 108.983 23.2592 108.761 23.2592L94.4646 23.4815V23.6296ZM150.02 5.77775C150.02 5.33331 149.798 5.33331 149.576 5.33331H144.465C144.02 5.33331 143.798 5.55553 143.576 5.77775L133.057 29.6296L122.761 5.77775C122.539 5.33331 122.316 5.11109 121.872 5.33331H116.761C116.316 5.33331 116.316 5.55553 116.316 5.77775V42.1481C116.316 42.5926 116.539 42.5926 116.761 42.5926H120.094C120.539 42.5926 120.539 42.3703 120.539 42.1481V12.2222L131.057 35.8518C131.057 36.074 131.502 36.2963 131.724 36.2963H134.168C134.391 36.2963 134.835 36.074 134.835 35.8518L145.354 12.2222V42.1481C145.354 42.5926 145.576 42.5926 145.798 42.5926H149.131C149.576 42.5926 149.576 42.3703 149.576 42.1481L150.02 5.77775ZM161.65 5.77775C161.205 5.33331 161.205 5.33331 160.983 5.33331H156.983C156.539 5.33331 156.539 5.55553 156.539 5.77775L167.946 22.9629L154.983 42.1481C154.761 42.3703 154.983 42.5926 155.428 42.5926H159.428C159.872 42.5926 159.872 42.5926 160.316 42.1481L170.613 26.7407L180.909 42.1481C181.354 42.5926 181.354 42.5926 181.798 42.5926H185.798C186.242 42.5926 186.242 42.3703 186.242 42.1481L173.502 22.9629L184.909 5.77775C185.131 5.55553 184.909 5.33331 184.465 5.33331H180.242C179.798 5.33331 179.798 5.33331 179.576 5.77775L170.909 18.9629L161.724 5.77775H161.65Z" fill="#98A2B3"/>
</g>
<defs>
<clipPath id="clip0_2536_108492">
<rect width="185.185" height="48" fill="white" transform="translate(0.983154)"/>
</clipPath>
</defs>
</svg>
