<svg xmlns="http://www.w3.org/2000/svg" fill="none" width="236" viewBox="5 4 235.94 50">
<g filter="url(#filter0_dd_7_9164)">
<g clip-path="url(#clip0_7_9164)">
<path d="M47.6772 11.3222C37.9143 1.55927 22.0851 1.55927 12.3222 11.3222C2.55927 21.0859 2.55927 36.9143 12.3222 46.6772C22.0851 56.4409 37.9143 56.4409 47.6772 46.6772C57.4402 36.9143 57.4402 21.0859 47.6772 11.3222ZM37.4414 42.5748C31.6378 48.3784 22.2283 48.3784 16.4246 42.5748C10.621 36.7712 10.621 27.3616 16.4246 21.558C22.2283 15.7544 31.6378 15.7544 37.4414 21.558C43.245 27.3616 43.245 36.7712 37.4414 42.5748Z" fill="url(#paint0_linear_7_9164)"/>
<path d="M27.9699 10.3965C16.5751 10.3965 7.3382 19.6334 7.3382 31.0282C7.3382 42.423 16.5751 51.6599 27.9699 51.6599C39.3647 51.6599 48.6016 42.423 48.6016 31.0282C48.6016 19.6334 39.3647 10.3965 27.9699 10.3965ZM16.4239 21.5574C22.2275 15.7538 31.6371 15.7538 37.4407 21.5574C43.2443 27.361 43.2443 36.7706 37.4407 42.5742C31.6371 48.3778 22.2275 48.3778 16.4239 42.5742C10.6203 36.7706 10.6203 27.361 16.4239 21.5574Z" fill="url(#paint1_linear_7_9164)"/>
</g>
</g>
<path d="M222.247 19.494H224.951L240.937 37.6644H236.9L234.233 34.6423H212.965L210.298 37.6644H206.26L222.247 19.494ZM223.592 22.5415L215.618 31.6076H231.579L223.592 22.5415Z" fill="currentColor"/>
<path d="M199.429 37.6644V19.494H202.451V37.6644H199.429Z" fill="currentColor"/>
<path d="M168.345 27.0618H190.299C190.925 27.0618 191.463 26.8417 191.912 26.4015C192.352 25.9529 192.572 25.4154 192.572 24.7889C192.572 24.171 192.352 23.6377 191.912 23.189C191.463 22.7488 190.925 22.5288 190.299 22.5288H168.345V27.0618ZM194.807 27.5951C194.282 28.4247 193.583 29.0638 192.712 29.5125C194.642 31.3155 195.607 33.5292 195.607 36.1533V37.6644H192.572V36.1533C192.572 34.4857 191.979 33.0593 190.794 31.8742C189.618 30.6891 188.191 30.0966 186.515 30.0966H168.345V37.6644H165.323V19.494H190.299C191.763 19.494 193.012 20.0146 194.045 21.0558C195.086 22.0886 195.607 23.3329 195.607 24.7889C195.607 25.8047 195.34 26.7401 194.807 27.5951Z" fill="currentColor"/>
<path d="M142.81 19.494H145.515L161.501 37.6644H157.463L154.797 34.6423H133.528L130.862 37.6644H126.824L142.81 19.494ZM144.156 22.5415L136.182 31.6076H152.143L144.156 22.5415Z" fill="currentColor"/>
<path d="M101.606 19.494H131.89V22.5288H118.265V37.6644H115.231V22.5288H101.606V19.494Z" fill="currentColor"/>
<path d="M68.2619 37.6644V34.6423H92.4763C93.1027 34.6423 93.6402 34.418 94.0889 33.9694C94.5291 33.5292 94.7491 32.9959 94.7491 32.3695C94.7491 31.743 94.5291 31.2055 94.0889 30.7569C93.6402 30.3167 93.1027 30.0966 92.4763 30.0966H72.7949C71.3389 30.0966 70.0903 29.576 69.0491 28.5348C68.0164 27.502 67.5 26.2534 67.5 24.789C67.5 23.333 68.0164 22.0886 69.0491 21.0559C70.0903 20.0147 71.3389 19.494 72.7949 19.494H97.022V22.5288H72.7949C72.1685 22.5288 71.6352 22.7489 71.195 23.1891C70.7464 23.6377 70.522 24.171 70.522 24.789C70.522 25.4154 70.7464 25.9529 71.195 26.4016C71.6352 26.8418 72.1685 27.0618 72.7949 27.0618H92.4763C93.9407 27.0618 95.1893 27.5825 96.2221 28.6237C97.2633 29.6564 97.7839 30.905 97.7839 32.3695C97.7839 33.8255 97.2633 35.0741 96.2221 36.1153C95.1893 37.148 93.9407 37.6644 92.4763 37.6644H68.2619Z" fill="currentColor"/>
<defs>
<filter id="filter0_dd_7_9164" x="0.3125" y="0.875" width="59.375" height="59.375" filterUnits="userSpaceOnUse" color-interpolation-filters="sRGB">
<feFlood flood-opacity="0" result="BackgroundImageFix"/>
<feColorMatrix in="SourceAlpha" type="matrix" values="0 0 0 0 0 0 0 0 0 0 0 0 0 0 0 0 0 0 127 0" result="hardAlpha"/>
<feOffset dy="1.5625"/>
<feGaussianBlur stdDeviation="1.5625"/>
<feColorMatrix type="matrix" values="0 0 0 0 0.0627451 0 0 0 0 0.0941176 0 0 0 0 0.156863 0 0 0 0.06 0"/>
<feBlend mode="normal" in2="BackgroundImageFix" result="effect1_dropShadow_7_9164"/>
<feColorMatrix in="SourceAlpha" type="matrix" values="0 0 0 0 0 0 0 0 0 0 0 0 0 0 0 0 0 0 127 0" result="hardAlpha"/>
<feOffset dy="1.5625"/>
<feGaussianBlur stdDeviation="2.34375"/>
<feColorMatrix type="matrix" values="0 0 0 0 0.0627451 0 0 0 0 0.0941176 0 0 0 0 0.156863 0 0 0 0.1 0"/>
<feBlend mode="normal" in2="effect1_dropShadow_7_9164" result="effect2_dropShadow_7_9164"/>
<feBlend mode="normal" in="SourceGraphic" in2="effect2_dropShadow_7_9164" result="shape"/>
</filter>
<linearGradient id="paint0_linear_7_9164" x1="7.93869" y1="55.2982" x2="47.1151" y2="8.5956" gradientUnits="userSpaceOnUse">
<stop/>
<stop offset="0.38" stop-color="#23C6B6"/>
<stop offset="1" stop-color="#23C6B6"/>
</linearGradient>
<linearGradient id="paint1_linear_7_9164" x1="47.6581" y1="11.3393" x2="1.65262" y2="57.3447" gradientUnits="userSpaceOnUse">
<stop/>
<stop offset="0.38" stop-color="#23C6B6"/>
<stop offset="1" stop-color="#23C6B6"/>
</linearGradient>
<clipPath id="clip0_7_9164">
<rect x="5" y="4" width="50" height="50" rx="12.5" fill="currentColor"/>
</clipPath>
</defs>
</svg>