<svg width="24" height="24" viewBox="0 0 24 24" fill="none" xmlns="http://www.w3.org/2000/svg">
<g clip-path="url(#clip0_4734_54488)">
<path d="M13.3279 11.9972C13.3279 15.4099 10.5777 18.1765 7.18535 18.1765C3.793 18.1765 1.0426 15.4099 1.0426 11.9972C1.0426 8.5844 3.79279 5.81763 7.18535 5.81763C10.5779 5.81763 13.3279 8.5844 13.3279 11.9972Z" fill="#1D2939"/>
<path d="M20.0665 11.997C20.0665 15.2094 18.6914 17.8145 16.9951 17.8145C15.2988 17.8145 13.9237 15.2094 13.9237 11.997C13.9237 8.78462 15.2986 6.17944 16.9949 6.17944C18.6912 6.17944 20.0662 8.78379 20.0662 11.997" fill="#1D2939"/>
<path d="M22.8227 11.997C22.8227 14.8745 22.3391 17.2086 21.7425 17.2086C21.1458 17.2086 20.6625 14.8751 20.6625 11.997C20.6625 9.11888 21.146 6.7854 21.7425 6.7854C22.3389 6.7854 22.8227 9.11868 22.8227 11.997Z" fill="#1D2939"/>
</g>
<defs>
<clipPath id="clip0_4734_54488">
<rect width="24" height="24" fill="white"/>
</clipPath>
</defs>
</svg>
