<svg width="36" height="10" viewBox="0 0 36 10" fill="none" xmlns="http://www.w3.org/2000/svg">
<mask id="mask0_4453_233535" style="mask-type:luminance" maskUnits="userSpaceOnUse" x="0" y="0" width="36" height="10">
<path d="M35.9429 0.531372H0.148438V9.11941H35.9429V0.531372Z" fill="white"/>
</mask>
<g mask="url(#mask0_4453_233535)">
<path d="M0.148438 0.70761C0.204974 0.70761 0.257633 0.70761 0.310292 0.70761C1.27917 0.70761 2.24804 0.706962 3.2169 0.707931C3.81684 0.708579 4.41159 0.747993 4.97277 0.988998C5.89998 1.38701 6.37518 2.18563 6.3642 3.27082C6.35517 4.17376 5.75199 4.85545 4.97277 5.16463C4.74954 5.25313 4.50819 5.29513 4.27851 5.36911C4.21776 5.38882 4.16994 5.44828 4.11633 5.48962C4.17738 5.52193 4.23552 5.57038 4.30047 5.58364C4.54149 5.63275 4.79154 5.64856 5.02641 5.71705C5.46804 5.84596 5.7336 6.16936 5.8851 6.59062C6.15972 7.35403 6.42915 8.11936 6.69987 8.88373C6.71214 8.91862 6.71796 8.95579 6.73023 9.00586C6.68115 9.01135 6.6414 9.01909 6.60165 9.01942C6.20331 9.02041 5.80497 9.01651 5.40666 9.02233C5.29713 9.02395 5.24802 8.99488 5.21991 8.88019C5.0739 8.28541 4.91946 7.69291 4.76343 7.10041C4.57734 6.39355 4.13925 6.01072 3.38265 5.95483C2.7559 5.90863 2.12527 5.91511 1.49659 5.89411C1.36768 5.88991 1.36413 5.96194 1.36413 6.05854C1.36607 6.97345 1.36542 7.88869 1.36542 8.80363C1.36542 8.94793 1.29155 9.02008 1.1438 9.02008C0.816212 9.02008 0.488624 9.02008 0.148438 9.02008V0.70761ZM1.36542 4.85899C1.43585 4.85899 1.49336 4.85899 1.55119 4.85899C2.04645 4.85899 2.5417 4.85254 3.03696 4.86094C3.41463 4.86739 3.77322 4.7905 4.12182 4.65451C4.97115 4.32304 5.35914 3.44365 5.01573 2.60723C4.79832 2.0774 4.36056 1.81863 3.81879 1.78665C3.06216 1.74206 2.30231 1.75692 1.54408 1.73883C1.40161 1.7356 1.36123 1.77889 1.36219 1.92136C1.36801 2.86342 1.3651 3.80548 1.3651 4.74754C1.3651 4.77823 1.3651 4.80925 1.3651 4.85899H1.36542Z" fill="black"/>
<path d="M35.9361 9.01453H34.8177V8.83879C34.8177 7.67059 34.8192 6.50239 34.8159 5.33419C34.8156 5.16262 34.803 4.98946 34.779 4.81954C34.698 4.25515 34.3482 3.93337 33.7758 3.88555C33.1182 3.83062 32.5512 4.23478 32.3676 4.91806C32.3013 5.16391 32.2674 5.4256 32.2647 5.68051C32.2536 6.73015 32.2599 7.77979 32.2599 8.82973C32.2599 8.88724 32.2599 8.94508 32.2599 9.01132H31.1334C31.1334 8.94022 31.1334 8.87755 31.1334 8.81488C31.1334 7.69513 31.1394 6.57538 31.1289 5.45566C31.1262 5.17813 31.0956 4.89547 31.0329 4.62538C30.8673 3.90883 30.1992 3.78379 29.7265 3.9298C29.144 4.11007 28.8361 4.55236 28.6875 5.10835C28.6151 5.37973 28.5877 5.66953 28.5841 5.95156C28.5718 6.90976 28.5796 7.86799 28.5796 8.82619C28.5796 8.88403 28.5796 8.94184 28.5796 9.01939C28.2164 9.01939 27.8682 9.02131 27.5203 9.01582C27.4938 9.01552 27.4563 8.96866 27.445 8.93602C27.4314 8.89759 27.4405 8.85106 27.4405 8.80777C27.4405 6.93433 27.4405 5.06086 27.4405 3.18772C27.4405 3.04603 27.5101 2.97527 27.6495 2.97548C27.9506 2.97548 28.2517 2.97548 28.567 2.97548C28.5996 3.30145 28.5738 3.61387 28.5037 3.92335C28.4872 3.9967 28.4578 4.0684 28.45 4.14238C28.4436 4.20376 28.4607 4.26775 28.4675 4.33042C28.5188 4.28584 28.5854 4.25029 28.618 4.19473C28.7053 4.0471 28.7676 3.88492 28.8578 3.73921C29.2684 3.07594 30.0777 2.74708 30.8301 2.94221C31.3599 3.07951 31.701 3.43003 31.8924 3.93466C31.9173 3.99991 31.9251 4.07326 31.9593 4.13269C31.9851 4.17793 32.0382 4.23286 32.0823 4.23511C32.1261 4.23769 32.1903 4.19053 32.2164 4.14757C32.3025 4.0054 32.3649 3.84841 32.4555 3.70948C32.8602 3.08854 33.426 2.80361 34.1718 2.90215C34.5498 2.9519 34.899 3.05335 35.2077 3.30082C35.6085 3.62227 35.7963 4.04902 35.8749 4.53202C35.9208 4.81177 35.9379 5.09899 35.9397 5.38297C35.9469 6.54568 35.943 7.70839 35.9427 8.87143C35.9427 8.91343 35.9379 8.95543 35.9349 9.01453H35.9361Z" fill="black"/>
<path d="M19.6788 9.01935C19.3283 9.01935 18.9948 9.02259 18.6618 9.01449C18.6272 9.01353 18.5665 8.94891 18.5645 8.91177C18.5468 8.55576 18.559 8.20263 18.6815 7.86051C18.7025 7.80171 18.677 7.72611 18.6731 7.65828C18.6195 7.70511 18.5384 7.74129 18.5161 7.80009C18.2925 8.38614 17.8871 8.79321 17.2955 8.98089C16.3661 9.27555 15.5154 9.10335 14.7927 8.43945C14.178 7.87473 13.9172 7.1349 13.8507 6.3237C13.7848 5.52087 13.9369 4.7607 14.3644 4.06611C14.8748 3.23712 15.7716 2.80778 16.7347 2.89371C17.3065 2.94476 17.7982 3.16413 18.172 3.60186C18.309 3.76212 18.3949 3.96597 18.5028 4.15077C18.5245 4.18758 18.5309 4.23735 18.56 4.26513C18.5933 4.29678 18.644 4.31034 18.687 4.33167C18.698 4.28871 18.7274 4.24089 18.7173 4.20342C18.3959 2.99903 18.6237 1.773 18.5703 0.558597C18.5703 0.554073 18.5749 0.549552 18.5842 0.532104H19.6791V9.01935H19.6788ZM14.9578 5.98998C14.9889 6.21837 15.0024 6.45066 15.0551 6.67389C15.1559 7.10229 15.3507 7.49382 15.7125 7.75359C16.4888 8.31054 17.5343 8.12736 18.0796 7.41081C18.656 6.65322 18.719 5.80971 18.3209 4.9623C17.9459 4.16367 17.1721 3.72819 16.222 3.98406C15.9842 4.04802 15.7755 4.15206 15.5985 4.33071C15.1413 4.79172 14.9743 5.35707 14.9575 5.99028L14.9578 5.98998Z" fill="black"/>
<path d="M8.60732 4.85268H7.51535C7.5512 4.51992 7.65653 4.22142 7.82387 3.94422C8.08331 3.51486 8.46905 3.23736 8.93459 3.07938C9.73835 2.80671 10.5509 2.7996 11.3589 3.06612C12.1459 3.32586 12.591 3.88284 12.7157 4.69308C12.7606 4.9845 12.7865 5.28138 12.7888 5.57601C12.7972 6.67962 12.7923 7.7832 12.792 8.88711C12.792 8.92428 12.7878 8.96142 12.7852 9.00891H11.6641C11.6529 8.60733 11.6374 8.2116 11.7607 7.82487C11.7837 7.75347 11.8044 7.68015 11.8121 7.60617C11.8157 7.57224 11.7847 7.53444 11.7695 7.49859C11.7326 7.52088 11.6797 7.53444 11.6616 7.56708C11.576 7.72182 11.5143 7.89174 11.418 8.03874C10.8723 8.8713 10.0766 9.18273 9.11387 9.09258C8.46806 9.03216 7.91789 8.75982 7.56542 8.19381C6.94481 7.19652 7.44623 5.94948 8.59277 5.598C9.13553 5.43162 9.69701 5.43582 10.2546 5.40027C10.5496 5.38155 10.8452 5.35926 11.1385 5.32305C11.7746 5.24457 11.7401 4.78905 11.5233 4.3881C11.3805 4.12386 11.1172 4.00947 10.8378 3.94842C10.3532 3.84246 9.86564 3.83373 9.38363 3.96264C8.97818 4.07118 8.73104 4.33932 8.64059 4.75026C8.63381 4.78161 8.62088 4.81164 8.60732 4.85235V4.85268ZM11.6419 5.78085C11.4487 5.99148 11.2216 6.08583 10.9754 6.13074C10.6161 6.19599 10.253 6.23961 9.89474 6.30873C9.56456 6.37269 9.22115 6.41697 8.91422 6.54393C8.37728 6.76554 8.28587 7.4973 8.72231 7.86495C8.93069 8.04069 9.18173 8.08722 9.44501 8.09271C10.8597 8.1237 11.6977 7.05759 11.6422 5.78085H11.6419Z" fill="black"/>
<path d="M26.4837 5.98888C26.4918 6.751 26.3066 7.4569 25.8288 8.06587C25.3682 8.65321 24.7563 8.98531 24.0219 9.08161C23.4139 9.16108 22.8205 9.09808 22.2606 8.8267C21.5657 8.48974 21.1031 7.94119 20.8533 7.22107C20.5538 6.35719 20.5583 5.4862 20.9079 4.63621C21.3757 3.4987 22.3691 2.86098 23.6052 2.88133C24.5489 2.89684 25.3316 3.24511 25.8983 4.01755C26.2537 4.50214 26.4291 5.05621 26.4821 5.65066C26.4921 5.76244 26.4834 5.87614 26.4834 5.98888H26.4837ZM25.3636 5.9107C25.3669 5.59474 25.2955 5.2171 25.112 4.86625C24.8025 4.27438 24.3214 3.94132 23.6453 3.91933C22.9623 3.89704 22.4189 4.16293 22.0923 4.76932C21.6364 5.61511 21.6445 6.4777 22.1404 7.30441C22.7458 8.314 24.1379 8.24389 24.7411 7.63234C25.1914 7.17583 25.3669 6.61597 25.3636 5.9107Z" fill="black"/>
</g>
</svg>
