<svg width="100%" viewBox="0 0 32 32" fill="none" xmlns="http://www.w3.org/2000/svg">
<path d="M12.2851 19.3333C12.7014 20.126 13.5326 20.6667 14.49 20.6667H17.3345C18.8072 20.6667 20.0011 19.4728 20.0011 18C20.0011 16.5272 18.8072 15.3333 17.3345 15.3333H14.6678C13.195 15.3333 12.0011 14.1394 12.0011 12.6667C12.0011 11.1939 13.195 9.99999 14.6678 9.99999H17.5123C18.4697 9.99999 19.3009 10.5406 19.7172 11.3333M16.0011 7.99999V9.99999M16.0011 20.6667V22.6667M26.6678 16C26.6678 22.5446 19.5292 27.3045 16.9318 28.8198C16.6366 28.992 16.489 29.0781 16.2807 29.1228C16.1191 29.1575 15.8832 29.1575 15.7216 29.1228C15.5133 29.0781 15.3657 28.992 15.0705 28.8198C12.4731 27.3045 5.33447 22.5446 5.33447 16V9.62346C5.33447 8.55744 5.33447 8.02444 5.50882 7.56626C5.66284 7.16151 5.91312 6.80036 6.23802 6.51403C6.6058 6.18991 7.10487 6.00276 8.10301 5.62845L15.2521 2.94756C15.5293 2.84361 15.6679 2.79163 15.8105 2.77103C15.9369 2.75276 16.0654 2.75276 16.1918 2.77103C16.3344 2.79163 16.473 2.84361 16.7502 2.94756L23.8993 5.62845C24.8974 6.00276 25.3965 6.18991 25.7643 6.51403C26.0892 6.80036 26.3394 7.16151 26.4935 7.56626C26.6678 8.02444 26.6678 8.55744 26.6678 9.62346V16Z" stroke="white" stroke-width="2" stroke-linecap="round" stroke-linejoin="round"/>
</svg>
