<svg width="100%" viewBox="0 0 32 32" fill="none" xmlns="http://www.w3.org/2000/svg">
<path d="M26.6683 13.3333V9.06663C26.6683 6.82642 26.6683 5.70631 26.2323 4.85066C25.8488 4.09802 25.2369 3.48609 24.4843 3.1026C23.6286 2.66663 22.5085 2.66663 20.2683 2.66663H11.735C9.49475 2.66663 8.37465 2.66663 7.519 3.1026C6.76635 3.48609 6.15443 4.09802 5.77093 4.85066C5.33496 5.70631 5.33496 6.82642 5.33496 9.06663V22.9333C5.33496 25.1735 5.33496 26.2936 5.77093 27.1493C6.15443 27.9019 6.76635 28.5138 7.519 28.8973C8.37465 29.3333 9.49475 29.3333 11.735 29.3333H16.6683M24.0016 28C24.0016 28 28.0016 26.0934 28.0016 23.2336V19.8971L25.0848 18.8549C24.384 18.6039 23.6176 18.6039 22.9168 18.8549L20.0016 19.8971V23.2336C20.0016 26.0934 24.0016 28 24.0016 28Z" stroke="white" stroke-width="2" stroke-linecap="round" stroke-linejoin="round"/>
</svg>
