<svg width="100%" viewBox="0 0 32 32" fill="none" xmlns="http://www.w3.org/2000/svg">
<path d="M12.0007 15.3333L14.6673 18L20.6673 12M26.6673 16C26.6673 22.5446 19.5287 27.3045 16.9313 28.8198C16.6361 28.992 16.4885 29.0781 16.2802 29.1228C16.1186 29.1575 15.8827 29.1575 15.7211 29.1228C15.5128 29.0781 15.3652 28.992 15.07 28.8198C12.4726 27.3045 5.33398 22.5446 5.33398 16V9.62346C5.33398 8.55744 5.33398 8.02444 5.50833 7.56626C5.66235 7.16151 5.91263 6.80036 6.23753 6.51403C6.60531 6.18991 7.10438 6.00276 8.10252 5.62845L15.2516 2.94756C15.5288 2.84361 15.6674 2.79163 15.81 2.77103C15.9364 2.75276 16.0649 2.75276 16.1913 2.77103C16.3339 2.79163 16.4725 2.84361 16.7497 2.94756L23.8988 5.62845C24.8969 6.00276 25.396 6.18991 25.7638 6.51403C26.0887 6.80036 26.339 7.16151 26.493 7.56626C26.6673 8.02444 26.6673 8.55744 26.6673 9.62346V16Z" stroke="white" stroke-width="2" stroke-linecap="round" stroke-linejoin="round"/>
</svg>
