<svg width="100%" viewBox="0 0 171 56" fill="none" xmlns="http://www.w3.org/2000/svg">
<g clip-path="url(#clip0_2245_7819)">
<path d="M53.0183 34.6013H58.3772C58.3601 35.7036 58.7743 36.7699 59.5332 37.5773C60.3813 38.3057 61.4864 38.6726 62.607 38.5978C63.5466 38.6523 64.4724 38.3547 65.2 37.7643C65.5078 37.4929 65.7515 37.158 65.914 36.7831C66.0764 36.4083 66.1536 36.0027 66.14 35.5951C66.143 35.1674 66.0437 34.745 65.8503 34.3625C65.657 33.9799 65.3749 33.648 65.0272 33.3938C63.9122 32.6229 62.674 32.0431 61.3646 31.6787C58.7643 30.8523 56.825 29.8193 55.5465 28.5797C54.268 27.3401 53.6251 25.6642 53.6179 23.5519C53.5753 22.4884 53.7574 21.4278 54.1528 20.4379C54.5481 19.448 55.1479 18.5505 55.9138 17.8029C57.4444 16.3353 59.5188 15.6016 62.137 15.6016C64.7553 15.6016 66.7883 16.2783 68.236 17.6319C69.7342 18.9855 70.5391 20.9624 70.6508 23.5626H65.2919C65.3095 22.6577 64.966 21.7824 64.3357 21.1262C64.029 20.8352 63.6663 20.6082 63.2691 20.4585C62.8719 20.3089 62.4483 20.2398 62.0236 20.2553C61.2114 20.2057 60.4115 20.4701 59.7925 20.9927C59.5138 21.2641 59.2973 21.5915 59.1575 21.9529C59.0177 22.3142 58.9579 22.701 58.9822 23.0871C58.971 23.5243 59.0577 23.9586 59.2361 24.3587C59.4482 24.7604 59.7677 25.0968 60.1599 25.3312C60.6044 25.6294 61.0765 25.8852 61.5698 26.0952C62.0614 26.3036 62.7799 26.5707 63.7307 26.8913C66.5614 27.8317 68.5655 28.9359 69.7432 30.204C70.9536 31.5586 71.5867 33.3241 71.5097 35.1302C71.5097 37.6414 70.667 39.6219 68.9815 41.0717C67.1848 42.5624 64.891 43.3377 62.5476 43.2463C59.5512 43.2463 57.2355 42.459 55.6005 40.8846C53.9655 39.3102 53.1047 37.2158 53.0183 34.6013Z" fill="#101828"/>
<path d="M74.1836 29.3864C74.1684 27.5019 74.5186 25.6319 75.2154 23.8778C75.8558 22.2351 76.8363 20.7429 78.0941 19.4971C79.3519 18.2512 80.8591 17.2792 82.519 16.6434C84.3094 15.9385 86.2212 15.5847 88.148 15.6015C90.6672 15.5611 93.1532 16.1726 95.3598 17.3754C97.4416 18.5263 99.1559 20.231 100.308 22.2963C101.517 24.4658 102.133 26.9095 102.096 29.3864C102.134 31.8719 101.518 34.3244 100.308 36.5033C99.1543 38.5793 97.4366 40.2948 95.349 41.4563C93.1269 42.6312 90.6461 43.2458 88.1264 43.2458C85.6067 43.2458 83.1259 42.6312 80.9038 41.4563C78.8112 40.2995 77.0906 38.5829 75.9393 36.5033C74.7447 34.32 74.1399 31.8686 74.1836 29.3864ZM79.6937 29.3864C79.5978 31.7546 80.4321 34.0676 82.022 35.8408C82.8231 36.6396 83.7761 37.2737 84.8261 37.7064C85.8761 38.1391 87.0024 38.3619 88.1399 38.3619C89.2774 38.3619 90.4037 38.1391 91.4537 37.7064C92.5038 37.2737 93.4568 36.6396 94.2578 35.8408C95.8492 34.0681 96.6854 31.7552 96.5915 29.3864C96.6843 27.0307 95.8475 24.7315 94.2578 22.9748C93.455 22.1792 92.5014 21.548 91.4516 21.1173C90.4018 20.6866 89.2764 20.4649 88.1399 20.4649C87.0034 20.4649 85.878 20.6866 84.8283 21.1173C83.7785 21.548 82.8249 22.1792 82.022 22.9748C80.4343 24.7323 79.5994 27.0314 79.6937 29.3864Z" fill="#101828"/>
<path d="M104.468 35.0502V30.5674H116.59V35.0502H104.468Z" fill="#101828"/>
<path d="M120.296 42.7441V16.0825H135.578V20.9767H125.558V26.9609H134.071V31.8497H125.558V42.7441H120.296Z" fill="#101828"/>
<path d="M139.203 42.7441V16.0825H144.487V42.7441H139.203Z" fill="#101828"/>
<path d="M147.641 20.9767V16.0825H170.465V20.9767H161.687V42.7441H156.404V20.9767H147.641Z" fill="#101828"/>
<path opacity="0.8" d="M20.4706 38.694C31.2739 38.694 40.0316 30.0321 40.0316 19.347C40.0316 8.66195 31.2739 0 20.4706 0C9.66742 0 0.909668 8.66195 0.909668 19.347C0.909668 30.0321 9.66742 38.694 20.4706 38.694Z" fill="url(#paint0_linear_2245_7819)"/>
<path d="M20.5031 56.0002C31.3064 56.0002 40.0641 47.3382 40.0641 36.6532C40.0641 25.9681 31.3064 17.3062 20.5031 17.3062C9.69989 17.3062 0.942139 25.9681 0.942139 36.6532C0.942139 47.3382 9.69989 56.0002 20.5031 56.0002Z" fill="url(#paint1_linear_2245_7819)"/>
<path opacity="0.8" d="M20.4705 38.6994C15.3382 38.615 10.445 36.5393 6.84564 32.9197C3.24633 29.3001 1.22925 24.4266 1.22925 19.3497C1.22925 14.2728 3.24633 9.39925 6.84564 5.77966C10.445 2.16007 15.3382 0.0843542 20.4705 0" fill="url(#paint2_linear_2245_7819)"/>
<path opacity="0.8" d="M20.5032 17.3008C25.6355 17.3851 30.5287 19.4609 34.1281 23.0804C37.7274 26.7 39.7445 31.5736 39.7445 36.6505C39.7445 41.7273 37.7274 46.6009 34.1281 50.2205C30.5287 53.8401 25.6355 55.9158 20.5032 56.0001" fill="url(#paint3_linear_2245_7819)"/>
<path d="M24.9383 26.7793H16.0356V29.2264H24.9383V26.7793Z" fill="white"/>
<path d="M21.7241 32.4V23.5947H19.25V32.4H21.7241Z" fill="white"/>
</g>
<defs>
<linearGradient id="paint0_linear_2245_7819" x1="0.909668" y1="19.347" x2="40.037" y2="19.347" gradientUnits="userSpaceOnUse">
<stop stop-color="#101828"/>
<stop offset="1" stop-color="white"/>
</linearGradient>
<linearGradient id="paint1_linear_2245_7819" x1="40.0641" y1="36.6532" x2="0.936737" y2="36.6532" gradientUnits="userSpaceOnUse">
<stop stop-color="#101828" stop-opacity="0.0627451"/>
<stop offset="1" stop-color="white" stop-opacity="0.6"/>
</linearGradient>
<linearGradient id="paint2_linear_2245_7819" x1="0.909547" y1="19.347" x2="20.4705" y2="19.347" gradientUnits="userSpaceOnUse">
<stop stop-color="#101828"/>
<stop offset="1" stop-color="white" stop-opacity="0"/>
</linearGradient>
<linearGradient id="paint3_linear_2245_7819" x1="40.0642" y1="36.6531" x2="20.5032" y2="36.6531" gradientUnits="userSpaceOnUse">
<stop stop-color="#101828"/>
<stop offset="1" stop-color="white" stop-opacity="0"/>
</linearGradient>
<clipPath id="clip0_2245_7819">
<rect width="169.556" height="56" fill="white" transform="translate(0.909668)"/>
</clipPath>
</defs>
</svg>
