<svg width="100%" viewBox="0 0 249 111" fill="none" xmlns="http://www.w3.org/2000/svg">
<path d="M118.822 16.37C118.822 19.8221 118.818 23.272 118.829 26.7241C118.829 27.0627 118.719 27.203 118.387 27.203C116.975 27.203 115.563 27.2052 114.149 27.2141C113.714 27.2164 113.629 26.9625 113.631 26.5972C113.638 25.223 113.64 23.8511 113.631 22.4769C113.629 21.9179 113.368 21.6685 112.81 21.6685C108.108 21.6685 103.406 21.6685 98.7038 21.6729C98.2598 21.6729 97.8159 21.6885 97.372 21.6796C96.8679 21.6707 96.8032 22.0048 96.801 22.3856C96.7943 23.7776 96.7765 25.1696 96.8032 26.5616C96.8122 27.0471 96.6716 27.2186 96.1764 27.2097C94.8581 27.1874 93.5375 27.1963 92.217 27.2164C91.7329 27.223 91.5902 27.056 91.5991 26.5571C91.6259 24.9825 91.579 23.4057 91.579 21.831C91.5745 16.6907 91.579 11.5504 91.579 6.41011C91.579 5.5081 91.5812 5.5081 92.4557 5.50365C93.0312 5.50365 93.6089 5.47915 94.1844 5.51256C95.7526 5.6061 97.0664 4.15176 97.1155 2.63505C97.1356 2.02258 97.1178 1.41011 97.1178 0.797637C97.1178 0.0181263 97.1177 0.0136719 97.8784 0.0136719C102.654 0.0136719 107.432 0.0181263 112.208 0.0181263C112.943 0.0181263 113.311 0.389322 113.312 1.13171C113.312 2.26312 113.281 3.39675 113.326 4.52592C113.346 5.06044 113.154 5.18962 112.659 5.18739C108.441 5.17403 104.22 5.20744 100.002 5.16957C98.1929 5.15398 96.7274 6.57047 96.7809 8.4012C96.8501 10.831 96.7943 13.2631 96.7965 15.693C96.7965 16.4747 96.8233 16.4992 97.6197 16.4992C102.656 16.4992 107.693 16.5014 112.73 16.4992C113.58 16.4992 113.64 16.4279 113.638 15.5705C113.634 12.4524 113.634 9.33439 113.634 6.21857C113.634 5.49697 113.638 5.50142 114.385 5.50142C115.706 5.50142 117.024 5.50811 118.345 5.49029C118.695 5.48583 118.831 5.55933 118.829 5.95131C118.813 9.42125 118.82 12.8912 118.82 16.3611L118.822 16.37Z" fill="#101828"/>
<path d="M58.5629 16.3475C58.5629 13.0268 58.5629 9.70381 58.5629 6.3831C58.5629 5.49668 58.5673 5.49891 59.4641 5.50559C60.0217 5.51005 60.5816 5.48109 61.1371 5.5145C62.6896 5.61027 64.0637 4.1292 64.0994 2.59468C64.115 1.92653 64.115 1.25837 64.0971 0.590223C64.086 0.16706 64.2354 -0.0022055 64.6793 2.16707e-05C69.7162 0.0133847 74.7508 0.0178392 79.7876 0.00893056C80.1825 0.00893056 80.2985 0.133652 80.2918 0.523408C80.2717 1.85971 80.2561 3.19601 80.2985 4.53009C80.3141 5.06461 80.1245 5.19156 79.6315 5.18933C75.4133 5.17597 71.1951 5.20938 66.9769 5.17151C65.1188 5.15592 63.6845 6.65259 63.7469 8.40982C63.8317 10.7996 63.767 13.196 63.767 15.5902C63.767 16.4855 63.767 16.4922 64.6459 16.4945C68.9935 16.5011 73.3432 16.5145 77.6908 16.5011C79.346 16.4967 80.5684 15.2829 80.6063 13.4945C80.6554 11.0468 80.6308 8.5969 80.6085 6.14702C80.6041 5.63254 80.7602 5.47664 81.2755 5.49C82.5938 5.52341 83.9144 5.51227 85.2327 5.49445C85.6208 5.49 85.7948 5.56127 85.7926 6.00893C85.7725 9.21829 85.7747 12.4299 85.7881 15.6392C85.7881 16.0624 85.6342 16.2005 85.2371 16.1916C84.6059 16.1782 83.9724 16.2094 83.3411 16.1871C81.6391 16.127 80.1936 17.6281 80.2806 19.2762C80.3141 19.9243 80.2717 20.5746 80.2918 21.225C80.3029 21.5991 80.1535 21.6949 79.7966 21.6949C75.1702 21.6771 70.5415 21.6726 65.9151 21.666C65.4512 21.666 64.9894 21.6882 64.5254 21.6771C63.9789 21.6659 63.7759 21.8308 63.7715 22.3898C63.7603 23.7818 63.7469 25.1737 63.7759 26.5635C63.7871 27.0557 63.6265 27.2138 63.1402 27.2072C61.8219 27.1849 60.5013 27.1938 59.183 27.2138C58.7235 27.2205 58.5673 27.0401 58.5696 26.5858C58.5807 23.1715 58.5762 19.7595 58.5762 16.3452H58.5673L58.5629 16.3475Z" fill="#101828"/>
<path d="M207.127 0.0219666C210.529 0.0219666 213.928 0.0331026 217.33 0.0108309C217.839 0.00637658 217.957 0.168959 217.946 0.647801C217.914 1.96406 217.91 3.28255 217.946 4.5988C217.959 5.09546 217.761 5.19346 217.328 5.19123C212.866 5.1801 208.407 5.18232 203.946 5.18232C203.261 5.18232 202.572 5.1556 201.892 5.21573C201.724 5.22909 201.45 5.52754 201.445 5.69903C201.412 7.3115 201.425 8.9262 201.425 10.5409C201.425 10.9173 201.669 11.0064 201.979 11.0086C202.648 11.0153 203.317 11.0197 203.986 11.0197C207.703 11.0197 211.421 11.0086 215.137 11.0264C216.96 11.0353 218.171 9.78143 218.245 7.97742C218.269 7.34713 218.262 6.71462 218.242 6.08433C218.229 5.66562 218.358 5.48522 218.813 5.4919C220.188 5.5164 221.564 5.51863 222.938 5.49636C223.368 5.48967 223.476 5.6478 223.469 6.04869C223.447 7.44068 223.442 8.83266 223.458 10.2224C223.462 10.601 223.31 10.7191 222.969 10.7168C222.3 10.7124 221.631 10.7057 220.962 10.7168C220.031 10.7347 219.166 11.0019 218.637 11.7881C218.294 12.3004 218.059 12.9373 217.961 13.5498C217.848 14.2558 217.926 14.993 217.946 15.7168C217.955 16.0532 217.827 16.2001 217.497 16.1912C217.33 16.1868 217.163 16.1912 216.995 16.1912C212.014 16.1912 207.033 16.1912 202.054 16.1801C201.535 16.1801 201.425 16.454 201.425 16.8794C201.425 18.2714 201.405 19.6634 201.432 21.0532C201.441 21.5053 201.323 21.6768 200.848 21.6745C199.512 21.6679 198.173 21.699 196.837 21.7324C196.295 21.7458 196.183 21.4451 196.186 20.9908C196.195 19.3761 196.19 17.7614 196.19 16.1467C196.19 11.0999 196.19 6.05315 196.19 1.00415C196.19 0.0152851 196.19 0.0108309 197.203 0.0108309C200.511 0.0108309 203.819 0.0108309 207.127 0.0108309V0.0175122V0.0219666Z" fill="#101828"/>
<path d="M138.291 0.022609C140.801 0.022609 143.31 0.0315175 145.817 0.0137001C146.239 0.0114729 146.362 0.140649 146.353 0.552676C146.33 1.86893 146.315 3.18742 146.357 4.50368C146.375 5.05379 146.199 5.19856 145.668 5.19633C141.485 5.17851 137.305 5.18519 133.123 5.18742C131.374 5.18742 130.513 5.9068 129.917 7.40346C129.832 7.61949 129.83 7.87562 129.83 8.11392C129.826 12.419 129.819 16.7242 129.837 21.0293C129.837 21.5104 129.714 21.6819 129.214 21.6796C127.916 21.6707 126.616 21.7041 125.318 21.742C124.845 21.7554 124.651 21.5794 124.651 21.0939C124.659 16.0827 124.657 11.0738 124.648 6.0627C124.648 5.62172 124.807 5.47473 125.242 5.497C125.891 5.52818 126.544 5.47918 127.194 5.51704C128.777 5.60613 130.098 4.21637 130.138 2.60836C130.154 1.99588 130.138 1.38341 130.14 0.770939C130.14 0.020382 130.145 0.0159269 130.876 0.0159269C133.348 0.0159269 135.819 0.0159269 138.291 0.0159269V0.0203813V0.022609Z" fill="#101828"/>
<path d="M36.4144 27.2098C33.0506 27.2098 29.689 27.2098 26.3251 27.2098C25.5778 27.2098 25.5399 27.1697 25.5422 26.4258C25.5444 25.1452 25.5555 23.8646 25.5355 22.5862C25.5288 22.123 25.7028 21.9849 26.1601 21.9849C32.3301 22.0005 38.4979 21.9871 44.6679 22.016C46.2695 22.0227 47.4897 20.6775 47.5789 19.0495C47.6146 18.3835 47.599 17.7132 47.5789 17.0472C47.5655 16.633 47.735 16.4971 48.1388 16.5016C49.5329 16.5172 50.9249 16.5149 52.319 16.5016C52.667 16.4993 52.7629 16.633 52.7585 16.9648C52.7429 18.3568 52.7339 19.7488 52.754 21.1385C52.7607 21.5728 52.5778 21.6842 52.1897 21.6731C51.632 21.6575 51.0743 21.6931 50.5167 21.6686C48.5894 21.5795 47.0636 23.1742 47.2421 24.9581C47.2956 25.4904 47.2153 26.0361 47.2532 26.5706C47.2889 27.0695 47.0971 27.2143 46.6175 27.212C44.2574 27.1942 41.8974 27.2031 39.5373 27.2031C38.4979 27.2031 37.4561 27.2031 36.4166 27.2031C36.4166 27.2054 36.4166 27.2076 36.4166 27.2098H36.4144Z" fill="#101828"/>
<path d="M174.113 0.0219024C177.513 0.0219024 180.912 0.0285837 184.312 0.0129935C184.762 0.0129935 184.932 0.113216 184.919 0.596512C184.885 1.89495 184.872 3.1934 184.919 4.48961C184.939 5.08426 184.709 5.2023 184.178 5.19562C182.208 5.17112 180.241 5.18671 178.271 5.18671C174.223 5.18671 170.172 5.20898 166.123 5.1778C164.131 5.16221 162.744 6.65665 162.86 8.42947C162.897 9.01968 162.855 9.61656 162.889 10.209C162.909 10.5698 162.799 10.7212 162.431 10.7212C161.039 10.719 159.645 10.7257 158.253 10.7346C157.858 10.7368 157.68 10.5631 157.682 10.1644C157.691 8.77246 157.693 7.3827 157.684 5.99072C157.684 5.63438 157.825 5.49406 158.184 5.50297C158.871 5.52079 159.558 5.49406 160.245 5.51411C161.867 5.56311 163.087 4.2268 163.167 2.64551C163.203 1.96177 163.187 1.27357 163.167 0.587604C163.154 0.15776 163.315 0.00853953 163.754 0.0107667C167.209 0.0263569 170.665 0.0196747 174.118 0.0196747L174.113 0.0219024Z" fill="#101828"/>
<path d="M41.9466 0.0223071C45.3461 0.0223071 48.7479 0.028988 52.1474 0.015625C52.5891 0.015625 52.7742 0.102485 52.7586 0.59469C52.7207 1.87309 52.743 3.15371 52.7407 4.43434C52.7407 5.18489 52.7407 5.18712 51.96 5.18712C50.2513 5.18712 48.5404 5.18712 46.8317 5.18712C42.502 5.18712 38.1745 5.18935 33.8448 5.18935C31.9933 5.18935 30.6772 6.56574 30.7085 8.33411C30.7196 8.94658 30.7085 9.55906 30.7352 10.1693C30.7531 10.5435 30.6282 10.7172 30.2356 10.715C28.8615 10.7105 27.4852 10.715 26.1111 10.7283C25.6716 10.7328 25.5311 10.5368 25.5356 10.1181C25.5512 8.80182 25.5601 7.48333 25.5311 6.16707C25.5177 5.61474 25.7341 5.45883 26.2561 5.49447C26.8851 5.53678 27.5186 5.51451 28.1499 5.51006C29.4415 5.50115 30.5322 4.71273 30.8155 3.44992C30.994 2.6526 31.0252 1.81518 31.0587 0.991127C31.0988 0.0178524 31.0676 0.0178526 32.0268 0.0178526C35.3349 0.0178526 38.6407 0.0178526 41.9488 0.0178526L41.9466 0.0223071Z" fill="#101828"/>
<path d="M138.229 27.2139C135.759 27.2139 133.288 27.205 130.818 27.2206C130.312 27.2229 130.122 27.038 130.131 26.5347C130.154 25.2362 130.154 23.9378 130.138 22.6416C130.134 22.1872 130.247 21.9868 130.765 21.989C135.037 22.009 139.308 21.969 143.58 22.0202C145.233 22.0402 146.683 20.7284 146.656 18.9445C146.647 18.2964 146.661 17.646 146.654 16.9979C146.649 16.6549 146.772 16.4968 147.145 16.5013C148.592 16.5146 150.042 16.5079 151.49 16.499C151.782 16.499 151.88 16.6148 151.878 16.8955C151.869 18.3409 151.867 19.7886 151.874 21.234C151.874 21.5436 151.746 21.6727 151.443 21.6705C150.868 21.6661 150.292 21.6705 149.717 21.6705C148.037 21.6705 147.1 22.2808 146.469 23.8286C146.375 24.0603 146.357 24.3342 146.35 24.5903C146.335 25.2384 146.313 25.891 146.357 26.5369C146.393 27.058 146.205 27.2184 145.697 27.2117C144.118 27.1895 142.54 27.2028 140.961 27.2028C140.051 27.2028 139.141 27.2028 138.231 27.2028C138.231 27.2073 138.231 27.2117 138.231 27.2139H138.229Z" fill="#101828"/>
<path d="M209.86 27.2166C207.39 27.2166 204.919 27.2055 202.45 27.2255C201.925 27.23 201.713 27.0563 201.725 26.5195C201.749 25.2211 201.751 23.9226 201.729 22.6264C201.72 22.1409 201.89 21.9872 202.376 21.9895C206.648 22.0073 210.919 21.9716 215.191 22.0162C216.935 22.034 218.196 20.6843 218.245 18.9783C218.263 18.348 218.263 17.7177 218.245 17.0875C218.231 16.6687 218.363 16.4906 218.816 16.4973C220.208 16.5218 221.602 16.5195 222.994 16.4995C223.371 16.495 223.471 16.6264 223.467 16.985C223.445 18.3948 223.44 19.8024 223.451 21.2122C223.453 21.5574 223.324 21.6799 222.996 21.6754C222.403 21.6665 221.807 21.6932 221.214 21.6687C219.329 21.5886 217.756 23.0808 217.93 24.9405C217.982 25.4928 217.904 26.054 217.941 26.6086C217.975 27.0941 217.767 27.2122 217.328 27.21C214.839 27.1988 212.349 27.2033 209.862 27.2033V27.2166H209.86Z" fill="#101828"/>
<path d="M174.1 21.9978C177.537 21.9978 180.973 22.0045 184.41 21.9889C184.8 21.9889 184.925 22.0892 184.919 22.4878C184.894 23.8219 184.876 25.1582 184.919 26.4923C184.937 27.0802 184.713 27.2094 184.18 27.2072C177.977 27.1938 171.771 27.1961 165.568 27.1961C164.992 27.1961 164.414 27.1872 163.841 27.2183C163.33 27.2451 163.147 27.029 163.156 26.5301C163.179 25.2317 163.185 23.9333 163.163 22.6348C163.154 22.1203 163.339 21.98 163.848 21.9845C167.265 22.0067 170.683 21.9956 174.102 21.9956L174.1 21.9978Z" fill="#101828"/>
<path d="M171.345 11.0042C173.89 11.0042 176.436 11.0087 178.981 10.9976C179.293 10.9976 179.416 11.0755 179.414 11.3984C179.4 12.8261 179.394 14.2559 179.409 15.6835C179.416 16.1401 179.17 16.1958 178.811 16.1958C177.138 16.1891 175.468 16.1958 173.795 16.1935C171.211 16.1935 168.628 16.1891 166.045 16.1935C164.091 16.1958 162.844 17.4541 162.862 19.3873C162.869 19.9998 162.851 20.6123 162.88 21.2225C162.896 21.5588 162.795 21.6835 162.445 21.6858C161.071 21.6902 159.699 21.7125 158.325 21.7437C157.892 21.7526 157.667 21.6123 157.671 21.1401C157.687 19.7682 157.687 18.394 157.678 17.0221C157.676 16.6457 157.805 16.4853 158.198 16.5009C158.829 16.5254 159.46 16.5009 160.092 16.5098C161.834 16.5254 163.123 15.2915 163.163 13.5544C163.179 12.8862 163.174 12.218 163.163 11.5499C163.157 11.1646 163.266 10.9976 163.708 10.9998C166.253 11.0221 168.798 11.0109 171.343 11.0109V11.0065L171.345 11.0042Z" fill="#101828"/>
<path d="M39.2229 11.0128C41.7502 11.0128 44.2776 11.0217 46.8049 11.0039C47.2064 11.0017 47.26 11.1576 47.2555 11.4984C47.2399 12.8146 47.251 14.1331 47.2488 15.4516C47.2488 16.1777 47.2377 16.1932 46.4971 16.1932C42.0915 16.1932 37.6882 16.1932 33.2826 16.1932C32.725 16.1932 32.1673 16.1932 31.6096 16.2021C31.246 16.2088 31.0631 16.0841 31.0676 15.6854C31.0765 14.2756 31.0765 12.8658 31.0542 11.456C31.0475 10.9861 31.3353 11.0173 31.6409 11.0173C34.1682 11.0173 36.6955 11.0173 39.2229 11.0173C39.2229 11.0173 39.2229 11.0151 39.2229 11.0128Z" fill="#101828"/>
<path d="M149.297 5.50515C149.984 5.50515 150.674 5.52297 151.358 5.49624C151.738 5.48288 151.885 5.58533 151.878 5.99067C151.856 7.38043 151.856 8.77241 151.876 10.1622C151.883 10.5876 151.709 10.7167 151.318 10.7145C149.962 10.71 148.606 10.7167 147.252 10.7323C146.83 10.7368 146.645 10.5631 146.649 10.1354C146.663 8.7635 146.663 7.39156 146.658 6.0174C146.658 5.65214 146.781 5.48065 147.183 5.49624C147.888 5.52297 148.595 5.50292 149.3 5.50292L149.297 5.50515Z" fill="#101828"/>
<path d="M121.206 53.3732C120.614 53.3732 120.12 53.2695 119.725 53.0622C119.331 52.8451 119.015 52.5786 118.778 52.2627V52.8846C118.778 52.9833 118.743 53.0672 118.674 53.1363C118.615 53.1955 118.536 53.2251 118.437 53.2251H117.756C117.658 53.2251 117.574 53.1955 117.505 53.1363C117.445 53.0672 117.416 52.9833 117.416 52.8846V43.0536C117.416 42.9549 117.445 42.8759 117.505 42.8167C117.574 42.7476 117.658 42.713 117.756 42.713H118.482C118.58 42.713 118.659 42.7476 118.719 42.8167C118.778 42.8759 118.808 42.9549 118.808 43.0536V46.4589C119.054 46.1529 119.37 45.8963 119.755 45.689C120.15 45.4817 120.634 45.3781 121.206 45.3781C121.759 45.3781 122.228 45.4768 122.613 45.6742C123.007 45.8617 123.328 46.1233 123.575 46.4589C123.832 46.7945 124.024 47.1745 124.152 47.5989C124.281 48.0234 124.355 48.4675 124.374 48.9314C124.384 49.0894 124.389 49.2374 124.389 49.3756C124.389 49.5138 124.384 49.6619 124.374 49.8198C124.355 50.2936 124.281 50.7427 124.152 51.1671C124.024 51.5915 123.832 51.9715 123.575 52.3071C123.328 52.6329 123.007 52.8944 122.613 53.0918C122.228 53.2794 121.759 53.3732 121.206 53.3732ZM120.895 52.1739C121.408 52.1739 121.808 52.0653 122.094 51.8482C122.391 51.6211 122.603 51.33 122.731 50.9746C122.859 50.6094 122.933 50.2195 122.953 49.805C122.963 49.5187 122.963 49.2325 122.953 48.9462C122.933 48.5317 122.859 48.1467 122.731 47.7914C122.603 47.4262 122.391 47.135 122.094 46.9179C121.808 46.6908 121.408 46.5773 120.895 46.5773C120.431 46.5773 120.046 46.6859 119.74 46.9031C119.434 47.1202 119.202 47.3966 119.044 47.7322C118.896 48.0678 118.817 48.4083 118.808 48.7538C118.798 48.9117 118.793 49.1042 118.793 49.3312C118.793 49.5483 118.798 49.7359 118.808 49.8938C118.827 50.259 118.906 50.6193 119.044 50.9746C119.192 51.3201 119.415 51.6063 119.711 51.8334C120.017 52.0604 120.411 52.1739 120.895 52.1739ZM126.968 56.0382C126.889 56.0382 126.82 56.0086 126.761 55.9493C126.702 55.8901 126.672 55.821 126.672 55.7421C126.672 55.7026 126.677 55.6631 126.687 55.6236C126.697 55.5841 126.717 55.5348 126.746 55.4756L127.886 52.7661L125.058 46.0887C125.009 45.9703 124.984 45.8864 124.984 45.837C124.984 45.7482 125.014 45.6742 125.073 45.615C125.132 45.5557 125.206 45.5261 125.295 45.5261H126.021C126.129 45.5261 126.208 45.5508 126.258 45.6002C126.317 45.6495 126.356 45.7087 126.376 45.7778L128.627 51.1671L130.936 45.7778C130.966 45.7087 131.005 45.6495 131.055 45.6002C131.114 45.5508 131.198 45.5261 131.306 45.5261H132.002C132.091 45.5261 132.165 45.5557 132.224 45.615C132.284 45.6742 132.313 45.7433 132.313 45.8222C132.313 45.8716 132.289 45.9604 132.239 46.0887L128.034 55.7865C128.005 55.8556 127.96 55.9148 127.901 55.9642C127.852 56.0135 127.773 56.0382 127.664 56.0382H126.968Z" fill="#101828"/>
<mask id="mask0_3460_86191" style="mask-type:luminance" maskUnits="userSpaceOnUse" x="0" y="68" width="249" height="43">
<path d="M248.032 68.7451H0.968262V110.199H248.032V68.7451Z" fill="white"/>
</mask>
<g mask="url(#mask0_3460_86191)">
<path d="M8.20798 75.0712L19.7237 68.7451L31.2395 75.0712L27.0057 77.4083L19.7237 73.4192L12.4418 77.4083L8.20798 75.0712ZM31.2395 83.0495L27.0057 80.7124L19.7237 84.7015L12.4418 80.7124L8.20798 83.0495V87.7234L15.49 91.7125V99.6906L19.7237 102.028L23.9575 99.6906V91.7125L31.2395 87.7234V83.0495ZM31.2395 95.7016V91.0276L27.0057 93.3645V98.0386L31.2395 95.7016ZM34.2453 97.3538L26.9634 101.343V106.017L38.4791 99.6906V87.0385L34.2453 89.3756V97.3538ZM30.0118 79.0603L34.2453 81.3973V86.0714L38.4791 83.7344V79.0603L34.2453 76.7234L30.0118 79.0603ZM15.49 103.035V107.709L19.7237 110.046L23.9575 107.709V103.035L19.7237 105.372L15.49 103.035ZM8.20798 95.7016L12.4418 98.0386V93.3645L8.20798 91.0276V95.7016ZM15.49 79.0603L19.7237 81.3973L23.9575 79.0603L19.7237 76.7234L15.49 79.0603ZM5.20204 81.3973L9.4357 79.0603L5.20204 76.7234L0.968262 79.0603V83.7344L5.20204 86.0714V81.3973ZM5.20204 89.3756L0.968262 87.0385V99.6906L12.484 106.017V101.343L5.20204 97.3538V89.3756Z" fill="#101828"/>
<path d="M71.8569 94.6633V94.5975C71.8569 91.5109 70.1319 89.9677 67.3372 88.9496C69.0622 88.0303 70.5114 86.5856 70.5114 83.9915V83.9258C70.5114 80.3138 67.4753 77.9824 62.5416 77.9824H51.3287V100.968H62.8177C68.2689 100.968 71.8569 98.8663 71.8569 94.6633ZM65.2327 84.8452C65.2327 86.5526 63.7492 87.275 61.403 87.275H56.5039V82.4154H61.748C63.9905 82.4154 65.2327 83.2691 65.2327 84.7796V84.8452ZM66.5784 94.0394C66.5784 95.7467 65.1637 96.5347 62.8177 96.5347H56.5039V91.478H62.645C65.3708 91.478 66.5784 92.4304 66.5784 93.9735V94.0394Z" fill="#101828"/>
<path d="M98.0317 100.968V77.9824H92.7875V92.1347L81.4711 77.9824H76.5719V100.968H81.8161V86.3556L93.512 100.968H98.0317Z" fill="#101828"/>
<path d="M124.701 94.6633V94.5975C124.701 91.5109 122.977 89.9677 120.182 88.9496C121.908 88.0303 123.356 86.5856 123.356 83.9915V83.9258C123.356 80.3138 120.32 77.9824 115.386 77.9824H104.173V100.968H115.663C121.113 100.968 124.701 98.8663 124.701 94.6633ZM118.077 84.8452C118.077 86.5526 116.594 87.275 114.249 87.275H109.349V82.4154H114.593C116.836 82.4154 118.077 83.2691 118.077 84.7796V84.8452ZM119.423 94.0394C119.423 95.7467 118.009 96.5347 115.663 96.5347H109.349V91.478H115.49C118.216 91.478 119.423 92.4304 119.423 93.9735V94.0394Z" fill="#101828"/>
<path d="M156.724 96.9086L153.999 94.2818C151.929 96.1206 150.031 97.27 147.064 97.27C142.44 97.27 139.094 93.5923 139.094 89.0609C139.094 84.5295 142.44 80.9175 147.064 80.9175C149.824 80.9175 151.895 82.0668 153.827 83.7742L156.552 80.7862C154.24 78.6847 151.549 77.207 147.099 77.207C139.785 77.207 134.643 82.5593 134.643 89.1265C134.643 95.7593 139.887 100.98 146.927 100.98C151.446 100.98 154.206 99.4042 156.724 96.9086Z" fill="#101828"/>
<path d="M177.296 90.8997V100.586H181.541V77.6011H177.296V87.1564H165.773V77.6011H161.53V100.586H165.773V90.8997H177.296Z" fill="#101828"/>
<path d="M200.578 77.4346H196.645L186.019 100.584H190.366L192.849 95.0347H204.27L206.719 100.584H211.204L200.578 77.4346ZM202.716 91.4555H194.402L198.542 82.2614L202.716 91.4555Z" fill="#101828"/>
<path d="M215.932 77.6011V100.586H220.175V77.6011H215.932Z" fill="#101828"/>
<path d="M243.857 93.4936L230.918 77.6011H226.985V100.586H231.16V84.2339L244.477 100.586H248.031V77.6011H243.857V93.4936Z" fill="#101828"/>
</g>
</svg>
