<svg width="100%" viewBox="0 0 357 29" fill="none" xmlns="http://www.w3.org/2000/svg">
<path d="M72.1605 18.0293C72.1605 20.6767 72.1571 23.3225 72.1656 25.97C72.1656 26.2296 72.0818 26.3372 71.8269 26.3372C70.744 26.3372 69.6611 26.3389 68.5765 26.3457C68.2429 26.3475 68.1779 26.1527 68.1796 25.8726C68.1848 24.8188 68.1865 23.7666 68.1796 22.7127C68.1779 22.284 67.9778 22.0927 67.5501 22.0927C63.9439 22.0927 60.3377 22.0927 56.7315 22.0961C56.391 22.0961 56.0506 22.1081 55.7101 22.1012C55.3235 22.0944 55.2739 22.3506 55.2722 22.6427C55.2671 23.7102 55.2534 24.7778 55.2739 25.8453C55.2808 26.2176 55.173 26.3492 54.7932 26.3423C53.7822 26.3253 52.7694 26.3321 51.7567 26.3475C51.3854 26.3526 51.2759 26.2245 51.2828 25.8419C51.3033 24.6343 51.2674 23.425 51.2674 22.2174C51.264 18.2752 51.2674 14.333 51.2674 10.3909C51.2674 9.69911 51.2691 9.69911 51.9397 9.69569C52.3811 9.69569 52.8242 9.6769 53.2655 9.70252C54.4682 9.77426 55.4758 8.65891 55.5134 7.49572C55.5288 7.02601 55.5151 6.5563 55.5151 6.08658C55.5151 5.48877 55.5151 5.48535 56.0985 5.48535C59.7611 5.48535 63.4255 5.48877 67.0882 5.48877C67.6516 5.48877 67.9339 5.77344 67.935 6.34279C67.935 7.21048 67.9111 8.07988 67.9453 8.94586C67.9607 9.35579 67.8135 9.45486 67.4338 9.45315C64.1988 9.4429 60.9621 9.46852 57.7271 9.43948C56.3397 9.42753 55.2157 10.5138 55.2568 11.9179C55.3098 13.7813 55.2671 15.6465 55.2688 17.51C55.2688 18.1095 55.2893 18.1283 55.9 18.1283C59.7629 18.1283 63.6257 18.13 67.4885 18.1283C68.1403 18.1283 68.1865 18.0737 68.1848 17.4161C68.1813 15.0248 68.1813 12.6335 68.1813 10.244C68.1813 9.69057 68.1848 9.69398 68.7579 9.69398C69.7706 9.69398 70.7817 9.69911 71.7944 9.68544C72.063 9.68203 72.1673 9.73839 72.1656 10.039C72.1537 12.7001 72.1588 15.3613 72.1588 18.0224L72.1605 18.0293Z" fill="#101828"/>
<path d="M25.9469 18.0117C25.9469 15.465 25.9469 12.9166 25.9469 10.3699C25.9469 9.69009 25.9503 9.6918 26.638 9.69692C27.0657 9.70034 27.4951 9.67813 27.9211 9.70376C29.1117 9.7772 30.1656 8.64135 30.1929 7.4645C30.2049 6.95209 30.2049 6.43967 30.1912 5.92726C30.1827 5.60273 30.2973 5.47292 30.6377 5.47463C34.5005 5.48487 38.3616 5.48829 42.2245 5.48146C42.5273 5.48146 42.6162 5.57711 42.6111 5.87602C42.5957 6.90085 42.5837 7.92568 42.6162 8.9488C42.6282 9.35873 42.4828 9.45609 42.1047 9.45438C38.8697 9.44413 35.6347 9.46975 32.3998 9.44072C30.9747 9.42876 29.8747 10.5766 29.9226 11.9242C29.9876 13.757 29.938 15.5948 29.938 17.431C29.938 18.1176 29.938 18.1227 30.6121 18.1244C33.9463 18.1296 37.2822 18.1398 40.6164 18.1296C41.8857 18.1261 42.8232 17.1953 42.8523 15.8237C42.8899 13.9465 42.8711 12.0677 42.854 10.1888C42.8506 9.79428 42.9703 9.67472 43.3655 9.68497C44.3766 9.71059 45.3893 9.70205 46.4004 9.68838C46.698 9.68497 46.8315 9.73962 46.8297 10.0829C46.8143 12.5442 46.8161 15.0072 46.8263 17.4685C46.8263 17.7931 46.7083 17.899 46.4038 17.8921C45.9196 17.8819 45.4338 17.9058 44.9497 17.8887C43.6444 17.8426 42.5358 18.9938 42.6025 20.2578C42.6282 20.7548 42.5957 21.2536 42.6111 21.7523C42.6196 22.0393 42.505 22.1127 42.2313 22.1127C38.6833 22.0991 35.1335 22.0957 31.5855 22.0905C31.2296 22.0905 30.8755 22.1076 30.5197 22.0991C30.1005 22.0905 29.9449 22.2169 29.9414 22.6456C29.9329 23.7132 29.9226 24.7807 29.9449 25.8465C29.9534 26.224 29.8303 26.3453 29.4573 26.3402C28.4463 26.3231 27.4335 26.3299 26.4225 26.3453C26.0701 26.3504 25.9503 26.212 25.952 25.8636C25.9606 23.2452 25.9572 20.6284 25.9572 18.01H25.9503L25.9469 18.0117Z" fill="#101828"/>
<path d="M139.883 5.49201C142.492 5.49201 145.099 5.50055 147.708 5.48347C148.098 5.48005 148.189 5.60474 148.18 5.97197C148.156 6.98142 148.153 7.99259 148.18 9.00205C148.19 9.38294 148.038 9.4581 147.706 9.45639C144.285 9.44785 140.865 9.44956 137.443 9.44956C136.918 9.44956 136.39 9.42906 135.868 9.47518C135.74 9.48542 135.529 9.7143 135.526 9.84582C135.5 11.0825 135.51 12.3208 135.51 13.5591C135.51 13.8478 135.697 13.9161 135.935 13.9178C136.448 13.9229 136.961 13.9264 137.474 13.9264C140.324 13.9264 143.176 13.9178 146.026 13.9315C147.424 13.9383 148.353 12.9767 148.409 11.5932C148.428 11.1098 148.423 10.6247 148.408 10.1413C148.397 9.8202 148.496 9.68185 148.845 9.68698C149.899 9.70576 150.955 9.70747 152.009 9.69039C152.339 9.68527 152.421 9.80654 152.416 10.114C152.399 11.1815 152.395 12.249 152.407 13.3149C152.411 13.6052 152.294 13.6958 152.033 13.6941C151.519 13.6906 151.006 13.6855 150.493 13.6941C149.78 13.7077 149.116 13.9127 148.71 14.5156C148.447 14.9085 148.267 15.397 148.192 15.8667C148.105 16.4081 148.165 16.9735 148.18 17.5286C148.187 17.7865 148.089 17.8993 147.836 17.8924C147.708 17.889 147.58 17.8924 147.451 17.8924C143.631 17.8924 139.811 17.8924 135.993 17.8839C135.594 17.8839 135.51 18.094 135.51 18.4202C135.51 19.4878 135.495 20.5553 135.515 21.6211C135.522 21.9678 135.432 22.0994 135.067 22.0977C134.043 22.0925 133.016 22.1164 131.991 22.1421C131.576 22.1523 131.49 21.9217 131.492 21.5733C131.499 20.335 131.495 19.0966 131.495 17.8583C131.495 13.9878 131.495 10.1174 131.495 6.24526C131.495 5.48688 131.495 5.48347 132.272 5.48347C134.809 5.48347 137.346 5.48347 139.883 5.48347V5.48859V5.49201Z" fill="#101828"/>
<path d="M87.0917 5.49221C89.0163 5.49221 90.9408 5.49904 92.8637 5.48537C93.187 5.48367 93.2811 5.58273 93.2743 5.89872C93.2572 6.90818 93.2452 7.91934 93.2777 8.9288C93.2914 9.35069 93.1562 9.46171 92.7491 9.46C89.5415 9.44634 86.3356 9.45146 83.128 9.45317C81.7868 9.45317 81.1264 10.0049 80.6696 11.1527C80.6046 11.3184 80.6029 11.5148 80.6029 11.6975C80.5995 14.9992 80.5944 18.3009 80.6081 21.6025C80.6081 21.9715 80.514 22.103 80.1308 22.1013C79.1351 22.0944 78.1378 22.1201 77.1421 22.1491C76.7795 22.1593 76.6306 22.0244 76.6306 21.6521C76.6375 17.8089 76.6357 13.9675 76.6289 10.1244C76.6289 9.78624 76.7504 9.67351 77.084 9.69059C77.5818 9.7145 78.083 9.67693 78.5808 9.70596C79.7955 9.77428 80.8082 8.70846 80.839 7.47525C80.851 7.00554 80.839 6.53582 80.8407 6.06611C80.8407 5.4905 80.8441 5.48708 81.4053 5.48708C83.3007 5.48708 85.1962 5.48708 87.0917 5.48708V5.4905V5.49221Z" fill="#101828"/>
<path d="M8.96103 26.3423C6.38126 26.3423 3.80319 26.3423 1.22342 26.3423C0.650322 26.3423 0.62124 26.3115 0.622951 25.741C0.624662 24.7589 0.633214 23.7768 0.617818 22.7964C0.612686 22.4411 0.746123 22.3352 1.09682 22.3352C5.82869 22.3471 10.5589 22.3369 15.2907 22.3591C16.519 22.3642 17.4548 21.3326 17.5232 20.084C17.5506 19.5733 17.5386 19.0591 17.5232 18.5484C17.513 18.2307 17.643 18.1265 17.9526 18.13C19.0218 18.1419 20.0893 18.1402 21.1585 18.13C21.4254 18.1283 21.499 18.2307 21.4955 18.4852C21.4836 19.5528 21.4767 20.6203 21.4921 21.6861C21.4972 22.0192 21.357 22.1046 21.0593 22.0961C20.6316 22.0841 20.2039 22.1114 19.7762 22.0926C18.2982 22.0243 17.128 23.2473 17.2649 24.6154C17.306 25.0236 17.2444 25.4421 17.2735 25.8521C17.3008 26.2347 17.1537 26.3457 16.7859 26.344C14.9759 26.3303 13.166 26.3371 11.3561 26.3371C10.5589 26.3371 9.75994 26.3371 8.96274 26.3371C8.96274 26.3388 8.96274 26.3406 8.96274 26.3423H8.96103Z" fill="#101828"/>
<path d="M114.564 5.49196C117.171 5.49196 119.779 5.49708 122.386 5.48512C122.731 5.48512 122.861 5.56199 122.851 5.93263C122.825 6.92843 122.815 7.92422 122.851 8.9183C122.866 9.37435 122.69 9.46488 122.283 9.45975C120.772 9.44097 119.264 9.45292 117.753 9.45292C114.648 9.45292 111.541 9.47 108.436 9.44609C106.909 9.43413 105.845 10.5802 105.934 11.9398C105.963 12.3925 105.93 12.8502 105.956 13.3046C105.971 13.5813 105.887 13.6974 105.605 13.6974C104.538 13.6957 103.468 13.7008 102.401 13.7077C102.098 13.7094 101.961 13.5762 101.963 13.2704C101.97 12.2029 101.972 11.1371 101.965 10.0695C101.965 9.79624 102.073 9.68863 102.348 9.69546C102.875 9.70913 103.402 9.68863 103.929 9.70401C105.172 9.74158 106.108 8.71675 106.17 7.50404C106.197 6.97967 106.185 6.45188 106.17 5.9258C106.159 5.59615 106.283 5.48171 106.62 5.48342C109.27 5.49537 111.919 5.49025 114.568 5.49025L114.564 5.49196Z" fill="#101828"/>
<path d="M13.2037 5.49194C15.8108 5.49194 18.4197 5.49706 21.0269 5.48682C21.3656 5.48682 21.5076 5.55343 21.4956 5.93091C21.4665 6.91133 21.4836 7.89346 21.4819 8.87559C21.4819 9.4512 21.4819 9.45291 20.8832 9.45291C19.5727 9.45291 18.2606 9.45291 16.9502 9.45291C13.6297 9.45291 10.3109 9.45461 6.99034 9.45461C5.57044 9.45461 4.56111 10.5102 4.58506 11.8664C4.59361 12.3361 4.58506 12.8058 4.60559 13.2738C4.61927 13.5608 4.52347 13.694 4.22238 13.6923C3.16858 13.6889 2.11306 13.6923 1.05925 13.7025C0.722236 13.7059 0.61446 13.5556 0.617882 13.2345C0.629857 12.2251 0.6367 11.2139 0.614461 10.2044C0.604196 9.78085 0.770137 9.66129 1.17045 9.68862C1.65287 9.72107 2.13872 9.70399 2.62285 9.70057C3.61336 9.69374 4.44991 9.08909 4.66717 8.12063C4.80403 7.50915 4.82798 6.86692 4.85364 6.23494C4.88443 5.48852 4.86049 5.48852 5.5961 5.48852C8.13311 5.48852 10.6684 5.48852 13.2054 5.48852L13.2037 5.49194Z" fill="#101828"/>
<path d="M87.0438 26.3454C85.15 26.3454 83.2545 26.3385 81.3608 26.3505C80.9724 26.3522 80.827 26.2104 80.8338 25.8244C80.851 24.8286 80.851 23.8328 80.839 22.8387C80.8356 22.4903 80.9228 22.3366 81.3197 22.3383C84.5957 22.3536 87.8718 22.3229 91.1478 22.3622C92.4155 22.3776 93.5274 21.3715 93.5069 20.0034C93.5001 19.5063 93.5103 19.0076 93.5052 18.5105C93.5018 18.2475 93.5959 18.1262 93.8816 18.1296C94.9918 18.1399 96.1038 18.1348 97.2141 18.1279C97.4382 18.1279 97.5134 18.2168 97.5117 18.432C97.5049 19.5405 97.5032 20.6507 97.5083 21.7592C97.5083 21.9967 97.4108 22.0957 97.1781 22.094C96.7368 22.0906 96.2954 22.094 95.854 22.094C94.5659 22.094 93.8473 22.562 93.3632 23.7491C93.2914 23.9268 93.2777 24.1368 93.2725 24.3333C93.2606 24.8303 93.2435 25.3308 93.2777 25.8261C93.305 26.2258 93.1614 26.3488 92.7713 26.3436C91.5601 26.3266 90.3506 26.3368 89.1394 26.3368C88.4414 26.3368 87.7435 26.3368 87.0455 26.3368C87.0455 26.3402 87.0455 26.3436 87.0455 26.3454H87.0438Z" fill="#101828"/>
<path d="M141.979 26.3474C140.085 26.3474 138.189 26.3389 136.296 26.3543C135.894 26.3577 135.731 26.2245 135.74 25.8128C135.758 24.817 135.76 23.8212 135.743 22.8272C135.736 22.4548 135.866 22.3369 136.239 22.3387C139.515 22.3523 142.791 22.325 146.067 22.3591C147.405 22.3728 148.372 21.3377 148.409 20.0294C148.423 19.546 148.423 19.0626 148.409 18.5792C148.399 18.2581 148.5 18.1215 148.847 18.1266C149.915 18.1454 150.984 18.1437 152.051 18.1283C152.34 18.1249 152.417 18.2257 152.414 18.5007C152.397 19.5819 152.394 20.6613 152.402 21.7425C152.404 22.0073 152.305 22.1012 152.053 22.0978C151.598 22.091 151.141 22.1115 150.686 22.0927C149.241 22.0312 148.035 23.1756 148.168 24.6018C148.207 25.0254 148.147 25.4558 148.177 25.8811C148.202 26.2535 148.043 26.344 147.706 26.3423C145.797 26.3338 143.888 26.3372 141.98 26.3372V26.3474H141.979Z" fill="#101828"/>
<path d="M114.554 22.3453C117.19 22.3453 119.825 22.3504 122.461 22.3385C122.76 22.3385 122.856 22.4153 122.851 22.7211C122.832 23.7442 122.818 24.769 122.851 25.7921C122.865 26.2431 122.694 26.3421 122.285 26.3404C117.527 26.3302 112.768 26.3319 108.01 26.3319C107.569 26.3319 107.126 26.325 106.686 26.349C106.295 26.3695 106.154 26.2038 106.161 25.8212C106.178 24.8254 106.183 23.8296 106.166 22.8338C106.159 22.4392 106.301 22.3316 106.691 22.335C109.312 22.3521 111.933 22.3436 114.556 22.3436L114.554 22.3453Z" fill="#101828"/>
<path d="M112.441 13.9143C114.393 13.9143 116.345 13.9177 118.297 13.9092C118.537 13.9092 118.631 13.969 118.629 14.2166C118.619 15.3115 118.614 16.4081 118.626 17.5029C118.631 17.8531 118.443 17.8958 118.167 17.8958C116.884 17.8906 115.603 17.8958 114.32 17.8941C112.339 17.8941 110.358 17.8906 108.377 17.8941C106.878 17.8958 105.922 18.8608 105.935 20.3434C105.941 20.8131 105.927 21.2828 105.949 21.7508C105.961 22.0087 105.884 22.1044 105.615 22.1061C104.562 22.1095 103.51 22.1266 102.456 22.1505C102.124 22.1573 101.951 22.0497 101.955 21.6876C101.966 20.6355 101.966 19.5816 101.96 18.5295C101.958 18.2408 102.057 18.1178 102.358 18.1298C102.842 18.1486 103.327 18.1298 103.811 18.1366C105.147 18.1486 106.136 17.2023 106.166 15.87C106.178 15.3576 106.175 14.8452 106.166 14.3328C106.161 14.0373 106.245 13.9092 106.584 13.9109C108.536 13.928 110.488 13.9194 112.44 13.9194V13.916L112.441 13.9143Z" fill="#101828"/>
<path d="M11.1149 13.9209C13.0531 13.9209 14.9914 13.9277 16.9296 13.9141C17.2376 13.9124 17.2786 14.0319 17.2752 14.2933C17.2632 15.3027 17.2718 16.3139 17.2701 17.3251C17.2701 17.8819 17.2615 17.8938 16.6935 17.8938C13.3149 17.8938 9.93789 17.8938 6.5592 17.8938C6.13152 17.8938 5.70384 17.8938 5.27616 17.9007C4.99731 17.9058 4.85703 17.8101 4.86045 17.5044C4.86729 16.4232 4.86729 15.342 4.85019 14.2608C4.84505 13.9004 5.06574 13.9243 5.30011 13.9243C7.23836 13.9243 9.17661 13.9243 11.1149 13.9243C11.1149 13.9243 11.1149 13.9226 11.1149 13.9209Z" fill="#101828"/>
<path d="M95.5324 9.69715C96.0593 9.69715 96.5879 9.71081 97.1131 9.69031C97.4039 9.68007 97.5168 9.75864 97.5117 10.0695C97.4946 11.1353 97.4946 12.2029 97.51 13.2687C97.5151 13.5949 97.3817 13.694 97.0823 13.6923C96.0422 13.6889 95.0021 13.694 93.9637 13.7059C93.6403 13.7094 93.4983 13.5761 93.5018 13.2482C93.512 12.196 93.512 11.1439 93.5086 10.09C93.5086 9.80988 93.6027 9.67836 93.9106 9.69031C94.4512 9.71081 94.9935 9.69544 95.5341 9.69544L95.5324 9.69715Z" fill="#101828"/>
<path d="M168.08 20.027C167.669 20.027 167.327 19.9551 167.053 19.8114C166.779 19.6608 166.56 19.4759 166.396 19.2569V19.6881C166.396 19.7566 166.372 19.8148 166.324 19.8627C166.283 19.9038 166.228 19.9243 166.159 19.9243H165.687C165.619 19.9243 165.56 19.9038 165.512 19.8627C165.471 19.8148 165.451 19.7566 165.451 19.6881V12.8699C165.451 12.8014 165.471 12.7467 165.512 12.7056C165.56 12.6577 165.619 12.6337 165.687 12.6337H166.19C166.259 12.6337 166.313 12.6577 166.354 12.7056C166.396 12.7467 166.416 12.8014 166.416 12.8699V15.2316C166.587 15.0194 166.806 14.8414 167.073 14.6977C167.347 14.5539 167.683 14.482 168.08 14.482C168.463 14.482 168.788 14.5505 169.055 14.6874C169.329 14.8175 169.551 14.9989 169.723 15.2316C169.9 15.4644 170.034 15.7279 170.123 16.0223C170.212 16.3167 170.263 16.6247 170.277 16.9465C170.284 17.056 170.287 17.1587 170.287 17.2545C170.287 17.3504 170.284 17.453 170.277 17.5626C170.263 17.8912 170.212 18.2026 170.123 18.497C170.034 18.7914 169.9 19.0549 169.723 19.2877C169.551 19.5136 169.329 19.695 169.055 19.8319C168.788 19.962 168.463 20.027 168.08 20.027ZM167.864 19.1953C168.22 19.1953 168.497 19.12 168.696 18.9693C168.901 18.8119 169.048 18.61 169.137 18.3635C169.226 18.1102 169.278 17.8398 169.291 17.5523C169.298 17.3538 169.298 17.1553 169.291 16.9567C169.278 16.6692 169.226 16.4022 169.137 16.1558C169.048 15.9025 168.901 15.7006 168.696 15.55C168.497 15.3925 168.22 15.3138 167.864 15.3138C167.542 15.3138 167.275 15.3891 167.063 15.5397C166.851 15.6903 166.69 15.882 166.58 16.1147C166.478 16.3475 166.423 16.5836 166.416 16.8232C166.409 16.9328 166.406 17.0663 166.406 17.2237C166.406 17.3743 166.409 17.5044 166.416 17.6139C166.43 17.8672 166.485 18.1171 166.58 18.3635C166.683 18.6031 166.837 18.8016 167.042 18.9591C167.255 19.1165 167.528 19.1953 167.864 19.1953ZM172.076 21.8753C172.021 21.8753 171.973 21.8548 171.932 21.8137C171.891 21.7726 171.871 21.7247 171.871 21.67C171.871 21.6426 171.874 21.6152 171.881 21.5878C171.888 21.5604 171.901 21.5262 171.922 21.4851L172.713 19.606L170.751 14.9749C170.717 14.8928 170.7 14.8346 170.7 14.8004C170.7 14.7387 170.721 14.6874 170.762 14.6463C170.803 14.6053 170.854 14.5847 170.916 14.5847H171.419C171.494 14.5847 171.549 14.6018 171.583 14.6361C171.624 14.6703 171.652 14.7114 171.665 14.7593L173.226 18.497L174.828 14.7593C174.848 14.7114 174.876 14.6703 174.91 14.6361C174.951 14.6018 175.009 14.5847 175.085 14.5847H175.567C175.629 14.5847 175.68 14.6053 175.721 14.6463C175.762 14.6874 175.783 14.7353 175.783 14.7901C175.783 14.8243 175.766 14.8859 175.732 14.9749L172.815 21.7008C172.795 21.7487 172.764 21.7898 172.723 21.824C172.689 21.8582 172.634 21.8753 172.559 21.8753H172.076Z" fill="#101828"/>
<mask id="mask0_3356_34010" style="mask-type:luminance" maskUnits="userSpaceOnUse" x="184" y="0" width="173" height="29">
<path d="M356.292 0H184.942V28.75H356.292V0Z" fill="white"/>
</mask>
<g mask="url(#mask0_3356_34010)">
<path d="M189.963 4.38744L197.95 0L205.937 4.38744L203 6.00833L197.95 3.24168L192.899 6.00833L189.963 4.38744ZM205.937 9.92073L203 8.29985L197.95 11.0665L192.899 8.29985L189.963 9.92073V13.1623L195.014 15.929V21.4622L197.95 23.0831L200.886 21.4622V15.929L205.937 13.1623V9.92073ZM205.937 18.6956V15.4539L203 17.0747V20.3164L205.937 18.6956ZM208.021 19.8415L202.971 22.6079V25.8497L210.958 21.4622V12.6873L208.021 14.3082V19.8415ZM205.085 7.15409L208.021 8.77488V12.0166L210.958 10.3958V7.15409L208.021 5.53329L205.085 7.15409ZM195.014 23.7816V27.0234L197.95 28.6441L200.886 27.0234V23.7816L197.95 25.4025L195.014 23.7816ZM189.963 18.6956L192.899 20.3164V17.0747L189.963 15.4539V18.6956ZM195.014 7.15409L197.95 8.77488L200.886 7.15409L197.95 5.53329L195.014 7.15409ZM187.878 8.77488L190.815 7.15409L187.878 5.53329L184.942 7.15409V10.3958L187.878 12.0166V8.77488ZM187.878 14.3082L184.942 12.6873V21.4622L192.929 25.8497V22.6079L187.878 19.8415V14.3082Z" fill="#101828"/>
<path d="M234.107 17.9757V17.9301C234.107 15.7893 232.91 14.7191 230.972 14.013C232.168 13.3754 233.173 12.3734 233.173 10.5743V10.5287C233.173 8.02367 231.068 6.40674 227.646 6.40674H219.869V22.3481H227.838C231.618 22.3481 234.107 20.8907 234.107 17.9757ZM229.512 11.1664C229.512 12.3506 228.484 12.8516 226.856 12.8516H223.459V9.4812H227.096C228.651 9.4812 229.512 10.0733 229.512 11.1209V11.1664ZM230.446 17.543C230.446 18.7271 229.465 19.2736 227.838 19.2736H223.459V15.7666H227.718C229.608 15.7666 230.446 16.4271 230.446 17.4973V17.543Z" fill="#101828"/>
<path d="M252.26 22.3481V6.40674H248.623V16.222L240.775 6.40674H237.377V22.3481H241.014V12.2139L249.126 22.3481H252.26Z" fill="#101828"/>
<path d="M270.757 17.9757V17.9301C270.757 15.7893 269.561 14.7191 267.622 14.013C268.819 13.3754 269.824 12.3734 269.824 10.5743V10.5287C269.824 8.02367 267.718 6.40674 264.296 6.40674H256.52V22.3481H264.488C268.268 22.3481 270.757 20.8907 270.757 17.9757ZM266.163 11.1664C266.163 12.3506 265.134 12.8516 263.507 12.8516H260.109V9.4812H263.746C265.302 9.4812 266.163 10.0733 266.163 11.1209V11.1664ZM267.096 17.543C267.096 18.7271 266.115 19.2736 264.488 19.2736H260.109V15.7666H264.368C266.259 15.7666 267.096 16.4271 267.096 17.4973V17.543Z" fill="#101828"/>
<path d="M292.966 19.5326L291.076 17.7108C289.64 18.9861 288.324 19.7832 286.266 19.7832C283.06 19.7832 280.739 17.2326 280.739 14.0899C280.739 10.9471 283.06 8.44207 286.266 8.44207C288.181 8.44207 289.617 9.23915 290.957 10.4233L292.847 8.35094C291.243 6.8935 289.377 5.86865 286.291 5.86865C281.218 5.86865 277.652 9.58071 277.652 14.1354C277.652 18.7356 281.289 22.3566 286.171 22.3566C289.306 22.3566 291.219 21.2634 292.966 19.5326Z" fill="#101828"/>
<path d="M307.234 15.3653V22.0834H310.178V6.14209H307.234V12.7691H299.242V6.14209H296.299V22.0834H299.242V15.3653H307.234Z" fill="#101828"/>
<path d="M323.38 6.02686H320.653L313.283 22.082H316.298L318.02 18.2334H325.941L327.639 22.082H330.75L323.38 6.02686ZM324.864 15.751H319.097L321.968 9.37451L324.864 15.751Z" fill="#101828"/>
<path d="M334.029 6.14209V22.0834H336.972V6.14209H334.029Z" fill="#101828"/>
<path d="M353.396 17.1643L344.423 6.14209H341.695V22.0834H344.591V10.7423L353.827 22.0834H356.292V6.14209H353.396V17.1643Z" fill="#101828"/>
</g>
</svg>
