<svg width="24" height="24" viewBox="0 0 24 24" fill="none" xmlns="http://www.w3.org/2000/svg">
<g clip-path="url(#clip0_5916_39118)">
<path d="M12 24C18.6274 24 24 18.6274 24 12C24 5.37258 18.6274 0 12 0C5.37258 0 0 5.37258 0 12C0 18.6274 5.37258 24 12 24Z" fill="#2775CA"/>
<path d="M9.75 20.3441C9.75 20.6253 9.525 20.7847 9.2625 20.7003C5.625 19.5378 3 16.1441 3 12.1222C3 8.10969 5.625 4.70657 9.2625 3.54407C9.53438 3.45969 9.75 3.61907 9.75 3.90032V4.60344C9.75 4.79094 9.60938 5.00657 9.43125 5.07219C6.55312 6.13157 4.5 8.89719 4.5 12.1222C4.5 15.3566 6.55312 18.1128 9.43125 19.1628C9.60938 19.2284 9.75 19.4441 9.75 19.6316V20.3441Z" fill="white"/>
<path d="M12.7502 17.7461C12.7502 17.9523 12.5814 18.1211 12.3752 18.1211H11.6252C11.4189 18.1211 11.2502 17.9523 11.2502 17.7461V16.5648C9.60954 16.3398 8.81266 15.4305 8.59704 14.1742C8.55954 13.9586 8.72829 13.7711 8.94391 13.7711H9.79704C9.97516 13.7711 10.1252 13.9023 10.1627 14.0711C10.322 14.8117 10.7533 15.3836 12.0658 15.3836C13.0314 15.3836 13.7252 14.8398 13.7252 14.0336C13.7252 13.2273 13.322 12.918 11.897 12.6836C9.79704 12.4023 8.80329 11.7648 8.80329 10.1242C8.80329 8.85859 9.76891 7.86484 11.2502 7.65859V6.49609C11.2502 6.28984 11.4189 6.12109 11.6252 6.12109H12.3752C12.5814 6.12109 12.7502 6.28984 12.7502 6.49609V7.68672C13.9595 7.90234 14.7283 8.58672 14.9814 9.73047C15.0283 9.94609 14.8595 10.143 14.6345 10.143H13.847C13.6783 10.143 13.5377 10.0305 13.4908 9.87109C13.2752 9.14922 12.7595 8.83047 11.8595 8.83047C10.8658 8.83047 10.3502 9.30859 10.3502 9.98359C10.3502 10.6961 10.6408 11.0523 12.1689 11.268C14.2314 11.5492 15.3002 12.1398 15.3002 13.893C15.3002 15.2242 14.3064 16.3023 12.7595 16.5461V17.7461H12.7502Z" fill="white"/>
<path d="M14.7375 20.6991C14.4656 20.7835 14.25 20.6241 14.25 20.3429V19.6398C14.25 19.4335 14.3719 19.2366 14.5687 19.171C17.4375 18.121 19.5 15.3554 19.5 12.1304C19.5 8.89602 17.4469 6.13977 14.5687 5.08977C14.3906 5.02414 14.25 4.80852 14.25 4.62102V3.91789C14.25 3.63664 14.475 3.47727 14.7375 3.56164C18.375 4.70539 21 8.10852 21 12.121C21 16.1429 18.375 19.5366 14.7375 20.6991Z" fill="white"/>
</g>
<defs>
<clipPath id="clip0_5916_39118">
<rect width="24" height="24" fill="white"/>
</clipPath>
</defs>
</svg>
