<svg width="100%" viewBox="0 0 30 28" fill="none" xmlns="http://www.w3.org/2000/svg">
<path d="M20.3333 22L23 24.6667L28.3333 19.3333M15 18H9.66663C7.1816 18 5.93909 18 4.95898 18.406C3.65216 18.9473 2.6139 19.9855 2.0726 21.2924C1.66663 22.2725 1.66663 23.515 1.66663 26M19.6666 2.38768C21.6212 3.17886 23 5.09508 23 7.33333C23 9.57159 21.6212 11.4878 19.6666 12.279M17 7.33333C17 10.2789 14.6121 12.6667 11.6666 12.6667C8.72111 12.6667 6.33329 10.2789 6.33329 7.33333C6.33329 4.38781 8.72111 2 11.6666 2C14.6121 2 17 4.38781 17 7.33333Z" stroke="white" stroke-width="2.66667" stroke-linecap="round" stroke-linejoin="round"/>
</svg>
