<svg width="100%" viewBox="0 0 32 32" fill="none" xmlns="http://www.w3.org/2000/svg">
<path d="M25.3326 28V20M21.3326 24H29.3326M15.9992 20H10.6659C8.18087 20 6.93836 20 5.95825 20.406C4.65143 20.9473 3.61317 21.9855 3.07187 23.2924C2.66589 24.2725 2.66589 25.515 2.66589 28M20.6659 4.38768C22.6204 5.17886 23.9992 7.09508 23.9992 9.33333C23.9992 11.5716 22.6204 13.4878 20.6659 14.279M17.9992 9.33333C17.9992 12.2789 15.6114 14.6667 12.6659 14.6667C9.72037 14.6667 7.33256 12.2789 7.33256 9.33333C7.33256 6.38781 9.72037 4 12.6659 4C15.6114 4 17.9992 6.38781 17.9992 9.33333Z" stroke="white" stroke-width="2" stroke-linecap="round" stroke-linejoin="round"/>
</svg>
