<svg width="100%" viewBox="0 0 22 24" fill="none" xmlns="http://www.w3.org/2000/svg">
<path
    d="M20.3334 22.5C20.3334 20.8718 20.3334 20.0578 20.1325 19.3953C19.68 17.9039 18.5129 16.7367 17.0214 16.2843C16.359 16.0833 15.5449 16.0833 13.9167 16.0833H8.08342C6.45526 16.0833 5.64118 16.0833 4.97875 16.2843C3.48728 16.7367 2.32013 17.9039 1.86769 19.3953C1.66675 20.0578 1.66675 20.8718 1.66675 22.5M16.2501 6.75C16.2501 9.6495 13.8996 12 11.0001 12C8.10059 12 5.75008 9.6495 5.75008 6.75C5.75008 3.85051 8.10059 1.5 11.0001 1.5C13.8996 1.5 16.2501 3.85051 16.2501 6.75Z"
    stroke="currentColor"
    stroke-width="2.33333"
    stroke-linecap="round"
    stroke-linejoin="round"
  />
</svg>
