<svg width="100%" viewBox="0 0 20 20" fill="none" xmlns="http://www.w3.org/2000/svg">
<g clip-path="url(#clip0_3302_420334)">
<path
      d="M15.4444 3.54203C15.6343 4.00142 15.9989 4.36658 16.458 4.55722L18.0679 5.22404C18.5273 5.41434 18.8923 5.77936 19.0826 6.23879C19.2729 6.69821 19.2729 7.21442 19.0826 7.67385L18.4163 9.28255C18.2259 9.74218 18.2256 10.2589 18.4169 10.7183L19.0821 12.3266C19.1764 12.5541 19.225 12.798 19.225 13.0443C19.2251 13.2907 19.1766 13.5346 19.0823 13.7622C18.988 13.9897 18.8499 14.1965 18.6756 14.3707C18.5014 14.5448 18.2946 14.6829 18.067 14.7771L16.4583 15.4435C15.9989 15.6334 15.6338 15.9981 15.4431 16.4572L14.7763 18.067C14.586 18.5264 14.221 18.8915 13.7615 19.0818C13.3021 19.2721 12.7859 19.2721 12.3265 19.0818L10.7178 18.4154C10.2583 18.2256 9.74232 18.226 9.28316 18.4165L7.6733 19.0824C7.21413 19.2722 6.69837 19.2721 6.23932 19.0819C5.78027 18.8918 5.41546 18.5272 5.22502 18.0682L4.558 16.4579C4.36805 15.9985 4.00344 15.6334 3.54434 15.4427L1.93448 14.7759C1.47525 14.5857 1.11034 14.2209 0.919971 13.7617C0.729599 13.3026 0.729341 12.7866 0.919253 12.3272L1.5856 10.7185C1.77543 10.2591 1.77505 9.74308 1.58452 9.28392L0.919132 7.67291C0.824793 7.44536 0.776216 7.20145 0.776176 6.95512C0.776137 6.70879 0.824635 6.46487 0.918902 6.23729C1.01317 6.00971 1.15135 5.80294 1.32556 5.62878C1.49977 5.45463 1.70659 5.31651 1.9342 5.22232L3.54291 4.55597C4.0019 4.36618 4.36684 4.00204 4.55762 3.54346L5.22444 1.9336C5.41474 1.47417 5.77976 1.10916 6.23919 0.918855C6.69861 0.728554 7.21482 0.728554 7.67425 0.918855L9.28295 1.5852C9.74239 1.77504 10.2584 1.77465 10.7176 1.58412L12.3281 0.919888C12.7875 0.729694 13.3036 0.729733 13.7629 0.919996C14.2222 1.11026 14.5872 1.47517 14.7775 1.93448L15.4446 3.54482L15.4444 3.54203Z"
      fill="currentColor"
    />
<path
      fill-rule="evenodd"
      clip-rule="evenodd"
      d="M13.9166 7.37864C14.0502 7.16879 14.0949 6.91446 14.041 6.6716C13.9871 6.42874 13.8389 6.21724 13.6291 6.08364C13.4192 5.95004 13.1649 5.90527 12.922 5.95919C12.6792 6.0131 12.4677 6.16129 12.3341 6.37114L8.66283 12.1399L6.98283 10.0399C6.82751 9.84562 6.60138 9.72101 6.35418 9.69346C6.10699 9.66592 5.85897 9.7377 5.6647 9.89302C5.47043 10.0483 5.34582 10.2745 5.31827 10.5217C5.29073 10.7689 5.36251 11.0169 5.51783 11.2111L8.01783 14.3361C8.111 14.4528 8.23066 14.5454 8.36687 14.6065C8.50308 14.6675 8.65189 14.6951 8.80094 14.6871C8.94998 14.679 9.09494 14.6355 9.22376 14.5601C9.35258 14.4847 9.46154 14.3796 9.54158 14.2536L13.9166 7.37864Z"
      fill="white"
    />
</g>
<defs>
<clipPath id="clip0_3302_420334">
<rect width="20" height="20" fill="white" />
</clipPath>
</defs>
</svg>
