<svg
  width="16"
  height="16"
  viewBox="0 0 15 15"
  fill="none"
  xmlns="http://www.w3.org/2000/svg"
>
<path
    d="M9.66667 5.33322V3.00032C9.66667 2.44583 9.66667 2.16858 9.54986 1.9982C9.44781 1.84934 9.28976 1.74822 9.11184 1.71794C8.90819 1.68328 8.65646 1.79947 8.153 2.03183L2.23934 4.76121C1.79034 4.96845 1.56583 5.07206 1.4014 5.23276C1.25604 5.37483 1.14508 5.54825 1.077 5.73977C1 5.95641 1 6.20367 1 6.69819V9.99988M10 9.66655H10.0067M1 7.46655L1 11.8666C1 12.6133 1 12.9867 1.14532 13.2719C1.27316 13.5228 1.47713 13.7267 1.72801 13.8546C2.01323 13.9999 2.3866 13.9999 3.13333 13.9999H10.8667C11.6134 13.9999 11.9868 13.9999 12.272 13.8546C12.5229 13.7267 12.7268 13.5228 12.8547 13.2719C13 12.9867 13 12.6133 13 11.8666V7.46655C13 6.71982 13 6.34645 12.8547 6.06123C12.7268 5.81035 12.5229 5.60638 12.272 5.47854C11.9868 5.33322 11.6134 5.33322 10.8667 5.33322L3.13333 5.33322C2.3866 5.33322 2.01323 5.33322 1.72801 5.47854C1.47713 5.60637 1.27316 5.81035 1.14532 6.06123C1 6.34645 1 6.71982 1 7.46655ZM10.3333 9.66655C10.3333 9.85065 10.1841 9.99988 10 9.99988C9.81591 9.99988 9.66667 9.85065 9.66667 9.66655C9.66667 9.48246 9.81591 9.33322 10 9.33322C10.1841 9.33322 10.3333 9.48246 10.3333 9.66655Z"
    stroke="currentColor"
    stroke-width="1.5"
    stroke-linecap="round"
    stroke-linejoin="round"
  />
</svg>
