<svg width="100%" viewBox="0 0 175 64" fill="none" xmlns="http://www.w3.org/2000/svg">
<g clip-path="url(#clip0_1332_15712)">
  <path d="M20.4009 53.9562C18.895 53.9562 17.3891 53.9642 15.8832 53.953C14.7799 53.945 13.9176 53.2556 13.618 52.1894C13.4865 51.7186 13.6038 51.2893 13.7924 50.8743C15.0637 48.0877 16.3397 45.3058 17.6174 42.5224C18.8062 39.9321 19.9998 37.3449 21.1903 34.7546C22.4806 31.9488 23.7677 29.1399 25.058 26.3341C26.2881 23.6607 27.5277 20.9906 28.7546 18.3157C29.9926 15.6169 31.2211 12.9148 32.4511 10.2128C32.7634 9.52808 33.2849 9.161 34.0331 9.1594C37.0306 9.15461 40.0297 9.14663 43.0272 9.161C44.1923 9.16579 45.2496 10.0627 45.3193 11.2199C45.3495 11.7354 45.0847 12.294 44.8628 12.7935C44.1527 14.3927 43.3982 15.9712 42.6658 17.5608C41.8621 19.3068 41.068 21.0577 40.2675 22.8053C39.5177 24.4444 38.7664 26.0835 38.0134 27.721C36.8499 30.2491 35.6801 32.7756 34.5198 35.3052C33.4688 37.5939 32.4305 39.889 31.3812 42.1793C30.5521 43.9859 29.712 45.7878 28.8814 47.5945C28.0746 49.3533 27.2677 51.1121 26.4751 52.8773C26.1581 53.5811 25.654 53.9562 24.8757 53.953C23.3841 53.9466 21.8909 53.9514 20.3977 53.9514L20.4009 53.9562ZM38.714 11.1528C37.354 11.1528 35.9924 11.1608 34.6323 11.148C34.2709 11.1448 34.0823 11.3076 33.9412 11.6204C33.1407 13.3984 32.3338 15.1716 31.5222 16.9431C30.633 18.8839 29.7358 20.8214 28.8449 22.7606C28.0096 24.5801 27.1789 26.4011 26.342 28.219C25.6382 29.7479 24.9265 31.2737 24.2242 32.8043C23.3952 34.6126 22.5773 36.4256 21.7514 38.2355C21.0302 39.8156 20.3058 41.394 19.5798 42.9725C18.765 44.7424 17.9455 46.5108 17.1339 48.2824C16.6536 49.3294 16.1733 50.378 15.7152 51.4361C15.5313 51.8606 15.6248 51.9931 16.0893 51.9947C18.8363 52.0011 21.585 51.9947 24.332 51.9979C24.6411 51.9979 24.8266 51.8527 24.9471 51.5877C25.3798 50.6349 25.811 49.6805 26.2469 48.7277C27.4104 46.182 28.5723 43.6364 29.739 41.094C30.6124 39.1915 31.5001 37.2939 32.3719 35.3898C33.2722 33.4251 34.1599 31.4557 35.0603 29.491C36.0494 27.3332 37.0481 25.1801 38.0388 23.0223C39.2784 20.3235 40.5132 17.6214 41.7496 14.9226C42.2077 13.9219 42.6753 12.9276 43.1287 11.9237C43.4124 11.2965 43.3221 11.1528 42.6737 11.1512C41.3533 11.1496 40.0313 11.1512 38.7109 11.1512L38.714 11.1528Z" fill="#101828"/>
  <path d="M142.462 39.2953C141.953 39.5794 141.526 39.8459 141.076 40.0614C139.689 40.7237 138.237 40.7349 136.779 40.3854C134.246 39.7789 132.461 38.2356 131.402 35.8575C130.643 34.153 130.53 32.3718 130.966 30.5588C131.504 28.3196 132.781 26.6358 134.763 25.4994C136.414 24.5514 138.198 24.2848 140.043 24.6727C140.683 24.8083 141.271 25.2041 141.878 25.4914C142.056 25.5744 142.218 25.6909 142.427 25.8154C142.476 25.7053 142.552 25.6143 142.549 25.5249C142.536 25.1148 142.779 25.0493 143.112 25.0509C144.05 25.0589 144.987 25.0621 145.925 25.0509C146.261 25.0461 146.396 25.1658 146.394 25.5154C146.387 30.4231 146.455 35.3324 146.363 40.2386C146.306 43.2837 144.876 45.6059 142.07 46.9003C141.306 47.253 140.436 47.4158 139.597 47.5435C138.903 47.6504 138.179 47.6217 137.472 47.577C135.08 47.4222 133.13 46.3672 131.602 44.5222C130.911 43.6891 130.906 43.8823 131.653 43.1194C132.125 42.6358 132.601 42.157 133.082 41.683C133.474 41.2983 133.496 41.3079 133.888 41.7197C134.352 42.208 134.788 42.7363 135.305 43.1624C136.575 44.2094 138.039 44.3611 139.599 44.0035C140.824 43.7226 141.674 43.0028 142.168 41.8537C142.466 41.1626 142.611 40.4349 142.563 39.6784C142.557 39.5682 142.509 39.4597 142.465 39.2937L142.462 39.2953ZM142.584 32.5458C142.706 30.1645 141.236 28.3531 139.279 28.0802C137.784 27.8711 136.497 28.2621 135.587 29.4751C134.37 31.0982 134.305 32.8921 135.054 34.7515C136.102 37.3498 139.472 37.6802 141.143 36.1927C142.227 35.2287 142.625 33.971 142.584 32.5458Z" fill="#101828"/>
  <path d="M18.0833 9.16093C19.9046 9.16093 21.7276 9.14657 23.5489 9.16572C24.8947 9.18008 25.8141 10.3771 25.4637 11.622C25.3924 11.8741 25.2672 12.1136 25.1578 12.353C23.8929 15.1109 22.6263 17.8688 21.3566 20.6235C20.2867 22.9473 19.2151 25.2679 18.1435 27.5901C18.0326 27.8311 17.9295 28.0752 17.8186 28.3162C17.3129 29.4047 16.1082 29.6154 15.2079 28.8078C14.7387 28.3865 14.6594 27.8247 14.5437 27.274C14.1046 25.1849 13.6798 23.0909 13.2597 20.9985C12.884 19.1264 12.529 17.2479 12.1454 15.3774C11.8473 13.9234 11.543 12.4695 11.1943 11.0267C10.9422 9.98607 11.5034 9.16891 12.5797 9.16253C14.4153 9.14976 16.2493 9.15934 18.0849 9.15934L18.0833 9.16093Z" fill="#101828"/>
  <path d="M92.0604 32.597C91.9812 37.1982 88.4923 40.727 83.8335 40.5898C79.4887 40.4605 76.1028 36.9908 76.163 32.3687C76.2217 27.8616 79.7787 24.427 84.3598 24.5164C88.7253 24.6025 92.0382 28.1265 92.0604 32.597ZM80.0371 32.431C80.0339 33.4524 80.3066 34.5361 80.6696 35.1314C81.5367 36.5551 82.8048 37.1456 84.4406 37.0482C85.8229 36.9668 86.8485 36.3188 87.5206 35.125C88.1642 33.9807 88.2735 32.747 88.05 31.459C87.7869 29.9332 86.9911 28.8256 85.5455 28.2893C84.1743 27.7802 82.8286 27.9143 81.6492 28.8368C80.4651 29.764 80.0641 31.0728 80.0355 32.431H80.0371Z" fill="#101828"/>
  <path d="M67.8869 34.4373C68.0328 34.2267 68.1596 34.091 68.2309 33.9298C69.2502 31.6284 70.2615 29.3237 71.2728 27.0175C71.4805 26.5435 71.6897 26.071 71.8847 25.5922C72.0337 25.2252 72.2429 25.0289 72.6836 25.0432C73.6997 25.0783 74.7173 25.0512 75.7334 25.0576C76.201 25.0608 76.2486 25.1549 76.0536 25.5795C75.055 27.7612 74.0643 29.9462 73.0624 32.1247C72.0004 34.4373 70.9225 36.7436 69.862 39.0562C68.7065 41.5747 67.5604 44.098 66.4159 46.6213C66.24 47.0107 66.0086 47.215 65.5425 47.1974C64.5803 47.1607 63.615 47.1895 62.6512 47.1847C62.1836 47.1815 62.1202 47.0889 62.3199 46.6739C63.4105 44.4188 64.5042 42.1652 65.6091 39.9164C65.7866 39.5541 65.8104 39.2206 65.6487 38.8487C64.5724 36.3813 63.504 33.9122 62.4356 31.44C61.5892 29.4817 60.749 27.5218 59.9042 25.5619C59.7409 25.1821 59.8154 25.056 60.2386 25.0544C61.2816 25.048 62.3263 25.0688 63.3677 25.0432C63.7513 25.0336 63.9526 25.19 64.0874 25.522C64.4393 26.3807 64.8007 27.2361 65.1621 28.09C66.007 30.093 66.855 32.0944 67.7031 34.0974C67.7379 34.1804 67.7887 34.257 67.8838 34.4357L67.8869 34.4373Z" fill="#101828"/>
  <path d="M108.099 32.568C108.099 34.8695 108.099 37.1693 108.099 39.4708C108.099 40.0214 108.053 40.0661 107.514 40.0677C106.59 40.0709 105.664 40.0677 104.74 40.0677C104.478 40.0677 104.252 40.0565 104.16 39.7245C104.09 39.4708 103.911 39.5665 103.756 39.6783C102.557 40.5433 101.21 40.7556 99.7943 40.5114C97.5434 40.1236 95.8711 38.9329 94.9945 36.7624C94.5761 35.7281 94.4794 34.6189 94.4714 33.5129C94.4524 30.8667 94.4714 28.2189 94.4588 25.5727C94.4572 25.1897 94.6014 25.0476 94.9692 25.0508C95.9076 25.0604 96.8444 25.0508 97.7828 25.054C98.2425 25.054 98.2869 25.1035 98.2885 25.5983C98.29 27.8598 98.2742 30.1214 98.298 32.3813C98.3075 33.216 98.3756 34.0539 98.4755 34.8839C98.6324 36.1814 99.5074 36.973 100.809 37.0448C101.806 37.1007 102.741 36.9379 103.442 36.1367C103.924 35.5845 104.13 34.9046 104.146 34.188C104.184 32.4739 104.188 30.7582 104.199 29.0425C104.207 27.8853 104.212 26.7282 104.195 25.5711C104.19 25.1865 104.342 25.0476 104.708 25.0524C105.672 25.062 106.637 25.0636 107.601 25.0524C107.982 25.0476 108.105 25.2184 108.104 25.5871C108.094 27.9141 108.099 30.2427 108.099 32.5696V32.568Z" fill="#101828"/>
  <path d="M149.891 32.5745C149.891 30.2731 149.891 27.9717 149.891 25.6702C149.891 25.0813 149.918 25.0541 150.489 25.0541C151.388 25.0541 152.285 25.0541 153.184 25.0541C153.464 25.0541 153.758 25.0302 153.802 25.4388C153.807 25.4755 154.022 25.5425 154.1 25.5074C154.338 25.3957 154.549 25.2281 154.78 25.1036C156.308 24.2769 157.877 24.3647 159.451 24.936C160.802 25.4276 161.905 26.2655 162.58 27.5471C162.92 28.1903 163.115 28.9277 163.284 29.6443C163.666 31.2546 163.467 32.9017 163.492 34.5344C163.517 36.1975 163.498 37.8605 163.497 39.5236C163.497 40.0311 163.463 40.0646 162.953 40.0662C162.041 40.071 161.13 40.0694 160.219 40.0662C159.703 40.0646 159.678 40.0391 159.676 39.5268C159.675 37.0386 159.694 34.552 159.664 32.0638C159.656 31.3376 159.577 30.5971 159.416 29.8901C159.193 28.8957 158.529 28.3084 157.524 28.0818C156.435 27.8376 154.674 28.2526 154.154 29.6171C153.946 30.1646 153.805 30.7727 153.796 31.3568C153.753 33.9774 153.769 36.5981 153.762 39.2187C153.762 39.3783 153.754 39.5379 153.761 39.6975C153.769 39.9258 153.667 40.0566 153.439 40.0582C152.356 40.063 151.272 40.0662 150.189 40.0614C149.914 40.0614 149.89 39.8524 149.89 39.6385C149.89 39.0129 149.888 38.3888 149.888 37.7632C149.888 36.0331 149.888 34.3046 149.888 32.5745H149.891Z" fill="#101828"/>
  <path d="M116.251 40.5899C113.737 40.5867 111.666 39.1503 110.783 36.7978C110.458 35.9327 110.454 35.9247 111.298 35.5688C111.954 35.2911 112.62 35.0406 113.278 34.7676C113.614 34.6288 113.682 34.9065 113.805 35.0932C114.083 35.5114 114.325 35.9567 114.635 36.3493C115.292 37.184 116.342 37.1824 117.134 36.9159C117.707 36.7227 117.998 36.1641 117.997 35.5225C117.997 34.8347 117.48 34.6016 116.987 34.3894C115.947 33.9409 114.872 33.5674 113.842 33.0982C112.415 32.4502 111.447 31.3841 111.301 29.7594C111.133 27.892 111.849 26.4141 113.428 25.3895C114.844 24.4734 116.408 24.3058 117.998 24.6697C119.423 24.9969 120.482 25.9162 121.248 27.1674C121.79 28.0548 121.79 28.0644 120.877 28.5432C120.305 28.8432 119.718 29.1162 119.141 29.4066C118.84 29.5583 118.648 29.4338 118.474 29.188C118.117 28.6836 117.7 28.2543 117.101 28.0309C116.297 27.7308 115.283 28.1123 115.032 28.8305C114.855 29.3364 114.985 29.7849 115.467 30.0099C116.266 30.3834 117.101 30.6787 117.903 31.0441C118.67 31.3937 119.455 31.7272 120.16 32.1837C121.533 33.0711 122.009 34.4101 121.82 36.0093C121.596 37.899 120.572 39.2077 118.897 40.0217C118.065 40.4271 117.176 40.6042 116.25 40.5899H116.251Z" fill="#101828"/>
  <path d="M124.378 32.5951C124.378 30.2825 124.378 27.9699 124.378 25.6572C124.378 25.0843 124.405 25.0571 124.989 25.0556C125.846 25.0524 126.705 25.054 127.563 25.0556C128.207 25.0556 128.21 25.0587 128.21 25.6956C128.21 29.0583 128.21 32.4211 128.21 35.7839C128.21 37.0336 128.211 38.2833 128.208 39.533C128.208 40.0437 128.181 40.0676 127.663 40.0692C126.751 40.0724 125.841 40.0724 124.93 40.0692C124.407 40.0676 124.377 40.0357 124.377 39.4963C124.375 37.1964 124.377 34.8966 124.377 32.5983L124.378 32.5951Z" fill="#101828"/>
  <path d="M126.336 22.2705C124.978 22.2561 123.916 21.1788 123.935 19.8334C123.954 18.5103 125.017 17.524 126.414 17.5367C127.752 17.5495 128.747 18.5789 128.734 19.9355C128.722 21.2618 127.672 22.2849 126.338 22.2705H126.336Z" fill="#101828"/>
</g>
<defs>
<clipPath id="clip0_1332_15712">
<rect width="175" height="64" fill="white"/>
</clipPath>
</defs>
</svg>
