<svg width="100%" viewBox="0 0 22 23" fill="none" xmlns="http://www.w3.org/2000/svg">
<path d="M11 5L6.36159 11.7468C6.08236 12.1529 5.94275 12.356 5.95113 12.5248C5.95843 12.6718 6.03015 12.8082 6.14716 12.8975C6.28151 13 6.52794 13 7.02082 13H11V18L15.6384 11.2532C15.9176 10.8471 16.0573 10.644 16.0489 10.4752C16.0416 10.3282 15.9699 10.1918 15.8528 10.1025C15.7185 10 15.4721 10 14.9792 10H11V5Z" stroke="currentColor" stroke-width="2" stroke-linecap="round" stroke-linejoin="round"/>
<path d="M11 21.5C16.5228 21.5 21 17.0228 21 11.5C21 5.97715 16.5228 1.5 11 1.5C5.47715 1.5 1 5.97715 1 11.5C1 17.0228 5.47715 21.5 11 21.5Z" stroke="currentColor" stroke-width="2" stroke-linecap="round" stroke-linejoin="round"/>
</svg>
