<svg width="299" height="148" viewBox="0 0 299 148" fill="none" xmlns="http://www.w3.org/2000/svg">
<path d="M298.363 68.0958C298.544 66.727 297.582 65.4703 296.213 65.2888C294.844 65.1073 293.588 66.0698 293.406 67.4385L298.363 68.0958ZM160.062 144.976L160.54 142.522L160.54 142.522L160.062 144.976ZM43.9307 119.721L42.7648 121.933L42.7656 121.933L43.9307 119.721ZM9.85636 4.04397C8.86425 3.0837 7.28156 3.10951 6.32129 4.10161C5.36102 5.0937 5.38683 6.67641 6.37894 7.63668L9.85636 4.04397ZM0.804896 47.1922C0.74012 48.5714 1.80566 49.742 3.18485 49.8068C4.56406 49.8716 5.73462 48.806 5.7994 47.4268L0.804896 47.1922ZM39.4855 8.6581C40.842 8.91565 42.1504 8.02478 42.4079 6.66829C42.6655 5.31182 41.7746 4.0034 40.4181 3.74586L39.4855 8.6581ZM295.884 67.7671C293.406 67.4385 293.406 67.4382 293.406 67.4383C293.406 67.4387 293.406 67.439 293.406 67.4398C293.406 67.4414 293.405 67.4441 293.405 67.448C293.404 67.4557 293.402 67.468 293.4 67.4848C293.395 67.5184 293.388 67.5699 293.378 67.6388C293.359 67.7765 293.33 67.9835 293.29 68.255C293.209 68.7981 293.086 69.5989 292.918 70.619C292.58 72.6596 292.06 75.5749 291.33 79.0573C289.868 86.0327 287.576 95.2352 284.251 104.226C280.911 113.258 276.603 121.871 271.201 127.829C265.853 133.727 259.664 136.808 252.29 135.524L251.432 140.449C261.021 142.12 268.817 137.902 274.905 131.188C280.938 124.533 285.515 115.223 288.94 105.961C292.38 96.658 294.733 87.1973 296.224 80.083C296.97 76.5206 297.504 73.5343 297.851 71.4347C298.024 70.3846 298.152 69.5556 298.236 68.9863C298.278 68.7017 298.309 68.4819 298.33 68.3319C298.341 68.2569 298.349 68.1993 298.354 68.1597C298.357 68.14 298.359 68.1247 298.36 68.114C298.361 68.1087 298.361 68.1045 298.362 68.1014C298.362 68.0999 298.362 68.0985 298.362 68.0977C298.363 68.0966 298.363 68.0958 295.884 67.7671ZM252.29 135.524C245.517 134.344 241.787 128.264 239.745 117.463C237.726 106.787 237.634 92.9366 237.007 78.3405C236.388 63.9279 235.243 48.8886 230.957 36.4816C226.636 23.9732 219.002 13.8319 205.314 9.8271L203.91 14.6259C215.55 18.0316 222.245 26.5767 226.231 38.1142C230.252 49.7531 231.392 64.1192 232.012 78.5551C232.624 92.8076 232.725 107.249 234.832 118.391C236.915 129.409 241.24 138.674 251.432 140.449L252.29 135.524ZM205.314 9.8271C191.315 5.73134 178.723 12.4697 168.687 23.9606C158.645 35.4586 150.715 52.1451 145.712 69.3843C140.709 86.6279 138.551 104.714 140.287 119.116C141.995 133.291 147.703 145.118 159.585 147.43L160.54 142.522C152.118 140.884 146.911 132.29 145.251 118.518C143.618 104.973 145.637 87.5865 150.514 70.7777C155.393 53.9643 163.048 38.0183 172.453 27.2496C181.864 16.4738 192.581 11.3112 203.91 14.6259L205.314 9.8271ZM159.585 147.43C165.273 148.537 170.362 147.496 174.746 144.768C179.071 142.077 182.575 137.832 185.37 132.719C190.946 122.517 194.014 108.285 194.947 93.7956C195.883 79.2719 194.692 64.1993 191.532 52.192C189.952 46.1928 187.853 40.8497 185.202 36.7034C182.564 32.5781 179.22 29.3971 175.073 28.204L173.691 33.009C176.218 33.7361 178.7 35.8163 180.99 39.397C183.266 42.9567 185.196 47.7644 186.696 53.4648C189.695 64.8565 190.866 79.3778 189.958 93.4742C189.048 107.604 186.067 121.019 180.982 130.32C178.447 134.959 175.467 138.43 172.104 140.523C168.801 142.579 164.998 143.39 160.54 142.522L159.585 147.43ZM175.073 28.204C167.492 26.0224 159.86 28.1462 152.805 32.2829C145.752 36.419 138.989 42.726 132.924 49.4654C126.842 56.2237 121.361 63.5309 116.897 69.7625C112.36 76.0962 109.013 81.1089 106.978 83.6261L110.866 86.7699C113.018 84.1083 116.611 78.7476 120.962 72.6742C125.385 66.4987 130.741 59.3652 136.64 52.8102C142.557 46.2363 148.92 40.3574 155.335 36.596C161.748 32.8353 167.926 31.3501 173.691 33.009L175.073 28.204ZM106.978 83.6261C102.483 89.1854 94.9253 101.667 84.0867 110.998C78.74 115.601 72.7954 119.228 66.3334 120.714C59.9371 122.186 52.8659 121.602 45.0958 117.509L42.7656 121.933C51.5717 126.572 59.8655 127.333 67.4545 125.587C74.9778 123.856 81.6386 119.703 87.3488 114.787C98.624 105.08 106.986 91.5681 110.866 86.7699L106.978 83.6261ZM45.0967 117.51C37.6295 113.573 33.4999 106.861 31.1169 98.1111C28.7109 89.2759 28.1723 78.6866 27.699 67.3569C27.2306 56.1479 26.8258 44.2634 24.5571 33.3074C22.2808 22.3149 18.0842 12.0078 9.85636 4.04397L6.37894 7.63668C13.6252 14.6505 17.4995 23.8831 19.661 34.3213C21.83 44.7959 22.2298 56.2331 22.7033 67.5656C23.1718 78.7775 23.7122 89.9496 26.2926 99.4249C28.8961 108.985 33.6603 117.133 42.7648 121.933L45.0967 117.51ZM3.30215 47.3095C5.7994 47.4268 5.79942 47.4267 5.79941 47.4264C5.79944 47.4262 5.79944 47.4257 5.79947 47.4251C5.79953 47.424 5.79961 47.4223 5.79973 47.42C5.79993 47.4155 5.80025 47.4086 5.80069 47.3995C5.80154 47.3813 5.80281 47.3542 5.8045 47.3183C5.80788 47.2466 5.81291 47.14 5.8195 47.0007C5.83265 46.7222 5.85201 46.313 5.87687 45.7904C5.92657 44.7453 5.99816 43.2467 6.08577 41.4333C6.26096 37.8064 6.50013 32.9209 6.756 27.8855C7.27109 17.7496 7.84582 7.18384 8.10304 4.87484L3.13376 4.32128C2.85485 6.82508 2.27148 17.615 1.76246 27.6317C1.50628 32.6726 1.26692 37.5626 1.09158 41.1921C1.00392 43.0069 0.932249 44.5067 0.882505 45.5529C0.857631 46.0761 0.838252 46.4858 0.825066 46.7648C0.818473 46.9043 0.813429 47.0111 0.810053 47.0831C0.808354 47.119 0.807067 47.1463 0.806209 47.1646C0.805768 47.1737 0.805446 47.1806 0.805239 47.1853C0.805134 47.1876 0.805034 47.1893 0.804989 47.1905C0.804954 47.1911 0.804943 47.1915 0.804936 47.1918C0.804904 47.1921 0.804896 47.1922 3.30215 47.3095ZM8.10304 4.87484C8.0452 5.39398 7.75154 5.69877 7.63576 5.78964C7.56366 5.84619 7.61785 5.78156 7.94902 5.68475C8.60685 5.49245 9.71019 5.35371 11.2671 5.3176C14.3294 5.24659 18.4624 5.57993 22.6939 6.07808C26.899 6.57312 31.0987 7.21815 34.2539 7.74093C35.8297 8.00202 37.1409 8.23193 38.0569 8.39634C38.5148 8.47853 38.8737 8.54431 39.1173 8.58937C39.2391 8.61191 39.332 8.62925 39.3941 8.64089C39.4251 8.64672 39.4484 8.6511 39.4637 8.65399C39.4714 8.65544 39.477 8.65651 39.4807 8.6572C39.4825 8.65753 39.4838 8.65779 39.4846 8.65793C39.485 8.65801 39.4852 8.65806 39.4854 8.65808C39.4855 8.65811 39.4855 8.6581 39.9518 6.20197C40.4181 3.74586 40.4178 3.7458 40.4174 3.74572C40.4171 3.74565 40.4165 3.74555 40.4159 3.74544C40.4146 3.7452 40.4129 3.74486 40.4106 3.74443C40.406 3.74356 40.3995 3.74233 40.3909 3.74071C40.3737 3.73745 40.3485 3.73272 40.3156 3.72653C40.2497 3.71418 40.1528 3.69609 40.0269 3.67281C39.7752 3.62624 39.4075 3.55885 38.9402 3.47498C38.0058 3.30728 36.6723 3.07347 35.0712 2.80819C31.8728 2.27824 27.5896 1.61988 23.2784 1.11237C18.9935 0.607931 14.5767 0.239502 11.1512 0.318953C9.46428 0.358074 7.83923 0.507616 6.54614 0.8856C5.90188 1.07394 5.17495 1.36493 4.54891 1.85627C3.87914 2.38188 3.25862 3.20055 3.13376 4.32128L8.10304 4.87484Z" fill="#00D5E0"/>
</svg>
