<?xml version="1.0" standalone="no"?>
<!DOCTYPE svg PUBLIC "-//W3C//DTD SVG 20010904//EN"
 "http://www.w3.org/TR/2001/REC-SVG-20010904/DTD/svg10.dtd">
<svg version="1.0" xmlns="http://www.w3.org/2000/svg"
 width="700.000000pt" height="700.000000pt" viewBox="0 0 700.000000 700.000000"
 preserveAspectRatio="xMidYMid meet">
<metadata>
Created by potrace 1.14, written by Peter Selinger 2001-2017
</metadata>
<g transform="translate(0.000000,700.000000) scale(0.100000,-0.100000)"
fill="#000000" stroke="none">
<path d="M3329 6996 c-2 -2 -47 -6 -99 -10 -210 -13 -437 -52 -660 -113 -113
-30 -334 -106 -407 -139 -28 -13 -54 -24 -57 -24 -14 0 -258 -124 -361 -183
-315 -183 -583 -401 -860 -701 -46 -50 -175 -212 -233 -292 -288 -403 -481
-853 -587 -1365 -3 -15 -29 -185 -40 -264 -26 -177 -26 -669 0 -804 1 -9 6
-43 10 -75 3 -33 15 -105 25 -160 132 -721 482 -1372 1014 -1886 317 -306 651
-525 1091 -716 148 -64 477 -164 625 -190 14 -3 61 -11 105 -19 71 -13 106
-18 205 -30 206 -26 613 -26 815 1 661 87 1222 317 1735 713 112 87 163 132
299 265 373 364 647 787 832 1281 60 159 141 455 164 600 40 257 50 374 50
615 -1 151 -12 397 -20 410 -1 3 -6 30 -9 60 -12 99 -37 233 -67 358 -199 817
-680 1528 -1365 2019 -411 295 -905 504 -1394 592 -158 28 -166 29 -245 36
-38 4 -83 9 -100 11 -37 6 -461 14 -466 10z m-49 -1857 c717 -76 1341 -510
1656 -1154 92 -188 170 -438 189 -602 3 -26 10 -79 14 -118 11 -91 11 -298 0
-405 -38 -352 -170 -704 -369 -984 -176 -248 -381 -436 -655 -603 -211 -128
-526 -233 -810 -269 -147 -18 -470 -7 -609 22 -223 45 -417 112 -591 204 -574
303 -973 854 -1085 1495 -36 208 -34 489 4 705 22 122 23 124 52 224 136 464
438 878 829 1136 44 29 92 61 106 71 57 38 280 139 394 178 127 43 318 85 450
99 105 12 319 12 425 1z"/>
</g>
</svg>
