<svg width="116" height="116" viewBox="0 0 116 116" fill="none" xmlns="http://www.w3.org/2000/svg">
<g clip-path="url(#clip0_3703_117840)">
<path d="M98.5582 17.4405C76.1584 -4.95933 39.8403 -4.95933 17.4405 17.4405C-4.95933 39.842 -4.95933 76.1584 17.4405 98.5582C39.8403 120.96 76.1584 120.96 98.5582 98.5582C120.958 76.1584 120.958 39.842 98.5582 17.4405ZM75.0734 89.1457C61.7578 102.461 40.1687 102.461 26.853 89.1457C13.5374 75.83 13.5374 54.241 26.853 40.9253C40.1687 27.6096 61.7578 27.6096 75.0734 40.9253C88.3891 54.241 88.3891 75.83 75.0734 89.1457Z" fill="url(#paint0_linear_3703_117840)"/>
<path d="M53.3408 15.3164C27.1969 15.3164 6.00391 36.5094 6.00391 62.6533C6.00391 88.7971 27.1969 109.99 53.3408 109.99C79.4846 109.99 100.678 88.7971 100.678 62.6533C100.678 36.5094 79.4846 15.3164 53.3408 15.3164ZM26.8499 40.9237C40.1656 27.608 61.7547 27.608 75.0704 40.9237C88.386 54.2394 88.386 75.8285 75.0704 89.1441C61.7547 102.46 40.1656 102.46 26.8499 89.1441C13.5343 75.8285 13.5343 54.2394 26.8499 40.9237Z" fill="url(#paint1_linear_3703_117840)"/>
</g>
<defs>
<linearGradient id="paint0_linear_3703_117840" x1="7.38309" y1="118.338" x2="97.2685" y2="11.1847" gradientUnits="userSpaceOnUse">
<stop stop-color="#08174A"/>
<stop offset="0.638154" stop-color="#00D5E0"/>
<stop offset="1" stop-color="#EFEFFE"/>
</linearGradient>
<linearGradient id="paint1_linear_3703_117840" x1="98.5128" y1="17.4795" x2="-7.04094" y2="123.033" gradientUnits="userSpaceOnUse">
<stop stop-color="#08174A"/>
<stop offset="0.368644" stop-color="#00D5E0"/>
<stop offset="0.8" stop-color="#EFEFFE"/>
</linearGradient>
<clipPath id="clip0_3703_117840">
<rect x="0.640625" y="0.640625" width="114.719" height="114.719" rx="28.6797" fill="white"/>
</clipPath>
</defs>
</svg>
